<svg xmlns="http://www.w3.org/2000/svg" xmlns:xlink="http://www.w3.org/1999/xlink" width="500" zoomAndPan="magnify" viewBox="0 0 375 374.999991" height="500" preserveAspectRatio="xMidYMid meet" version="1.0"><defs><clipPath id="5df034b586"><path d="M 212 288 L 222 288 L 222 310.433594 L 212 310.433594 Z M 212 288 " clip-rule="nonzero"/></clipPath><clipPath id="a20c7a054d"><path d="M 40.992188 134 L 66 134 L 66 146 L 40.992188 146 Z M 40.992188 134 " clip-rule="nonzero"/></clipPath><clipPath id="473d953c6a"><path d="M 191 64.433594 L 204 64.433594 L 204 85 L 191 85 Z M 191 64.433594 " clip-rule="nonzero"/></clipPath></defs><rect x="-37.5" width="450" fill="#ffffff" y="-37.499999" height="449.999989" fill-opacity="1"/><rect x="-37.5" width="450" fill="#101527" y="-37.499999" height="449.999989" fill-opacity="1"/><path fill="#ff95bb" d="M 174.632812 95.210938 C 174.632812 95.210938 174.417969 99.652344 171.601562 101.957031 C 168.78125 104.265625 164.851562 106.617188 167.65625 109.945312 C 169.367188 111.976562 173.796875 108.824219 172.898438 105.898438 C 172 102.976562 175.316406 98.53125 174.632812 95.210938 Z M 174.632812 95.210938 " fill-opacity="1" fill-rule="nonzero"/><path fill="#ff95bb" d="M 95.71875 164.621094 C 95.71875 164.621094 99.417969 162.851562 102.523438 164.128906 C 105.628906 165.410156 109.257812 167.570312 110.734375 163.835938 C 111.632812 161.558594 107.132812 159.34375 105.15625 161.351562 C 103.175781 163.359375 98.117188 162.613281 95.71875 164.621094 Z M 95.71875 164.621094 " fill-opacity="1" fill-rule="nonzero"/><path fill="#ff95bb" d="M 285.160156 261.332031 C 285.160156 261.332031 279.8125 264.183594 275.148438 262.496094 C 270.484375 260.808594 264.984375 257.851562 263.050781 263.457031 C 261.871094 266.875 268.652344 269.855469 271.441406 266.765625 C 274.234375 263.675781 281.753906 264.449219 285.160156 261.332031 Z M 285.160156 261.332031 " fill-opacity="1" fill-rule="nonzero"/><path fill="#ff95bb" d="M 59.871094 153.097656 C 59.871094 153.097656 61.679688 155.996094 60.910156 158.683594 C 60.140625 161.375 58.6875 164.582031 61.917969 165.453125 C 63.886719 165.988281 65.300781 162.058594 63.457031 160.605469 C 61.609375 159.152344 61.753906 154.894531 59.871094 153.097656 Z M 59.871094 153.097656 " fill-opacity="1" fill-rule="nonzero"/><path fill="#ff95bb" d="M 208.019531 291.316406 C 208.019531 291.316406 210.75 287.449219 214.601562 286.992188 C 218.449219 286.535156 223.324219 286.675781 222.710938 282.082031 C 222.335938 279.28125 216.558594 279.578125 215.691406 282.714844 C 214.824219 285.851562 209.304688 287.945312 208.019531 291.316406 Z M 208.019531 291.316406 " fill-opacity="1" fill-rule="nonzero"/><path fill="#ff95bb" d="M 206.542969 288.367188 C 206.542969 288.367188 208.324219 282.359375 212.953125 280.152344 C 217.582031 277.941406 223.75 276.042969 221.027344 270.546875 C 219.367188 267.195312 212.253906 270.027344 212.5 274.324219 C 212.746094 278.621094 206.71875 283.59375 206.542969 288.367188 Z M 206.542969 288.367188 " fill-opacity="1" fill-rule="nonzero"/><path fill="#ff95bb" d="M 286.019531 254.628906 C 286.019531 254.628906 287.90625 249.636719 291.976562 248.046875 C 296.046875 246.457031 301.40625 245.226562 299.433594 240.386719 C 298.234375 237.4375 292.011719 239.402344 291.953125 243.066406 C 291.898438 246.734375 286.46875 250.585938 286.019531 254.628906 Z M 286.019531 254.628906 " fill-opacity="1" fill-rule="nonzero"/><path fill="#ff95bb" d="M 265.148438 138.53125 C 265.148438 138.53125 264.242188 142.339844 261.429688 143.875 C 258.617188 145.410156 254.835938 146.804688 256.71875 150.140625 C 257.867188 152.171875 262.210938 150.167969 261.910156 147.492188 C 261.609375 144.820312 265.199219 141.515625 265.148438 138.53125 Z M 265.148438 138.53125 " fill-opacity="1" fill-rule="nonzero"/><path fill="#ff95bb" d="M 215.148438 157.746094 C 215.148438 157.746094 216.925781 152.492188 221.09375 150.695312 C 225.261719 148.898438 230.777344 147.429688 228.554688 142.476562 C 227.199219 139.460938 220.8125 141.722656 220.886719 145.53125 C 220.964844 149.339844 215.46875 153.53125 215.148438 157.746094 Z M 215.148438 157.746094 " fill-opacity="1" fill-rule="nonzero"/><path fill="#ff95bb" d="M 75.203125 131.933594 C 75.203125 131.933594 70.453125 130.363281 68.804688 126.621094 C 67.15625 122.871094 65.789062 117.90625 61.339844 119.945312 C 58.628906 121.1875 60.710938 126.933594 64.144531 126.839844 C 67.582031 126.746094 71.398438 131.675781 75.203125 131.933594 Z M 75.203125 131.933594 " fill-opacity="1" fill-rule="nonzero"/><path fill="#ff95bb" d="M 158.234375 98.867188 C 158.234375 98.867188 155.933594 95.394531 156.789062 92.09375 C 157.640625 88.796875 159.308594 84.847656 155.347656 83.882812 C 152.933594 83.296875 151.335938 88.128906 153.628906 89.839844 C 155.921875 91.546875 155.878906 96.738281 158.234375 98.867188 Z M 158.234375 98.867188 " fill-opacity="1" fill-rule="nonzero"/><path fill="#ff95bb" d="M 192.492188 122.210938 C 192.492188 122.210938 190.425781 119.257812 191.089844 116.386719 C 191.75 113.511719 193.101562 110.058594 189.65625 109.316406 C 187.554688 108.867188 186.28125 113.082031 188.304688 114.507812 C 190.328125 115.933594 190.410156 120.421875 192.492188 122.210938 Z M 192.492188 122.210938 " fill-opacity="1" fill-rule="nonzero"/><path fill="#ff95bb" d="M 249.960938 219.371094 C 249.960938 219.371094 249.660156 215.25 252 212.8125 C 254.339844 210.371094 257.703125 207.761719 254.742188 205.007812 C 252.941406 203.328125 249.210938 206.730469 250.363281 209.324219 C 251.519531 211.917969 248.960938 216.386719 249.960938 219.371094 Z M 249.960938 219.371094 " fill-opacity="1" fill-rule="nonzero"/><path fill="#ff95bb" d="M 173.378906 143.585938 C 173.378906 143.585938 179.0625 145.785156 180.84375 150.445312 C 182.621094 155.105469 183.980469 161.230469 189.519531 159.023438 C 192.898438 157.675781 190.710938 150.558594 186.523438 150.460938 C 182.339844 150.363281 177.992188 144.132812 173.378906 143.585938 Z M 173.378906 143.585938 " fill-opacity="1" fill-rule="nonzero"/><path fill="#ff95bb" d="M 189.328125 87.027344 C 189.328125 87.027344 192.195312 91.160156 191.253906 95.167969 C 190.3125 99.179688 188.402344 103.996094 193.210938 105.054688 C 196.144531 105.699219 197.949219 99.816406 195.132812 97.8125 C 192.3125 95.808594 192.226562 89.535156 189.328125 87.027344 Z M 189.328125 87.027344 " fill-opacity="1" fill-rule="nonzero"/><path fill="#ff95bb" d="M 145.632812 84.28125 C 145.632812 84.28125 139.234375 80.574219 136.828125 83.957031 C 134.425781 87.339844 129.503906 87.421875 128.171875 83.421875 C 126.84375 79.425781 138.089844 75.621094 145.632812 84.28125 Z M 145.632812 84.28125 " fill-opacity="1" fill-rule="nonzero"/><path fill="#ff95bb" d="M 297.457031 152.792969 C 297.457031 152.792969 291.484375 150.121094 289.679688 153.320312 C 287.878906 156.519531 283.554688 157.042969 282.015625 153.648438 C 280.476562 150.253906 290.019531 145.871094 297.457031 152.792969 Z M 297.457031 152.792969 " fill-opacity="1" fill-rule="nonzero"/><g clip-path="url(#5df034b586)"><path fill="#ff95bb" d="M 213.71875 310.53125 C 213.71875 310.53125 219.246094 302.894531 215.265625 299.40625 C 211.285156 295.921875 211.820312 289.667969 217.0625 288.5 C 222.300781 287.332031 225.675781 302.082031 213.71875 310.53125 Z M 213.71875 310.53125 " fill-opacity="1" fill-rule="nonzero"/></g><path fill="#ff95bb" d="M 141.316406 254.042969 C 141.316406 254.042969 145.355469 245.828125 140.972656 243.144531 C 136.585938 240.457031 136.074219 234.382812 140.902344 232.40625 C 145.726562 230.425781 151.375 243.996094 141.316406 254.046875 Z M 141.316406 254.042969 " fill-opacity="1" fill-rule="nonzero"/><path fill="#ff95bb" d="M 151.546875 197.402344 C 151.546875 197.402344 157.652344 195.578125 156.949219 192.070312 C 156.246094 188.5625 159.105469 185.425781 162.398438 186.953125 C 165.691406 188.484375 161.433594 197.785156 151.546875 197.402344 Z M 151.546875 197.402344 " fill-opacity="1" fill-rule="nonzero"/><path fill="#ff95bb" d="M 102.90625 151.675781 C 102.90625 151.675781 94.886719 161.832031 100.148438 166.847656 C 105.410156 171.859375 104.3125 180.40625 97.058594 181.707031 C 89.800781 183.011719 86.019531 162.578125 102.90625 151.675781 Z M 102.90625 151.675781 " fill-opacity="1" fill-rule="nonzero"/><path fill="#ff95bb" d="M 94.976562 177.738281 C 94.976562 177.738281 95.378906 186.644531 100.378906 186.882812 C 105.378906 187.121094 108.660156 192.066406 105.46875 196.015625 C 102.277344 199.964844 91.097656 191.027344 94.976562 177.738281 Z M 94.976562 177.738281 " fill-opacity="1" fill-rule="nonzero"/><path fill="#ff95bb" d="M 198.351562 122.664062 C 198.351562 122.664062 208.304688 130.476562 213.191406 125.316406 C 218.078125 120.15625 226.4375 121.203125 227.734375 128.292969 C 229.03125 135.386719 209.0625 139.144531 198.351562 122.664062 Z M 198.351562 122.664062 " fill-opacity="1" fill-rule="nonzero"/><path fill="#ff95bb" d="M 293.015625 164.125 C 293.015625 164.125 289.074219 176.328125 295.691406 179.164062 C 302.308594 182 304.242188 190.316406 297.953125 194.03125 C 291.664062 197.746094 281.097656 180.078125 293.015625 164.125 Z M 293.015625 164.125 " fill-opacity="1" fill-rule="nonzero"/><path fill="#ff95bb" d="M 298.640625 208.058594 C 298.640625 208.058594 295.589844 218.699219 301.378906 220.957031 C 307.167969 223.210938 309.078125 230.328125 303.761719 233.714844 C 298.441406 237.101562 288.820312 222.164062 298.640625 208.058594 Z M 298.640625 208.058594 " fill-opacity="1" fill-rule="nonzero"/><path fill="#ff95bb" d="M 233.59375 79.632812 C 233.59375 79.632812 224.273438 82.992188 225.667969 88.375 C 227.0625 93.757812 222.894531 98.871094 217.652344 96.785156 C 212.410156 94.699219 218.210938 79.890625 233.59375 79.628906 Z M 233.59375 79.632812 " fill-opacity="1" fill-rule="nonzero"/><path fill="#ff95bb" d="M 155.425781 210.367188 C 155.425781 210.367188 147.792969 214.292969 149.59375 218.765625 C 151.390625 223.238281 148.382812 228.097656 143.640625 226.890625 C 138.902344 225.683594 142.234375 212.308594 155.425781 210.367188 Z M 155.425781 210.367188 " fill-opacity="1" fill-rule="nonzero"/><path fill="#ff95bb" d="M 52.882812 143.699219 C 52.882812 143.699219 48.78125 154.265625 54.476562 157.105469 C 60.167969 159.945312 61.453125 167.378906 55.714844 170.335938 C 49.976562 173.296875 41.554688 157.167969 52.882812 143.699219 Z M 52.882812 143.699219 " fill-opacity="1" fill-rule="nonzero"/><path fill="#ff95bb" d="M 254.679688 242.5 C 254.679688 242.5 250.796875 235.1875 246.503906 236.976562 C 242.214844 238.769531 237.488281 235.929688 238.59375 231.34375 C 239.699219 226.753906 252.644531 229.800781 254.679688 242.5 Z M 254.679688 242.5 " fill-opacity="1" fill-rule="nonzero"/><path fill="#ff95bb" d="M 222.375 163.730469 C 222.375 163.730469 210.585938 165.082031 210.730469 171.742188 C 210.875 178.398438 204.613281 183.210938 199.074219 179.335938 C 193.539062 175.464844 204.375 159.800781 222.375 163.730469 Z M 222.375 163.730469 " fill-opacity="1" fill-rule="nonzero"/><path fill="#ff95bb" d="M 238.234375 91.878906 C 238.234375 91.878906 242.65625 83.960938 245.640625 86.484375 C 248.625 89.011719 251.4375 83.089844 246.621094 79.75 C 241.800781 76.410156 237.335938 84.882812 238.234375 91.878906 Z M 238.234375 91.878906 " fill-opacity="1" fill-rule="nonzero"/><path fill="#ff95bb" d="M 79.296875 108.554688 C 79.296875 108.554688 79.203125 121.050781 73.921875 119.980469 C 68.644531 118.90625 69.171875 127.925781 77.207031 128.765625 C 85.242188 129.605469 85.023438 116.410156 79.296875 108.554688 Z M 79.296875 108.554688 " fill-opacity="1" fill-rule="nonzero"/><path fill="#ff95bb" d="M 161.15625 160.277344 C 161.15625 160.277344 167.96875 171.074219 162.835938 173.0625 C 157.707031 175.050781 163.132812 182.515625 170.507812 178.808594 C 177.878906 175.097656 170.414062 163.875 161.15625 160.277344 Z M 161.15625 160.277344 " fill-opacity="1" fill-rule="nonzero"/><path fill="#ff95bb" d="M 262.875 192.277344 C 262.875 192.277344 268.5 186.460938 270.496094 189.320312 C 272.492188 192.183594 276.273438 187.71875 272.882812 183.734375 C 269.488281 179.75 263.699219 186.035156 262.875 192.277344 Z M 262.875 192.277344 " fill-opacity="1" fill-rule="nonzero"/><path fill="#ff95bb" d="M 164.207031 200.507812 C 164.207031 200.507812 157.230469 203.96875 156.339844 200.734375 C 155.453125 197.496094 150.585938 200.328125 152.378906 205.03125 C 154.175781 209.738281 161.449219 205.902344 164.207031 200.507812 Z M 164.207031 200.507812 " fill-opacity="1" fill-rule="nonzero"/><path fill="#ff95bb" d="M 214.320312 269.921875 C 214.320312 269.921875 216.683594 258.363281 221.378906 260.316406 C 226.074219 262.273438 227.226562 253.820312 219.933594 251.578125 C 212.644531 249.335938 210.445312 261.601562 214.320312 269.921875 Z M 214.320312 269.921875 " fill-opacity="1" fill-rule="nonzero"/><path fill="#ff95bb" d="M 247.042969 237.320312 C 247.042969 237.320312 237.53125 241.640625 236.488281 237.257812 C 235.449219 232.878906 228.792969 236.445312 230.976562 242.835938 C 233.164062 249.226562 243.09375 244.425781 247.042969 237.320312 Z M 247.042969 237.320312 " fill-opacity="1" fill-rule="nonzero"/><path fill="#ff95bb" d="M 274.707031 236.125 C 274.707031 236.125 276.714844 225.152344 281.191406 226.90625 C 285.667969 228.660156 286.59375 220.652344 279.65625 218.675781 C 272.71875 216.699219 270.882812 228.335938 274.707031 236.121094 Z M 274.707031 236.125 " fill-opacity="1" fill-rule="nonzero"/><path fill="#ff95bb" d="M 151.203125 195.210938 C 151.203125 195.210938 150.917969 188.089844 153.957031 188.558594 C 156.992188 189.027344 156.445312 183.902344 151.847656 183.640625 C 147.246094 183.378906 147.730469 190.890625 151.203125 195.210938 Z M 151.203125 195.210938 " fill-opacity="1" fill-rule="nonzero"/><path fill="#ff95bb" d="M 316.117188 193.078125 C 316.117188 193.078125 322.140625 196.617188 320.144531 198.871094 C 318.152344 201.128906 322.664062 203.394531 325.316406 199.738281 C 327.96875 196.082031 321.519531 192.5 316.117188 193.078125 Z M 316.117188 193.078125 " fill-opacity="1" fill-rule="nonzero"/><path fill="#ff95bb" d="M 234.546875 175.140625 C 234.546875 175.140625 242.292969 184.980469 237.488281 187.445312 C 232.6875 189.90625 238.742188 196.636719 245.558594 192.265625 C 252.375 187.894531 243.945312 177.707031 234.546875 175.140625 Z M 234.546875 175.140625 " fill-opacity="1" fill-rule="nonzero"/><path fill="#ff95bb" d="M 212.582031 243.5625 C 212.582031 243.5625 202.65625 244.777344 202.960938 240.476562 C 203.269531 236.175781 196.164062 237.523438 196.328125 243.988281 C 196.488281 250.453125 206.9375 248.917969 212.582031 243.5625 Z M 212.582031 243.5625 " fill-opacity="1" fill-rule="nonzero"/><path fill="#ff95bb" d="M 140.984375 75.625 C 140.984375 75.625 134.542969 75.230469 135.242188 72.539062 C 135.941406 69.847656 131.277344 69.867188 130.621094 73.988281 C 129.964844 78.109375 136.777344 78.359375 140.984375 75.625 Z M 140.984375 75.625 " fill-opacity="1" fill-rule="nonzero"/><path fill="#ff95bb" d="M 283.453125 103.707031 C 283.453125 103.707031 282.621094 114.914062 277.949219 113.636719 C 273.273438 112.359375 273.207031 120.484375 280.371094 121.71875 C 287.53125 122.953125 288.125 111.097656 283.453125 103.703125 Z M 283.453125 103.707031 " fill-opacity="1" fill-rule="nonzero"/><path fill="#ff95bb" d="M 238.035156 209.957031 C 238.035156 209.957031 243.175781 213.601562 241.207031 215.472656 C 239.242188 217.347656 243.121094 219.730469 245.789062 216.648438 C 248.453125 213.570312 242.933594 209.855469 238.035156 209.957031 Z M 238.035156 209.957031 " fill-opacity="1" fill-rule="nonzero"/><path fill="#ff95bb" d="M 117.777344 193.441406 C 121.394531 193.617188 124.257812 190.34375 124.164062 186.722656 C 124.121094 184.957031 123.378906 183.375 122.214844 182.226562 C 122.074219 182.074219 121.914062 181.925781 121.710938 181.777344 C 120.792969 181.042969 119.679688 180.554688 118.464844 180.398438 C 118.378906 180.371094 118.304688 180.347656 118.214844 180.320312 C 105.171875 176.78125 95.046875 182.695312 95.046875 182.695312 C 108.570312 181.609375 111.609375 189.871094 111.609375 189.871094 C 111.609375 189.871094 113.488281 193.234375 117.777344 193.441406 Z M 117.777344 193.441406 " fill-opacity="1" fill-rule="nonzero"/><path fill="#ff95bb" d="M 124.042969 131.046875 C 124.214844 132.945312 126.128906 134.199219 128.011719 133.886719 C 128.929688 133.738281 129.699219 133.234375 130.210938 132.542969 C 130.28125 132.460938 130.347656 132.367188 130.410156 132.246094 C 130.726562 131.714844 130.898438 131.101562 130.894531 130.457031 C 130.898438 130.40625 130.90625 130.367188 130.914062 130.320312 C 131.808594 123.261719 127.988281 118.414062 127.988281 118.414062 C 129.539062 125.386719 125.453125 127.570312 125.453125 127.570312 C 125.453125 127.570312 123.835938 128.796875 124.042969 131.046875 Z M 124.042969 131.046875 " fill-opacity="1" fill-rule="nonzero"/><path fill="#ff95bb" d="M 200.65625 118.027344 C 200.039062 116.257812 197.917969 115.515625 196.195312 116.257812 C 195.359375 116.621094 194.742188 117.28125 194.414062 118.0625 C 194.367188 118.160156 194.328125 118.265625 194.296875 118.390625 C 194.121094 118.972656 194.101562 119.601562 194.261719 120.214844 C 194.265625 120.261719 194.265625 120.300781 194.273438 120.351562 C 195.089844 127.296875 199.886719 131.015625 199.886719 131.015625 C 196.753906 124.730469 200.132812 121.679688 200.132812 121.679688 C 200.132812 121.679688 201.382812 120.125 200.65625 118.027344 Z M 200.65625 118.027344 " fill-opacity="1" fill-rule="nonzero"/><path fill="#ff95bb" d="M 126.636719 206.386719 C 127.234375 202.941406 124.4375 199.808594 120.953125 199.464844 C 119.257812 199.296875 117.652344 199.820312 116.410156 200.800781 C 116.25 200.914062 116.085938 201.050781 115.921875 201.230469 C 115.105469 202.019531 114.507812 203.03125 114.210938 204.175781 C 114.175781 204.257812 114.144531 204.324219 114.109375 204.40625 C 109.164062 216.492188 113.628906 226.90625 113.628906 226.90625 C 114.195312 213.808594 122.476562 211.878906 122.476562 211.878906 C 122.476562 211.878906 125.925781 210.476562 126.636719 206.390625 Z M 126.636719 206.386719 " fill-opacity="1" fill-rule="nonzero"/><path fill="#ff95bb" d="M 77.507812 200.308594 C 79.964844 201.742188 83.144531 200.5 84.394531 197.945312 C 85.003906 196.703125 85.058594 195.332031 84.667969 194.109375 C 84.625 193.953125 84.570312 193.789062 84.480469 193.613281 C 84.109375 192.769531 83.507812 192.027344 82.722656 191.472656 C 82.667969 191.425781 82.628906 191.382812 82.574219 191.332031 C 74.777344 184.132812 65.582031 184.574219 65.582031 184.574219 C 75.394531 188.726562 74.507812 195.582031 74.507812 195.582031 C 74.507812 195.582031 74.597656 198.605469 77.507812 200.308594 Z M 77.507812 200.308594 " fill-opacity="1" fill-rule="nonzero"/><path fill="#ff95bb" d="M 234.59375 254.335938 C 233.058594 255.800781 233.289062 258.339844 234.859375 259.761719 C 235.628906 260.457031 236.597656 260.78125 237.558594 260.753906 C 237.679688 260.753906 237.808594 260.75 237.953125 260.722656 C 238.632812 260.628906 239.289062 260.351562 239.847656 259.902344 C 239.894531 259.875 239.933594 259.855469 239.980469 259.828125 C 246.757812 255.722656 248.34375 249.039062 248.34375 249.039062 C 243.335938 255.214844 238.601562 253.164062 238.601562 253.164062 C 238.601562 253.164062 236.414062 252.601562 234.59375 254.335938 Z M 234.59375 254.335938 " fill-opacity="1" fill-rule="nonzero"/><path fill="#ff95bb" d="M 238.757812 197.238281 C 237.980469 195.617188 235.875 195.132812 234.3125 196.027344 C 233.550781 196.464844 233.03125 197.160156 232.804688 197.941406 C 232.769531 198.039062 232.742188 198.144531 232.726562 198.269531 C 232.621094 198.84375 232.667969 199.445312 232.886719 200.011719 C 232.894531 200.058594 232.902344 200.09375 232.910156 200.140625 C 234.4375 206.683594 239.410156 209.722656 239.410156 209.722656 C 235.746094 204.058594 238.648438 200.78125 238.648438 200.78125 C 238.648438 200.78125 239.679688 199.167969 238.757812 197.238281 Z M 238.757812 197.238281 " fill-opacity="1" fill-rule="nonzero"/><path fill="#ff95bb" d="M 302.265625 161.695312 C 304.683594 161.230469 306.050781 158.609375 305.410156 156.230469 C 305.097656 155.074219 304.355469 154.148438 303.398438 153.574219 C 303.285156 153.496094 303.15625 153.421875 302.996094 153.355469 C 302.273438 153.019531 301.460938 152.875 300.632812 152.964844 C 300.570312 152.964844 300.515625 152.957031 300.453125 152.957031 C 291.269531 152.707031 285.527344 158.238281 285.527344 158.238281 C 294.289062 155.351562 297.617188 160.324219 297.617188 160.324219 C 297.617188 160.324219 299.398438 162.246094 302.265625 161.695312 Z M 302.265625 161.695312 " fill-opacity="1" fill-rule="nonzero"/><path fill="#ff95bb" d="M 217.929688 78.886719 C 217.945312 76.070312 215.300781 73.953125 212.488281 74.148438 C 211.117188 74.242188 209.914062 74.875 209.058594 75.816406 C 208.945312 75.929688 208.832031 76.0625 208.726562 76.226562 C 208.183594 76.960938 207.84375 77.84375 207.761719 78.796875 C 207.746094 78.863281 207.730469 78.921875 207.710938 78.992188 C 205.402344 89.257812 210.34375 96.929688 210.34375 96.929688 C 209.039062 86.449219 215.363281 83.808594 215.363281 83.808594 C 215.363281 83.808594 217.914062 82.230469 217.929688 78.886719 Z M 217.929688 78.886719 " fill-opacity="1" fill-rule="nonzero"/><path fill="#ff95bb" d="M 101.628906 199.09375 C 100.949219 196.824219 98.308594 195.769531 96.09375 196.613281 C 95.015625 197.023438 94.199219 197.828125 93.746094 198.792969 C 93.679688 198.914062 93.621094 199.042969 93.574219 199.203125 C 93.320312 199.929688 93.265625 200.71875 93.429688 201.503906 C 93.433594 201.5625 93.433594 201.613281 93.4375 201.675781 C 94.089844 210.492188 99.9375 215.457031 99.9375 215.457031 C 96.328125 207.347656 100.765625 203.675781 100.765625 203.675781 C 100.765625 203.675781 102.433594 201.785156 101.628906 199.09375 Z M 101.628906 199.09375 " fill-opacity="1" fill-rule="nonzero"/><path fill="#ff95bb" d="M 271.710938 137.058594 C 268.246094 137.484375 266.058594 141.066406 266.738281 144.492188 C 267.066406 146.164062 268.03125 147.546875 269.328125 148.449219 C 269.484375 148.570312 269.660156 148.6875 269.878906 148.796875 C 270.871094 149.34375 272.007812 149.625 273.191406 149.578125 C 273.277344 149.585938 273.351562 149.597656 273.441406 149.605469 C 286.421875 150.839844 295.082031 143.5625 295.082031 143.5625 C 282.402344 146.808594 278.164062 139.449219 278.164062 139.449219 C 278.164062 139.449219 275.824219 136.554688 271.710938 137.058594 Z M 271.710938 137.058594 " fill-opacity="1" fill-rule="nonzero"/><path fill="#ff95bb" d="M 64.113281 158.347656 C 66.046875 158.726562 67.847656 157.1875 68.082031 155.234375 C 68.195312 154.277344 67.921875 153.367188 67.386719 152.660156 C 67.324219 152.566406 67.246094 152.472656 67.148438 152.375 C 66.714844 151.910156 66.152344 151.558594 65.511719 151.378906 C 65.464844 151.359375 65.429688 151.339844 65.382812 151.320312 C 58.636719 148.386719 52.722656 150.773438 52.722656 150.773438 C 60.089844 151.253906 61.074219 155.941406 61.074219 155.941406 C 61.074219 155.941406 61.820312 157.898438 64.113281 158.347656 Z M 64.113281 158.347656 " fill-opacity="1" fill-rule="nonzero"/><path fill="#ff95bb" d="M 150.519531 136.832031 C 150.1875 133.371094 146.679688 131.101562 143.25 131.6875 C 141.578125 131.976562 140.175781 132.898438 139.242188 134.164062 C 139.117188 134.316406 138.996094 134.492188 138.886719 134.707031 C 138.3125 135.679688 138.003906 136.804688 138.023438 137.980469 C 138.011719 138.070312 137.996094 138.140625 137.984375 138.230469 C 136.421875 151.121094 143.445312 159.933594 143.445312 159.933594 C 140.542969 147.222656 147.976562 143.195312 147.976562 143.195312 C 147.976562 143.195312 150.917969 140.941406 150.519531 136.832031 Z M 150.519531 136.832031 " fill-opacity="1" fill-rule="nonzero"/><path fill="#ff95bb" d="M 79.742188 166.945312 C 77.746094 166.160156 75.519531 167.453125 74.886719 169.503906 C 74.574219 170.5 74.691406 171.53125 75.128906 172.394531 C 75.175781 172.507812 75.238281 172.621094 75.324219 172.742188 C 75.699219 173.328125 76.230469 173.8125 76.882812 174.132812 C 76.929688 174.164062 76.964844 174.191406 77.011719 174.222656 C 83.65625 178.683594 90.460938 177.285156 90.460938 177.285156 C 82.664062 175.328125 82.527344 170.117188 82.527344 170.117188 C 82.527344 170.117188 82.109375 167.875 79.742188 166.945312 Z M 79.742188 166.945312 " fill-opacity="1" fill-rule="nonzero"/><path fill="#ff95bb" d="M 124.882812 118.65625 C 124.992188 115.707031 122.296875 113.40625 119.351562 113.515625 C 117.914062 113.570312 116.628906 114.1875 115.707031 115.148438 C 115.582031 115.261719 115.460938 115.394531 115.34375 115.5625 C 114.753906 116.316406 114.367188 117.226562 114.25 118.21875 C 114.230469 118.289062 114.210938 118.347656 114.191406 118.421875 C 111.429688 129.078125 116.339844 137.273438 116.339844 137.273438 C 115.328125 126.265625 122.03125 123.714844 122.03125 123.714844 C 122.03125 123.714844 124.753906 122.152344 124.882812 118.65625 Z M 124.882812 118.65625 " fill-opacity="1" fill-rule="nonzero"/><path fill="#ff95bb" d="M 179.453125 175.488281 C 178.585938 179.414062 176.191406 181.136719 176.191406 181.136719 C 176.191406 181.136719 176.203125 181.152344 176.21875 181.175781 C 175.632812 181.660156 175.347656 182.453125 175.546875 183.234375 C 175.824219 184.3125 176.925781 184.960938 178.003906 184.683594 C 178.53125 184.546875 178.953125 184.214844 179.21875 183.789062 C 179.253906 183.734375 179.289062 183.675781 179.320312 183.605469 C 179.476562 183.28125 179.816406 182.667969 179.78125 182.292969 C 179.78125 182.292969 180.859375 178.085938 179.453125 175.488281 Z M 179.453125 175.488281 " fill-opacity="1" fill-rule="nonzero"/><path fill="#ff95bb" d="M 325.984375 166 C 321.691406 164.835938 319.914062 162.101562 319.914062 162.101562 C 319.914062 162.101562 319.894531 162.113281 319.867188 162.128906 C 319.363281 161.457031 318.5 161.097656 317.628906 161.28125 C 316.421875 161.53125 315.644531 162.714844 315.894531 163.921875 C 316.019531 164.507812 316.363281 164.996094 316.824219 165.308594 C 316.878906 165.351562 316.941406 165.390625 317.019531 165.429688 C 317.371094 165.617188 318.03125 166.027344 318.445312 166.007812 C 318.445312 166.007812 323.039062 167.421875 325.984375 166 Z M 325.984375 166 " fill-opacity="1" fill-rule="nonzero"/><path fill="#ff95bb" d="M 221.957031 137.023438 C 217.4375 138.777344 214.105469 137.527344 214.105469 137.527344 C 214.105469 137.527344 214.097656 137.550781 214.082031 137.582031 C 213.207031 137.320312 212.21875 137.5625 211.570312 138.285156 C 210.671875 139.289062 210.757812 140.828125 211.757812 141.726562 C 212.246094 142.164062 212.863281 142.363281 213.46875 142.34375 C 213.546875 142.34375 213.628906 142.339844 213.71875 142.320312 C 214.152344 142.261719 214.996094 142.191406 215.347656 141.90625 C 215.347656 141.90625 220.292969 140.175781 221.957031 137.023438 Z M 221.957031 137.023438 " fill-opacity="1" fill-rule="nonzero"/><path fill="#ff95bb" d="M 137.742188 145.121094 C 133.066406 150.03125 128.105469 150.433594 128.105469 150.433594 C 128.105469 150.433594 128.105469 150.464844 128.105469 150.511719 C 126.839844 150.703125 125.734375 151.59375 125.34375 152.902344 C 124.804688 154.703125 125.824219 156.601562 127.628906 157.140625 C 128.507812 157.402344 129.40625 157.292969 130.164062 156.902344 C 130.257812 156.859375 130.359375 156.804688 130.464844 156.726562 C 130.976562 156.394531 132.003906 155.808594 132.277344 155.234375 C 132.277344 155.234375 137.507812 150.101562 137.742188 145.121094 Z M 137.742188 145.121094 " fill-opacity="1" fill-rule="nonzero"/><path fill="#ff95bb" d="M 98.976562 86.765625 C 94.582031 89.921875 90.628906 89.503906 90.628906 89.503906 C 90.628906 89.503906 90.625 89.53125 90.617188 89.570312 C 89.597656 89.53125 88.597656 90.066406 88.097656 91.03125 C 87.40625 92.367188 87.929688 94.007812 89.261719 94.699219 C 89.910156 95.035156 90.636719 95.082031 91.285156 94.886719 C 91.367188 94.867188 91.457031 94.839844 91.550781 94.792969 C 92 94.609375 92.894531 94.300781 93.191406 93.890625 C 93.191406 93.890625 98.054688 90.636719 98.976562 86.765625 Z M 98.976562 86.765625 " fill-opacity="1" fill-rule="nonzero"/><path fill="#ff95bb" d="M 171.015625 149.480469 C 174.335938 151.410156 175.207031 154.089844 175.207031 154.089844 C 175.207031 154.089844 175.226562 154.085938 175.253906 154.078125 C 175.523438 154.75 176.160156 155.242188 176.929688 155.285156 C 177.992188 155.347656 178.90625 154.535156 178.964844 153.472656 C 178.996094 152.953125 178.816406 152.472656 178.5 152.105469 C 178.464844 152.058594 178.421875 152.011719 178.363281 151.960938 C 178.113281 151.726562 177.65625 151.234375 177.304688 151.160156 C 177.304688 151.160156 173.789062 148.957031 171.015625 149.480469 Z M 171.015625 149.480469 " fill-opacity="1" fill-rule="nonzero"/><path fill="#ff95bb" d="M 239.511719 79.769531 C 232.722656 78.042969 229.851562 73.78125 229.851562 73.78125 C 229.851562 73.78125 229.820312 73.796875 229.777344 73.824219 C 228.964844 72.78125 227.601562 72.238281 226.230469 72.546875 C 224.335938 72.972656 223.144531 74.851562 223.570312 76.75 C 223.777344 77.671875 224.332031 78.425781 225.066406 78.910156 C 225.152344 78.976562 225.253906 79.039062 225.378906 79.09375 C 225.9375 79.386719 226.984375 80.011719 227.640625 79.96875 C 227.640625 79.96875 234.90625 82.078125 239.511719 79.769531 Z M 239.511719 79.769531 " fill-opacity="1" fill-rule="nonzero"/><path fill="#ff95bb" d="M 80.460938 160.773438 C 83.703125 164.121094 83.839844 167.539062 83.839844 167.539062 C 83.839844 167.539062 83.859375 167.542969 83.894531 167.542969 C 83.988281 168.417969 84.570312 169.199219 85.457031 169.507812 C 86.679688 169.925781 88.011719 169.277344 88.433594 168.054688 C 88.636719 167.460938 88.585938 166.839844 88.339844 166.308594 C 88.3125 166.242188 88.277344 166.171875 88.230469 166.09375 C 88.015625 165.734375 87.640625 165.011719 87.253906 164.808594 C 87.253906 164.808594 83.875 161.074219 80.460938 160.773438 Z M 80.460938 160.773438 " fill-opacity="1" fill-rule="nonzero"/><path fill="#ff95bb" d="M 231.457031 149.777344 C 225.5 150.882812 221.703125 148.574219 221.703125 148.574219 C 221.703125 148.574219 221.683594 148.597656 221.660156 148.632812 C 220.644531 148.109375 219.378906 148.175781 218.410156 148.914062 C 217.078125 149.933594 216.824219 151.84375 217.84375 153.179688 C 218.339844 153.828125 219.050781 154.222656 219.800781 154.335938 C 219.894531 154.355469 219.996094 154.367188 220.113281 154.367188 C 220.65625 154.394531 221.707031 154.507812 222.207031 154.234375 C 222.207031 154.234375 228.679688 153.257812 231.457031 149.777344 Z M 231.457031 149.777344 " fill-opacity="1" fill-rule="nonzero"/><path fill="#ff95bb" d="M 69.582031 172.410156 C 65.210938 174.179688 61.957031 173.007812 61.957031 173.007812 C 61.957031 173.007812 61.945312 173.03125 61.933594 173.058594 C 61.078125 172.816406 60.121094 173.066406 59.5 173.78125 C 58.640625 174.765625 58.742188 176.261719 59.730469 177.121094 C 60.210938 177.539062 60.8125 177.726562 61.402344 177.699219 C 61.476562 177.699219 61.554688 177.691406 61.644531 177.671875 C 62.0625 177.609375 62.882812 177.53125 63.222656 177.246094 C 63.222656 177.246094 68.003906 175.496094 69.582031 172.410156 Z M 69.582031 172.410156 " fill-opacity="1" fill-rule="nonzero"/><path fill="#ff95bb" d="M 154.46875 82.828125 C 149.835938 78.164062 149.582031 73.34375 149.582031 73.34375 C 149.582031 73.34375 149.550781 73.34375 149.503906 73.34375 C 149.351562 72.113281 148.515625 71.019531 147.261719 70.601562 C 145.53125 70.03125 143.664062 70.972656 143.09375 72.703125 C 142.8125 73.546875 142.898438 74.421875 143.253906 75.167969 C 143.292969 75.261719 143.34375 75.359375 143.417969 75.464844 C 143.726562 75.96875 144.265625 76.980469 144.816406 77.261719 C 144.816406 77.261719 149.648438 82.464844 154.46875 82.828125 Z M 154.46875 82.828125 " fill-opacity="1" fill-rule="nonzero"/><path fill="#ff95bb" d="M 150.261719 72.957031 C 156.027344 72.285156 159.515625 74.734375 159.515625 74.734375 C 159.515625 74.734375 159.53125 74.710938 159.558594 74.679688 C 160.496094 75.246094 161.710938 75.265625 162.683594 74.617188 C 164.023438 73.730469 164.390625 71.917969 163.5 70.578125 C 163.066406 69.921875 162.410156 69.503906 161.699219 69.34375 C 161.613281 69.320312 161.515625 69.300781 161.40625 69.292969 C 160.886719 69.234375 159.886719 69.058594 159.394531 69.289062 C 159.394531 69.285156 153.140625 69.804688 150.261719 72.957031 Z M 150.261719 72.957031 " fill-opacity="1" fill-rule="nonzero"/><path fill="#ff95bb" d="M 103.019531 92.402344 C 105.605469 88.851562 108.757812 88.171875 108.757812 88.171875 C 108.757812 88.171875 108.753906 88.148438 108.75 88.117188 C 109.546875 87.890625 110.179688 87.222656 110.320312 86.351562 C 110.511719 85.148438 109.695312 84.015625 108.492188 83.820312 C 107.90625 83.726562 107.335938 83.875 106.882812 84.191406 C 106.824219 84.226562 106.765625 84.269531 106.703125 84.328125 C 106.40625 84.585938 105.792969 85.050781 105.667969 85.441406 C 105.667969 85.441406 102.746094 89.183594 103.019531 92.402344 Z M 103.019531 92.402344 " fill-opacity="1" fill-rule="nonzero"/><path fill="#ff95bb" d="M 111.433594 232.832031 C 108.992188 230.503906 108.792969 228.03125 108.792969 228.03125 C 108.792969 228.03125 108.777344 228.03125 108.753906 228.03125 C 108.660156 227.402344 108.214844 226.851562 107.566406 226.65625 C 106.667969 226.386719 105.722656 226.894531 105.453125 227.792969 C 105.320312 228.230469 105.375 228.675781 105.570312 229.054688 C 105.589844 229.101562 105.617188 229.152344 105.65625 229.207031 C 105.824219 229.460938 106.113281 229.972656 106.402344 230.109375 C 106.402344 230.109375 108.953125 232.714844 111.433594 232.832031 Z M 111.433594 232.832031 " fill-opacity="1" fill-rule="nonzero"/><path fill="#ff95bb" d="M 82.871094 95.9375 C 79.988281 99.601562 76.617188 100.199219 76.617188 100.199219 C 76.617188 100.199219 76.621094 100.222656 76.625 100.253906 C 75.769531 100.46875 75.070312 101.148438 74.886719 102.070312 C 74.636719 103.335938 75.457031 104.570312 76.726562 104.824219 C 77.34375 104.945312 77.953125 104.8125 78.445312 104.496094 C 78.511719 104.460938 78.574219 104.417969 78.644531 104.355469 C 78.972656 104.097656 79.636719 103.625 79.789062 103.214844 C 79.789062 103.214844 83.035156 99.363281 82.871094 95.9375 Z M 82.871094 95.9375 " fill-opacity="1" fill-rule="nonzero"/><path fill="#ff95bb" d="M 263.996094 113.714844 C 263.996094 113.714844 279.851562 118.734375 278.261719 131.164062 C 278.261719 131.164062 275.878906 137.804688 271.675781 136.457031 C 267.476562 135.109375 265.972656 128.792969 270.667969 126.191406 C 275.363281 123.589844 268.863281 114.832031 263.996094 113.714844 Z M 263.996094 113.714844 " fill-opacity="1" fill-rule="nonzero"/><path fill="#ff95bb" d="M 257.25 142.996094 C 257.25 142.996094 277.160156 151.050781 273.863281 166.894531 C 273.863281 166.894531 270.128906 175.203125 264.855469 173.046875 C 259.582031 170.890625 258.277344 162.605469 264.585938 159.726562 C 270.894531 156.851562 263.402344 144.921875 257.25 142.996094 Z M 257.25 142.996094 " fill-opacity="1" fill-rule="nonzero"/><path fill="#ff95bb" d="M 124.195312 248.925781 C 124.195312 248.925781 116.230469 234.015625 126.210938 226.109375 C 126.210938 226.109375 132.660156 222.976562 134.757812 226.9375 C 136.855469 230.902344 133.460938 236.5625 128.203125 235.117188 C 122.941406 233.675781 121.449219 244.65625 124.195312 248.925781 Z M 124.195312 248.925781 " fill-opacity="1" fill-rule="nonzero"/><path fill="#ff95bb" d="M 330.503906 203.761719 C 330.503906 203.761719 333.996094 216.09375 325.328125 220.339844 C 325.328125 220.339844 320.042969 221.621094 319.128906 218.347656 C 318.214844 215.074219 321.640625 211.425781 325.304688 213.34375 C 328.96875 215.261719 331.847656 207.367188 330.503906 203.761719 Z M 330.503906 203.761719 " fill-opacity="1" fill-rule="nonzero"/><path fill="#ff95bb" d="M 178.609375 194.039062 C 178.609375 194.039062 183.519531 215.71875 168.109375 222.273438 C 168.109375 222.273438 158.84375 224.003906 157.5625 218.25 C 156.28125 212.496094 162.554688 206.492188 168.722656 210.15625 C 174.890625 213.816406 180.605469 200.410156 178.609375 194.039062 Z M 178.609375 194.039062 " fill-opacity="1" fill-rule="nonzero"/><path fill="#ff95bb" d="M 199.839844 140.308594 C 199.839844 140.308594 186.847656 138.269531 186.613281 128.363281 C 186.613281 128.363281 187.6875 122.890625 191.128906 123.445312 C 194.574219 123.996094 196.503906 128.757812 193.140625 131.347656 C 189.777344 133.941406 195.902344 140.011719 199.839844 140.308594 Z M 199.839844 140.308594 " fill-opacity="1" fill-rule="nonzero"/><path fill="#ff95bb" d="M 265.132812 132.128906 C 265.132812 132.128906 258.320312 153.535156 241.535156 151.363281 C 241.535156 151.363281 232.570312 148.128906 234.398438 142.457031 C 236.226562 136.789062 244.765625 134.765625 248.265625 141.113281 C 251.769531 147.464844 263.613281 138.699219 265.132812 132.128906 Z M 265.132812 132.128906 " fill-opacity="1" fill-rule="nonzero"/><path fill="#ff95bb" d="M 168.433594 132.757812 C 168.433594 132.757812 150.03125 126.078125 152.511719 111.539062 C 152.511719 111.539062 155.640625 103.851562 160.511719 105.640625 C 165.386719 107.429688 166.847656 114.933594 161.199219 117.761719 C 155.546875 120.585938 162.765625 131.203125 168.433594 132.757812 Z M 168.433594 132.757812 " fill-opacity="1" fill-rule="nonzero"/><path fill="#ff95bb" d="M 105.917969 135.800781 C 105.917969 135.800781 118.042969 135.097656 120.191406 143.984375 C 120.191406 143.984375 120.296875 149.136719 117.082031 149.308594 C 113.867188 149.484375 111.191406 145.570312 113.71875 142.574219 C 116.242188 139.574219 109.527344 135.296875 105.917969 135.800781 Z M 105.917969 135.800781 " fill-opacity="1" fill-rule="nonzero"/><path fill="#ff95bb" d="M 114.910156 230.789062 C 114.910156 230.789062 117.042969 214.039062 129.746094 213.367188 C 129.746094 213.367188 136.8125 214.542969 136.230469 218.980469 C 135.648438 223.421875 129.609375 226.074219 126.160156 221.855469 C 122.710938 217.640625 115.144531 225.726562 114.910156 230.789062 Z M 114.910156 230.789062 " fill-opacity="1" fill-rule="nonzero"/><path fill="#ff95bb" d="M 171.933594 217.496094 C 171.933594 217.496094 182.554688 220.34375 181.867188 228.59375 C 181.867188 228.59375 180.492188 233.050781 177.679688 232.285156 C 174.863281 231.519531 173.683594 227.390625 176.707031 225.535156 C 179.730469 223.679688 175.179688 218.089844 171.933594 217.496094 Z M 171.933594 217.496094 " fill-opacity="1" fill-rule="nonzero"/><path fill="#ff95bb" d="M 129.886719 164.464844 C 129.886719 164.464844 141.222656 163.308594 143.601562 171.558594 C 143.601562 171.558594 143.910156 176.382812 140.902344 176.679688 C 137.894531 176.972656 135.226562 173.40625 137.472656 170.496094 C 139.722656 167.582031 133.25 163.84375 129.886719 164.464844 Z M 129.886719 164.464844 " fill-opacity="1" fill-rule="nonzero"/><path fill="#ff95bb" d="M 292.199219 262.527344 C 292.199219 262.527344 273.378906 248.484375 281.257812 232.644531 C 281.257812 232.644531 287.515625 224.894531 292.492188 228.640625 C 297.46875 232.382812 296.550781 241.507812 289.082031 242.796875 C 281.613281 244.089844 286.226562 258.78125 292.199219 262.53125 Z M 292.199219 262.527344 " fill-opacity="1" fill-rule="nonzero"/><path fill="#ff95bb" d="M 228.78125 207.839844 C 228.78125 207.839844 217.273438 195.871094 224.597656 185.730469 C 224.597656 185.730469 229.855469 181.046875 232.894531 184.230469 C 235.9375 187.417969 234.242188 193.675781 228.882812 193.714844 C 223.527344 193.753906 225.050781 204.535156 228.78125 207.839844 Z M 228.78125 207.839844 " fill-opacity="1" fill-rule="nonzero"/><path fill="#ff95bb" d="M 69.179688 150.785156 C 69.179688 150.785156 87.9375 137.09375 100.605469 149.152344 C 100.605469 149.152344 106.109375 157.320312 101.121094 160.933594 C 96.132812 164.546875 87.78125 161.023438 88.734375 153.589844 C 89.691406 146.15625 74.460938 146.234375 69.179688 150.785156 Z M 69.179688 150.785156 " fill-opacity="1" fill-rule="nonzero"/><path fill="#ff95bb" d="M 272.140625 220.078125 C 272.140625 220.078125 261.433594 217.066406 261.035156 213.082031 C 260.640625 209.097656 254.390625 211.914062 255.75 215.589844 C 257.105469 219.269531 267.46875 224.292969 272.140625 220.078125 Z M 272.140625 220.078125 " fill-opacity="1" fill-rule="nonzero"/><path fill="#ff95bb" d="M 178.953125 153.496094 C 178.953125 153.496094 162.3125 155.34375 159.507812 150.007812 C 156.707031 144.675781 149.578125 152.128906 153.546875 156.492188 C 157.519531 160.855469 174.8125 162.019531 178.949219 153.496094 Z M 178.953125 153.496094 " fill-opacity="1" fill-rule="nonzero"/><path fill="#ff95bb" d="M 173.722656 246.636719 C 173.722656 246.636719 163.886719 238.3125 165.386719 233.925781 C 166.886719 229.535156 158.945312 229.496094 158.609375 234.023438 C 158.269531 238.550781 166.769531 248.832031 173.722656 246.636719 Z M 173.722656 246.636719 " fill-opacity="1" fill-rule="nonzero"/><path fill="#ff95bb" d="M 300.40625 252.015625 C 300.40625 252.015625 310.394531 241.003906 315.394531 242.90625 C 320.398438 244.808594 320.757812 235.65625 315.550781 235.085938 C 310.34375 234.515625 298.148438 243.914062 300.40625 252.015625 Z M 300.40625 252.015625 " fill-opacity="1" fill-rule="nonzero"/><path fill="#ff95bb" d="M 159.496094 136.339844 C 159.496094 136.339844 155.53125 143.136719 152.734375 142.699219 C 149.933594 142.261719 150.75 147.042969 153.511719 146.765625 C 156.269531 146.488281 161.554688 140.289062 159.496094 136.339844 Z M 159.496094 136.339844 " fill-opacity="1" fill-rule="nonzero"/><path fill="#ff95bb" d="M 144.175781 126.082031 C 144.175781 126.082031 154.503906 129.566406 154.691406 133.484375 C 154.878906 137.40625 161.132812 134.964844 159.992188 131.296875 C 158.847656 127.632812 148.957031 122.191406 144.175781 126.082031 Z M 144.175781 126.082031 " fill-opacity="1" fill-rule="nonzero"/><path fill="#ff95bb" d="M 240.25 268.246094 C 240.25 268.246094 231.464844 271.082031 229.363281 268.507812 C 227.257812 265.933594 224.230469 270.746094 226.855469 272.667969 C 229.480469 274.585938 238.953125 273.308594 240.25 268.246094 Z M 240.25 268.246094 " fill-opacity="1" fill-rule="nonzero"/><path fill="#ff95bb" d="M 278.199219 202.148438 C 278.199219 202.148438 281 210.011719 278.730469 211.984375 C 276.460938 213.953125 280.894531 216.5625 282.558594 214.132812 C 284.222656 211.707031 282.808594 203.179688 278.199219 202.148438 Z M 278.199219 202.148438 " fill-opacity="1" fill-rule="nonzero"/><path fill="#ff95bb" d="M 211.398438 106.019531 C 211.398438 106.019531 207.75 114.753906 204.34375 114.675781 C 200.9375 114.597656 202.667969 120.167969 205.914062 119.402344 C 209.160156 118.636719 214.476562 110.402344 211.398438 106.019531 Z M 211.398438 106.019531 " fill-opacity="1" fill-rule="nonzero"/><path fill="#ff95bb" d="M 193.507812 68.449219 C 193.507812 68.449219 184.425781 76.488281 180.542969 74.5 C 176.65625 72.507812 175.542969 79.898438 179.71875 80.824219 C 183.890625 81.753906 194.617188 75.222656 193.507812 68.449219 Z M 193.507812 68.449219 " fill-opacity="1" fill-rule="nonzero"/><path fill="#ff95bb" d="M 128.265625 203.007812 C 128.265625 203.007812 139.1875 194.652344 143.421875 197.214844 C 147.65625 199.78125 149.511719 191.511719 144.867188 190.125 C 140.222656 188.738281 127.558594 195.257812 128.265625 203.007812 Z M 128.265625 203.007812 " fill-opacity="1" fill-rule="nonzero"/><path fill="#ff95bb" d="M 191.664062 163.0625 C 191.664062 163.0625 203.777344 160.167969 206.339844 163.847656 C 208.898438 167.527344 213.476562 161.367188 210.144531 158.511719 C 206.808594 155.65625 193.933594 156.390625 191.664062 163.0625 Z M 191.664062 163.0625 " fill-opacity="1" fill-rule="nonzero"/><path fill="#ff95bb" d="M 332.332031 199.394531 C 332.332031 199.394531 318.390625 206.066406 314.328125 202.269531 C 310.261719 198.472656 306.316406 207.136719 311.101562 209.734375 C 315.890625 212.328125 331.316406 208.082031 332.332031 199.394531 Z M 332.332031 199.394531 " fill-opacity="1" fill-rule="nonzero"/><path fill="#ff95bb" d="M 181.5 192.210938 C 181.5 192.210938 184.164062 202.527344 181.058594 204.773438 C 177.949219 207.019531 183.289062 210.839844 185.679688 207.945312 C 188.074219 205.046875 187.242188 194.046875 181.5 192.210938 Z M 181.5 192.210938 " fill-opacity="1" fill-rule="nonzero"/><path fill="#ff95bb" d="M 159.421875 125.824219 C 159.421875 125.824219 168.175781 121.925781 170.632812 124.351562 C 173.085938 126.773438 175.679688 121.472656 172.757812 119.78125 C 169.835938 118.089844 160.199219 120.457031 159.421875 125.824219 Z M 159.421875 125.824219 " fill-opacity="1" fill-rule="nonzero"/><path fill="#ff95bb" d="M 260.398438 199.011719 C 260.398438 199.011719 261.882812 210.304688 269.394531 213.039062 C 276.90625 215.777344 276.378906 204.464844 272.097656 204.351562 C 267.8125 204.242188 267.15625 205.550781 267.15625 205.550781 C 267.15625 205.550781 260.664062 200.390625 260.398438 199.011719 Z M 260.398438 199.011719 " fill-opacity="1" fill-rule="nonzero"/><path fill="#ff95bb" d="M 170.621094 231.1875 C 170.621094 231.1875 170.746094 238.167969 175.128906 240.351562 C 179.515625 242.535156 179.976562 235.613281 177.375 235.25 C 174.773438 234.882812 174.285156 235.636719 174.285156 235.636719 C 174.285156 235.636719 170.6875 232.046875 170.621094 231.1875 Z M 170.621094 231.1875 " fill-opacity="1" fill-rule="nonzero"/><path fill="#ff95bb" d="M 276.738281 246.605469 C 276.738281 246.605469 271.550781 250.820312 272.492188 255.414062 C 273.4375 260.007812 278.925781 256.269531 277.664062 254.09375 C 276.402344 251.917969 275.546875 251.992188 275.546875 251.992188 C 275.546875 251.992188 276.128906 247.160156 276.738281 246.605469 Z M 276.738281 246.605469 " fill-opacity="1" fill-rule="nonzero"/><path fill="#ff95bb" d="M 284.992188 266.894531 C 284.992188 266.894531 275.050781 268.128906 272.601562 274.71875 C 270.148438 281.308594 280.097656 280.914062 280.222656 277.148438 C 280.347656 273.382812 279.199219 272.796875 279.199219 272.796875 C 279.199219 272.796875 283.777344 267.117188 284.992188 266.894531 Z M 284.992188 266.894531 " fill-opacity="1" fill-rule="nonzero"/><path fill="#ff95bb" d="M 132.21875 193.632812 C 132.21875 193.632812 126.917969 190.789062 123.429688 193.164062 C 119.941406 195.542969 124.953125 198.804688 126.320312 197.003906 C 127.691406 195.199219 127.332031 194.515625 127.332031 194.515625 C 127.332031 194.515625 131.546875 193.320312 132.21875 193.632812 Z M 132.21875 193.632812 " fill-opacity="1" fill-rule="nonzero"/><path fill="#ff95bb" d="M 290.832031 155.980469 C 290.832031 155.980469 288.773438 162.992188 292.472656 166.546875 C 296.171875 170.097656 298.796875 163.324219 296.3125 162.148438 C 293.828125 160.972656 293.101562 161.570312 293.101562 161.570312 C 293.101562 161.570312 290.628906 156.859375 290.832031 155.980469 Z M 290.832031 155.980469 " fill-opacity="1" fill-rule="nonzero"/><path fill="#ff95bb" d="M 128.15625 93.792969 C 128.15625 93.792969 122.070312 104.257812 126.613281 111.433594 C 131.15625 118.613281 138.058594 108.757812 134.527344 105.882812 C 130.996094 103.007812 129.59375 103.679688 129.59375 103.679688 C 129.59375 103.679688 127.484375 95.125 128.15625 93.792969 Z M 128.15625 93.792969 " fill-opacity="1" fill-rule="nonzero"/><path fill="#ff95bb" d="M 126.996094 87.859375 C 126.996094 87.859375 132.886719 98.917969 141.683594 98.835938 C 150.480469 98.75 145.566406 87.300781 141.109375 88.839844 C 136.652344 90.382812 136.484375 91.984375 136.484375 91.984375 C 136.484375 91.984375 127.800781 89.175781 126.996094 87.859375 Z M 126.996094 87.859375 " fill-opacity="1" fill-rule="nonzero"/><path fill="#ff95bb" d="M 108.5 118.433594 C 108.5 118.433594 103.953125 109.625 96.992188 109.601562 C 90.035156 109.578125 93.804688 118.6875 97.34375 117.515625 C 100.886719 116.339844 101.039062 115.074219 101.039062 115.074219 C 101.039062 115.074219 107.875 117.382812 108.5 118.433594 Z M 108.5 118.433594 " fill-opacity="1" fill-rule="nonzero"/><path fill="#ff95bb" d="M 252.820312 104.683594 C 252.820312 104.683594 250.53125 113.933594 255.546875 118.359375 C 260.5625 122.78125 263.605469 113.808594 260.304688 112.417969 C 257 111.019531 256.089844 111.839844 256.089844 111.839844 C 256.089844 111.839844 252.605469 105.839844 252.820312 104.683594 Z M 252.820312 104.683594 " fill-opacity="1" fill-rule="nonzero"/><path fill="#ff95bb" d="M 151.960938 116.566406 C 151.960938 116.566406 140.78125 113.59375 135.308594 119.589844 C 129.835938 125.585938 140.664062 129.46875 142.421875 125.488281 C 144.183594 121.507812 143.207031 120.386719 143.207031 120.386719 C 143.207031 120.386719 150.5625 116.28125 151.960938 116.566406 Z M 151.960938 116.566406 " fill-opacity="1" fill-rule="nonzero"/><path fill="#ff95bb" d="M 301.699219 192.351562 C 301.699219 192.351562 300.203125 201.285156 305.28125 205.113281 C 310.355469 208.9375 312.585938 200.210938 309.355469 199.132812 C 306.121094 198.050781 305.320312 198.894531 305.320312 198.894531 C 305.320312 198.894531 301.578125 193.460938 301.699219 192.351562 Z M 301.699219 192.351562 " fill-opacity="1" fill-rule="nonzero"/><path fill="#ff95bb" d="M 257.140625 237.628906 C 257.140625 237.628906 258.96875 226.203125 252.449219 221.363281 C 245.925781 216.519531 243.160156 227.6875 247.296875 229.039062 C 251.4375 230.386719 252.457031 229.304688 252.457031 229.304688 C 252.457031 229.304688 257.28125 236.210938 257.140625 237.628906 Z M 257.140625 237.628906 " fill-opacity="1" fill-rule="nonzero"/><path fill="#ff95bb" d="M 256.695312 229.992188 C 256.695312 229.992188 262.6875 232.570312 266.234375 229.671875 C 269.785156 226.777344 264.0625 223.722656 262.75 225.796875 C 261.441406 227.875 261.894531 228.578125 261.894531 228.578125 C 261.894531 228.578125 257.453125 230.265625 256.695312 229.992188 Z M 256.695312 229.992188 " fill-opacity="1" fill-rule="nonzero"/><path fill="#ff95bb" d="M 119.507812 134.175781 C 119.507812 134.175781 122.800781 143.140625 129.449219 143.992188 C 136.097656 144.847656 133.585938 135.6875 130.058594 136.386719 C 126.535156 137.085938 126.238281 138.277344 126.238281 138.277344 C 126.238281 138.277344 119.976562 135.253906 119.507812 134.175781 Z M 119.507812 134.175781 " fill-opacity="1" fill-rule="nonzero"/><path fill="#ff95bb" d="M 186.644531 256.917969 C 186.644531 256.917969 181.976562 253.773438 181.984375 252.121094 C 181.992188 250.472656 183.199219 248.847656 184.882812 249.601562 C 186.5625 250.359375 186.242188 252.660156 185.839844 254.664062 C 185.433594 256.667969 186.644531 256.917969 186.644531 256.917969 Z M 186.644531 256.917969 " fill-opacity="1" fill-rule="nonzero"/><path fill="#ff95bb" d="M 145.324219 159.992188 C 145.324219 159.992188 155.585938 162.472656 156.652344 165.378906 C 157.71875 168.285156 156.65625 171.929688 153.207031 171.699219 C 149.757812 171.46875 148.8125 167.21875 148.214844 163.429688 C 147.617188 159.640625 145.324219 159.992188 145.324219 159.992188 Z M 145.324219 159.992188 " fill-opacity="1" fill-rule="nonzero"/><path fill="#ff95bb" d="M 251.132812 122.003906 C 251.132812 122.003906 258.632812 128.167969 258.351562 131 C 258.070312 133.835938 255.730469 136.425781 252.964844 134.855469 C 250.203125 133.28125 251.125 129.382812 252.144531 126.007812 C 253.167969 122.628906 251.132812 122.003906 251.132812 122.003906 Z M 251.132812 122.003906 " fill-opacity="1" fill-rule="nonzero"/><path fill="#ff95bb" d="M 205.972656 283.507812 C 205.972656 283.507812 199.636719 276.066406 200.421875 273.308594 C 201.203125 270.554688 203.984375 268.398438 206.441406 270.449219 C 208.902344 272.5 207.292969 276.199219 205.679688 279.363281 C 204.066406 282.523438 205.972656 283.507812 205.972656 283.507812 Z M 205.972656 283.507812 " fill-opacity="1" fill-rule="nonzero"/><path fill="#ff95bb" d="M 198.902344 97.933594 C 198.902344 97.933594 196.757812 91.390625 198.007812 89.804688 C 199.253906 88.214844 201.640625 87.554688 202.695312 89.546875 C 203.75 91.539062 201.714844 93.523438 199.820312 95.152344 C 197.921875 96.785156 198.902344 97.933594 198.902344 97.933594 Z M 198.902344 97.933594 " fill-opacity="1" fill-rule="nonzero"/><path fill="#ff95bb" d="M 121.902344 94.875 C 121.902344 94.875 121.140625 89.398438 122.351562 88.320312 C 123.5625 87.246094 125.542969 87.0625 126.09375 88.789062 C 126.644531 90.511719 124.753906 91.789062 123.019531 92.808594 C 121.289062 93.824219 121.902344 94.875 121.902344 94.875 Z M 121.902344 94.875 " fill-opacity="1" fill-rule="nonzero"/><path fill="#ff95bb" d="M 310.351562 177.210938 C 310.351562 177.210938 316.132812 172.734375 318.164062 173.414062 C 320.195312 174.097656 321.707031 176.25 320.089844 178.015625 C 318.476562 179.777344 315.765625 178.449219 313.460938 177.132812 C 311.152344 175.820312 310.351562 177.210938 310.351562 177.210938 Z M 310.351562 177.210938 " fill-opacity="1" fill-rule="nonzero"/><path fill="#ff95bb" d="M 249.777344 247.941406 C 249.777344 247.941406 257.628906 254.988281 257.191406 258.050781 C 256.75 261.113281 254.085938 263.816406 251.160156 261.976562 C 248.238281 260.140625 249.421875 255.953125 250.691406 252.335938 C 251.960938 248.71875 249.777344 247.941406 249.777344 247.941406 Z M 249.777344 247.941406 " fill-opacity="1" fill-rule="nonzero"/><path fill="#ff95bb" d="M 259.230469 264.28125 C 259.230469 264.28125 254.929688 273.636719 251.949219 274.109375 C 248.964844 274.585938 245.675781 272.882812 246.542969 269.625 C 247.414062 266.367188 251.660156 266.261719 255.398438 266.402344 C 259.136719 266.539062 259.230469 264.28125 259.230469 264.28125 Z M 259.230469 264.28125 " fill-opacity="1" fill-rule="nonzero"/><path fill="#ff95bb" d="M 254.421875 107.347656 C 254.421875 107.347656 257.78125 98.371094 260.515625 97.730469 C 263.253906 97.089844 266.421875 98.445312 265.835938 101.53125 C 265.25 104.613281 261.316406 105 257.835938 105.121094 C 254.355469 105.246094 254.421875 107.347656 254.421875 107.347656 Z M 254.421875 107.347656 " fill-opacity="1" fill-rule="nonzero"/><path fill="#ff95bb" d="M 236.175781 102.363281 C 236.175781 102.363281 233.554688 110.726562 231.085938 111.449219 C 228.621094 112.171875 225.660156 111.089844 226.042969 108.242188 C 226.421875 105.398438 229.996094 104.851562 233.167969 104.566406 C 236.339844 104.28125 236.175781 102.363281 236.175781 102.363281 Z M 236.175781 102.363281 " fill-opacity="1" fill-rule="nonzero"/><path fill="#ff95bb" d="M 144.613281 163.492188 C 144.613281 163.492188 137.316406 164.445312 135.894531 162.824219 C 134.472656 161.199219 134.25 158.558594 136.554688 157.84375 C 138.855469 157.132812 140.535156 159.664062 141.875 161.976562 C 143.210938 164.292969 144.613281 163.492188 144.613281 163.492188 Z M 144.613281 163.492188 " fill-opacity="1" fill-rule="nonzero"/><path fill="#ff95bb" d="M 199.132812 109.867188 C 199.132812 109.867188 201.707031 101.117188 204.257812 100.316406 C 206.8125 99.519531 209.910156 100.589844 209.566406 103.558594 C 209.222656 106.523438 205.515625 107.160156 202.222656 107.515625 C 198.925781 107.875 199.132812 109.867188 199.132812 109.867188 Z M 199.132812 109.867188 " fill-opacity="1" fill-rule="nonzero"/><path fill="#ff95bb" d="M 195.9375 205.96875 C 195.9375 205.96875 194.839844 212.847656 192.980469 213.699219 C 191.125 214.550781 188.671875 214.042969 188.644531 211.761719 C 188.613281 209.480469 191.363281 208.636719 193.824219 208.046875 C 196.285156 207.457031 195.9375 205.96875 195.9375 205.96875 Z M 195.9375 205.96875 " fill-opacity="1" fill-rule="nonzero"/><path fill="#ff95bb" d="M 265.039062 151.257812 C 265.039062 151.257812 259.472656 160.101562 256.410156 160.183594 C 253.347656 160.265625 250.261719 158.117188 251.566406 154.953125 C 252.871094 151.792969 257.160156 152.246094 260.902344 152.882812 C 264.648438 153.519531 265.039062 151.257812 265.039062 151.257812 Z M 265.039062 151.257812 " fill-opacity="1" fill-rule="nonzero"/><path fill="#ff95bb" d="M 197.980469 141.320312 C 197.980469 141.320312 192.835938 146.359375 192.679688 148.5 C 192.519531 150.644531 193.957031 156.503906 198.457031 156.617188 C 202.957031 156.734375 202.542969 151.75 200.558594 148.3125 C 198.574219 144.875 197.980469 141.320312 197.980469 141.320312 Z M 197.980469 141.320312 " fill-opacity="1" fill-rule="nonzero"/><path fill="#ff95bb" d="M 92.40625 133.40625 C 92.40625 133.40625 85.058594 135.359375 83.796875 137.242188 C 82.535156 139.128906 80.808594 145.257812 84.882812 147.707031 C 88.957031 150.15625 91.167969 145.363281 91.132812 141.171875 C 91.097656 136.980469 92.40625 133.40625 92.40625 133.40625 Z M 92.40625 133.40625 " fill-opacity="1" fill-rule="nonzero"/><path fill="#ff95bb" d="M 91.78125 193.515625 C 91.78125 193.515625 86.816406 196.09375 86.210938 197.648438 C 85.609375 199.203125 85.347656 203.882812 88.664062 204.988281 C 91.980469 206.09375 92.800781 202.300781 92.105469 199.296875 C 91.414062 196.292969 91.78125 193.515625 91.78125 193.515625 Z M 91.78125 193.515625 " fill-opacity="1" fill-rule="nonzero"/><path fill="#ff95bb" d="M 233.46875 135.320312 C 233.46875 135.320312 240.269531 133.765625 241.484375 132.078125 C 242.703125 130.390625 244.480469 124.824219 240.824219 122.449219 C 237.167969 120.074219 234.988281 124.398438 234.886719 128.242188 C 234.785156 132.085938 233.46875 135.320312 233.46875 135.320312 Z M 233.46875 135.320312 " fill-opacity="1" fill-rule="nonzero"/><path fill="#ff95bb" d="M 166.34375 88.914062 C 166.34375 88.914062 163.109375 91.84375 162.960938 93.136719 C 162.8125 94.429688 163.542969 98.011719 166.261719 98.1875 C 168.984375 98.367188 168.855469 95.339844 167.734375 93.210938 C 166.617188 91.082031 166.34375 88.914062 166.34375 88.914062 Z M 166.34375 88.914062 " fill-opacity="1" fill-rule="nonzero"/><path fill="#ff95bb" d="M 329.363281 194.195312 C 329.363281 194.195312 330.90625 190.1875 330.464844 188.988281 C 330.019531 187.785156 327.789062 184.964844 325.320312 186.015625 C 322.847656 187.066406 324.308594 189.667969 326.234375 191.039062 C 328.164062 192.414062 329.363281 194.195312 329.363281 194.195312 Z M 329.363281 194.195312 " fill-opacity="1" fill-rule="nonzero"/><path fill="#ff95bb" d="M 63.328125 114.027344 C 63.328125 114.027344 67.21875 115.808594 68.4375 115.441406 C 69.660156 115.074219 72.601562 113.035156 71.710938 110.515625 C 70.816406 107.996094 68.144531 109.285156 66.660156 111.113281 C 65.175781 112.945312 63.328125 114.027344 63.328125 114.027344 Z M 63.328125 114.027344 " fill-opacity="1" fill-rule="nonzero"/><path fill="#ff95bb" d="M 271.695312 92.867188 C 271.695312 92.867188 269.140625 99.191406 269.816406 101.109375 C 270.488281 103.03125 273.957031 107.570312 277.90625 105.964844 C 281.859375 104.359375 279.609375 100.191406 276.582031 97.960938 C 273.558594 95.730469 271.695312 92.867188 271.695312 92.867188 Z M 271.695312 92.867188 " fill-opacity="1" fill-rule="nonzero"/><path fill="#ff95bb" d="M 259.875 238.089844 C 259.875 238.089844 256.042969 244.589844 256.464844 246.800781 C 256.886719 249.011719 259.9375 254.550781 264.523438 253.441406 C 269.109375 252.332031 267.332031 247.402344 264.386719 244.464844 C 261.441406 241.527344 259.875 238.089844 259.875 238.089844 Z M 259.875 238.089844 " fill-opacity="1" fill-rule="nonzero"/><path fill="#ff95bb" d="M 327.058594 233.417969 C 327.058594 233.417969 324.945312 225.546875 322.921875 224.199219 C 320.898438 222.855469 314.324219 221.019531 311.710938 225.390625 C 309.097656 229.765625 314.238281 232.125 318.730469 232.074219 C 323.222656 232.027344 327.058594 233.417969 327.058594 233.417969 Z M 327.058594 233.417969 " fill-opacity="1" fill-rule="nonzero"/><path fill="#ff95bb" d="M 271.144531 248.203125 C 271.144531 248.203125 274.617188 242.253906 274.222656 240.238281 C 273.828125 238.222656 271.023438 233.175781 266.839844 234.207031 C 262.65625 235.238281 264.300781 239.730469 267 242.398438 C 269.699219 245.070312 271.144531 248.203125 271.144531 248.203125 Z M 271.144531 248.203125 " fill-opacity="1" fill-rule="nonzero"/><path fill="#ff95bb" d="M 267.175781 94.140625 C 267.175781 94.140625 266.582031 90.046875 265.640625 89.246094 C 264.703125 88.445312 261.496094 87.128906 259.917969 89.175781 C 258.339844 91.226562 260.792969 92.71875 263.058594 92.964844 C 265.328125 93.207031 267.175781 94.140625 267.175781 94.140625 Z M 267.175781 94.140625 " fill-opacity="1" fill-rule="nonzero"/><path fill="#ff95bb" d="M 212.351562 190.84375 C 212.351562 190.84375 215.988281 192.285156 217.085938 191.894531 C 218.183594 191.5 220.777344 189.496094 219.84375 187.238281 C 218.910156 184.976562 216.527344 186.28125 215.257812 188.023438 C 213.988281 189.765625 212.351562 190.84375 212.351562 190.84375 Z M 212.351562 190.84375 " fill-opacity="1" fill-rule="nonzero"/><path fill="#ff95bb" d="M 309.523438 142.871094 C 309.523438 142.871094 305.597656 135.480469 303.265625 134.601562 C 300.929688 133.71875 293.929688 133.394531 292.320312 138.371094 C 290.710938 143.347656 296.398438 144.523438 300.882812 143.441406 C 305.363281 142.359375 309.523438 142.871094 309.523438 142.871094 Z M 309.523438 142.871094 " fill-opacity="1" fill-rule="nonzero"/><path fill="#ff95bb" d="M 263.78125 128.046875 C 263.78125 128.046875 266.753906 125.625 266.941406 124.5 C 267.132812 123.371094 266.65625 120.195312 264.277344 119.914062 C 261.898438 119.632812 261.875 122.292969 262.757812 124.210938 C 263.640625 126.132812 263.78125 128.046875 263.78125 128.046875 Z M 263.78125 128.046875 " fill-opacity="1" fill-rule="nonzero"/><path fill="#ff95bb" d="M 263.949219 164.300781 C 263.949219 164.300781 256.742188 166.699219 253.125 161.601562 C 249.511719 156.507812 246.46875 159.121094 246.636719 160.59375 C 246.804688 162.066406 254.785156 170.230469 263.949219 164.300781 Z M 263.949219 164.300781 " fill-opacity="1" fill-rule="nonzero"/><path fill="#ff95bb" d="M 162.945312 178.054688 C 162.945312 178.054688 157.597656 180.160156 154.660156 176.460938 C 151.722656 172.761719 149.53125 174.859375 149.71875 175.964844 C 149.90625 177.070312 156.265625 182.90625 162.945312 178.054688 Z M 162.945312 178.054688 " fill-opacity="1" fill-rule="nonzero"/><path fill="#ff95bb" d="M 235.4375 251.753906 C 235.4375 251.753906 239.640625 245.855469 245.292969 247.746094 C 250.941406 249.640625 251.816406 245.914062 250.855469 244.875 C 249.898438 243.835938 239.164062 242.035156 235.4375 251.753906 Z M 235.4375 251.753906 " fill-opacity="1" fill-rule="nonzero"/><path fill="#ff95bb" d="M 123.71875 100.761719 C 123.71875 100.761719 116.585938 93.234375 120.792969 85.816406 C 125.003906 78.398438 120.007812 76.144531 118.285156 77.207031 C 116.5625 78.269531 111.085938 92.859375 123.71875 100.761719 Z M 123.71875 100.761719 " fill-opacity="1" fill-rule="nonzero"/><path fill="#ff95bb" d="M 217.683594 101.910156 C 217.683594 101.910156 222.445312 98.863281 225.980469 101.875 C 229.515625 104.890625 231.234375 102.449219 230.84375 101.417969 C 230.449219 100.386719 223.207031 95.960938 217.683594 101.910156 Z M 217.683594 101.910156 " fill-opacity="1" fill-rule="nonzero"/><path fill="#ff95bb" d="M 190.417969 199.789062 C 190.417969 199.789062 195.386719 198.59375 197.519531 202.210938 C 199.65625 205.832031 201.84375 204.253906 201.816406 203.253906 C 201.785156 202.257812 196.898438 196.335938 190.417969 199.789062 Z M 190.417969 199.789062 " fill-opacity="1" fill-rule="nonzero"/><path fill="#ff95bb" d="M 300.652344 149.222656 C 300.652344 149.222656 305.503906 146.949219 308.457031 150.21875 C 311.40625 153.488281 313.324219 151.40625 313.082031 150.386719 C 312.84375 149.371094 306.582031 144.3125 300.652344 149.222656 Z M 300.652344 149.222656 " fill-opacity="1" fill-rule="nonzero"/><path fill="#ff95bb" d="M 218.867188 221.753906 C 218.867188 221.753906 226.820312 218.746094 231.09375 224.28125 C 235.363281 229.816406 238.652344 226.757812 238.394531 225.117188 C 238.140625 223.476562 228.847656 214.710938 218.867188 221.753906 Z M 218.867188 221.753906 " fill-opacity="1" fill-rule="nonzero"/><path fill="#ff95bb" d="M 226.414062 129.792969 C 226.414062 129.792969 227.671875 119.53125 236.046875 118.054688 C 244.417969 116.582031 242.980469 111.3125 241.070312 110.664062 C 239.160156 110.011719 224.46875 115.066406 226.414062 129.792969 Z M 226.414062 129.792969 " fill-opacity="1" fill-rule="nonzero"/><path fill="#ff95bb" d="M 205.113281 197.636719 C 205.113281 197.636719 203.09375 190.0625 208.566406 186.652344 C 214.042969 183.246094 211.539062 179.945312 210.011719 180.03125 C 208.484375 180.113281 199.574219 187.824219 205.113281 197.636719 Z M 205.113281 197.636719 " fill-opacity="1" fill-rule="nonzero"/><path fill="#ff95bb" d="M 243.0625 263.835938 C 243.0625 263.835938 238.773438 266.550781 235.605469 263.828125 C 232.441406 261.105469 230.886719 263.289062 231.234375 264.21875 C 231.582031 265.148438 238.070312 269.15625 243.0625 263.835938 Z M 243.0625 263.835938 " fill-opacity="1" fill-rule="nonzero"/><path fill="#ff95bb" d="M 63.601562 142.9375 C 63.601562 142.9375 67.601562 135.25 74.609375 136.550781 C 81.613281 137.851562 82.03125 133.296875 80.722656 132.222656 C 79.414062 131.152344 66.398438 130.804688 63.601562 142.9375 Z M 63.601562 142.9375 " fill-opacity="1" fill-rule="nonzero"/><path fill="#ff95bb" d="M 243.230469 112.8125 C 243.230469 112.8125 248.492188 117.417969 246.132812 122.664062 C 243.769531 127.90625 247.261719 129.105469 248.355469 128.285156 C 249.445312 127.464844 252.207031 117.324219 243.230469 112.8125 Z M 243.230469 112.8125 " fill-opacity="1" fill-rule="nonzero"/><path fill="#ff95bb" d="M 180.976562 100.355469 C 180.976562 100.355469 182.101562 108.066406 176.308594 110.804688 C 170.515625 113.542969 172.609375 117.085938 174.128906 117.179688 C 175.644531 117.269531 185.320312 110.675781 180.976562 100.355469 Z M 180.976562 100.355469 " fill-opacity="1" fill-rule="nonzero"/><path fill="#ff95bb" d="M 187.742188 66.683594 C 187.742188 66.683594 184.207031 70.03125 180.722656 68.054688 C 177.238281 66.078125 176.179688 68.421875 176.679688 69.230469 C 177.179688 70.042969 184.027344 72.613281 187.742188 66.683594 Z M 187.742188 66.683594 " fill-opacity="1" fill-rule="nonzero"/><path fill="#ff95bb" d="M 257.679688 283.910156 C 257.679688 283.910156 253.066406 286.253906 250.117188 283.191406 C 247.164062 280.128906 245.378906 282.199219 245.640625 283.171875 C 245.90625 284.148438 252.109375 288.832031 257.679688 283.910156 Z M 257.679688 283.910156 " fill-opacity="1" fill-rule="nonzero"/><path fill="#ff95bb" d="M 288.34375 142.0625 C 288.34375 142.0625 285.148438 137.035156 288.335938 133.320312 C 291.523438 129.601562 288.957031 127.785156 287.871094 128.191406 C 286.78125 128.601562 282.09375 136.222656 288.34375 142.0625 Z M 288.34375 142.0625 " fill-opacity="1" fill-rule="nonzero"/><path fill="#ff95bb" d="M 296.242188 248.695312 C 296.242188 248.695312 295.105469 254.675781 290.125 255.21875 C 285.148438 255.757812 285.789062 258.910156 286.886719 259.367188 C 287.984375 259.824219 296.8125 257.425781 296.242188 248.695312 Z M 296.242188 248.695312 " fill-opacity="1" fill-rule="nonzero"/><path fill="#ff95bb" d="M 61.894531 190.789062 C 61.894531 190.789062 67.269531 191.667969 67.867188 196.109375 C 68.464844 200.550781 71.269531 199.902344 71.652344 198.910156 C 72.035156 197.917969 69.6875 190.078125 61.894531 190.789062 Z M 61.894531 190.789062 " fill-opacity="1" fill-rule="nonzero"/><path fill="#ff95bb" d="M 191.449219 177.527344 C 191.449219 177.527344 182.25 174.988281 182.039062 167.140625 C 181.832031 159.292969 176.828125 159.890625 175.972656 161.546875 C 175.117188 163.203125 177.738281 177.304688 191.449219 177.527344 Z M 191.449219 177.527344 " fill-opacity="1" fill-rule="nonzero"/><path fill="#ff95bb" d="M 91.476562 151.136719 C 91.476562 151.136719 88.40625 155.539062 84.207031 154.179688 C 80.003906 152.820312 79.386719 155.589844 80.105469 156.351562 C 80.824219 157.113281 88.792969 158.367188 91.476562 151.136719 Z M 91.476562 151.136719 " fill-opacity="1" fill-rule="nonzero"/><path fill="#ff95bb" d="M 311.136719 177.949219 C 311.136719 177.949219 316.785156 181.210938 315.578125 186.4375 C 314.367188 191.664062 317.78125 192.128906 318.632812 191.179688 C 319.480469 190.230469 320.167969 180.449219 311.136719 177.949219 Z M 311.136719 177.949219 " fill-opacity="1" fill-rule="nonzero"/><path fill="#ff95bb" d="M 214.441406 99.203125 C 214.441406 99.203125 220.289062 104.820312 217.273438 110.765625 C 214.257812 116.710938 218.238281 118.289062 219.542969 117.394531 C 220.851562 116.503906 224.597656 104.910156 214.441406 99.199219 Z M 214.441406 99.203125 " fill-opacity="1" fill-rule="nonzero"/><path fill="#ff95bb" d="M 116.105469 178.484375 C 116.105469 178.484375 120.824219 172.6875 126.515625 175.007812 C 132.210938 177.328125 133.355469 173.546875 132.4375 172.414062 C 131.519531 171.28125 120.582031 168.722656 116.105469 178.484375 Z M 116.105469 178.484375 " fill-opacity="1" fill-rule="nonzero"/><path fill="#ff95bb" d="M 215.210938 246.804688 C 215.210938 246.804688 210.8125 242.585938 213.078125 238.109375 C 215.34375 233.636719 212.347656 232.453125 211.367188 233.125 C 210.382812 233.796875 207.574219 242.515625 215.210938 246.804688 Z M 215.210938 246.804688 " fill-opacity="1" fill-rule="nonzero"/><path fill="#ff95bb" d="M 114.359375 182.304688 C 114.359375 182.304688 109.824219 175.421875 114.152344 170.203125 C 118.480469 164.984375 114.886719 162.527344 113.390625 163.117188 C 111.894531 163.707031 105.574219 174.359375 114.359375 182.304688 Z M 114.359375 182.304688 " fill-opacity="1" fill-rule="nonzero"/><path fill="#ff95bb" d="M 118.472656 179.382812 C 118.472656 179.382812 126.640625 178.921875 128.964844 185.238281 C 131.285156 191.554688 135.1875 189.695312 135.425781 188.113281 C 135.664062 186.535156 129.667969 175.800781 118.472656 179.382812 Z M 118.472656 179.382812 " fill-opacity="1" fill-rule="nonzero"/><path fill="#ff95bb" d="M 151.339844 210.316406 C 151.339844 210.316406 146.230469 209.121094 145.945312 204.8125 C 145.65625 200.503906 142.917969 200.941406 142.488281 201.871094 C 142.054688 202.800781 143.800781 210.492188 151.339844 210.316406 Z M 151.339844 210.316406 " fill-opacity="1" fill-rule="nonzero"/><path fill="#ff95bb" d="M 86.273438 139.382812 C 86.273438 139.382812 87.851562 129.136719 96.292969 127.917969 C 104.734375 126.703125 103.457031 121.375 101.5625 120.664062 C 99.664062 119.953125 84.78125 124.558594 86.273438 139.382812 Z M 86.273438 139.382812 " fill-opacity="1" fill-rule="nonzero"/><path fill="#ff95bb" d="M 75.671875 152.863281 C 75.671875 152.863281 76.15625 159.636719 70.945312 161.640625 C 65.734375 163.648438 67.324219 166.859375 68.636719 167.039062 C 69.953125 167.21875 78.785156 162.109375 75.671875 152.863281 Z M 75.671875 152.863281 " fill-opacity="1" fill-rule="nonzero"/><path fill="#ff95bb" d="M 249.949219 193.933594 C 249.949219 193.933594 251.152344 185.109375 251.835938 183.386719 C 252.519531 181.664062 258.78125 182.367188 256.222656 187.03125 C 253.660156 191.695312 251.46875 189.464844 249.949219 193.933594 Z M 249.949219 193.933594 " fill-opacity="1" fill-rule="nonzero"/><path fill="#ff95bb" d="M 268.546875 177.464844 C 268.546875 177.464844 264.140625 185.316406 262.855469 186.679688 C 261.574219 188.042969 255.949219 185.058594 260.085938 181.625 C 264.226562 178.195312 265.457031 181.101562 268.546875 177.464844 Z M 268.546875 177.464844 " fill-opacity="1" fill-rule="nonzero"/><path fill="#ff95bb" d="M 220.207031 195.152344 C 220.207031 195.152344 217.65625 203.546875 216.722656 205.117188 C 215.789062 206.683594 209.808594 205.023438 213.027344 200.886719 C 216.246094 196.75 218.027344 199.261719 220.207031 195.152344 Z M 220.207031 195.152344 " fill-opacity="1" fill-rule="nonzero"/><path fill="#ff95bb" d="M 239.140625 221.550781 C 239.140625 221.550781 228.804688 213.796875 227.105469 211.710938 C 225.40625 209.628906 230.714844 202.1875 234.820312 208.726562 C 238.925781 215.265625 234.550781 216.46875 239.140625 221.550781 Z M 239.140625 221.550781 " fill-opacity="1" fill-rule="nonzero"/><path fill="#ff95bb" d="M 186.996094 230.820312 C 186.996094 230.820312 191.136719 239.972656 191.515625 242.03125 C 191.894531 244.085938 185.492188 247.167969 185.140625 241.175781 C 184.792969 235.1875 188.222656 236.003906 186.996094 230.820312 Z M 186.996094 230.820312 " fill-opacity="1" fill-rule="nonzero"/><g clip-path="url(#a20c7a054d)"><path fill="#ff95bb" d="M 40.984375 139.308594 C 40.984375 139.308594 57.960938 134.328125 61.636719 134.171875 C 65.3125 134.015625 69.117188 145.933594 58.585938 145.078125 C 48.054688 144.21875 50.320312 138.441406 40.984375 139.308594 Z M 40.984375 139.308594 " fill-opacity="1" fill-rule="nonzero"/></g><path fill="#ff95bb" d="M 175.117188 142.722656 C 175.117188 142.722656 188.75 138.050781 191.734375 137.792969 C 194.722656 137.53125 198.253906 147.089844 189.652344 146.777344 C 181.050781 146.464844 182.683594 141.679688 175.117188 142.722656 Z M 175.117188 142.722656 " fill-opacity="1" fill-rule="nonzero"/><path fill="#ff95bb" d="M 70.210938 177.523438 C 70.210938 177.523438 65.472656 185.617188 64.109375 187.011719 C 62.75 188.410156 56.945312 185.195312 61.320312 181.695312 C 65.699219 178.199219 66.925781 181.25 70.210938 177.523438 Z M 70.210938 177.523438 " fill-opacity="1" fill-rule="nonzero"/><path fill="#ff95bb" d="M 287.050781 195.476562 C 287.050781 195.476562 299.449219 200.53125 301.699219 202.171875 C 303.949219 203.8125 300.582031 212.664062 294.753906 207.191406 C 288.921875 201.71875 292.988281 199.367188 287.050781 195.476562 Z M 287.050781 195.476562 " fill-opacity="1" fill-rule="nonzero"/><path fill="#ff95bb" d="M 103.957031 154.667969 C 103.957031 154.667969 117.792969 151.695312 120.738281 151.785156 C 123.679688 151.878906 126.015625 161.609375 117.664062 160.308594 C 109.3125 159.003906 111.457031 154.527344 103.957031 154.667969 Z M 103.957031 154.667969 " fill-opacity="1" fill-rule="nonzero"/><path fill="#ff95bb" d="M 81.023438 137.921875 C 81.023438 137.921875 74.535156 147.671875 72.738281 149.316406 C 70.941406 150.960938 63.9375 146.535156 69.644531 142.488281 C 75.347656 138.441406 76.660156 142.335938 81.023438 137.921875 Z M 81.023438 137.921875 " fill-opacity="1" fill-rule="nonzero"/><path fill="#ff95bb" d="M 176.6875 200.339844 C 176.6875 200.339844 171.535156 208.285156 170.09375 209.628906 C 168.65625 210.976562 162.953125 207.464844 167.53125 204.140625 C 172.105469 200.8125 173.199219 203.949219 176.6875 200.339844 Z M 176.6875 200.339844 " fill-opacity="1" fill-rule="nonzero"/><path fill="#ff95bb" d="M 302.144531 124.347656 C 302.144531 124.347656 291.585938 123.738281 289.484375 123.085938 C 287.382812 122.433594 287.636719 114.960938 293.394531 117.558594 C 299.152344 120.160156 296.714844 122.957031 302.144531 124.347656 Z M 302.144531 124.347656 " fill-opacity="1" fill-rule="nonzero"/><path fill="#ff95bb" d="M 247.027344 104.679688 C 247.027344 104.679688 233.207031 97.882812 230.757812 95.820312 C 228.304688 93.757812 232.878906 83.871094 239.128906 90.617188 C 245.378906 97.367188 240.527344 99.738281 247.027344 104.679688 Z M 247.027344 104.679688 " fill-opacity="1" fill-rule="nonzero"/><path fill="#ff95bb" d="M 274.246094 152.367188 C 274.246094 152.367188 285.238281 161.488281 287 163.878906 C 288.761719 166.269531 282.5 174.191406 278.324219 166.753906 C 274.148438 159.316406 279.039062 158.226562 274.246094 152.367188 Z M 274.246094 152.367188 " fill-opacity="1" fill-rule="nonzero"/><path fill="#ff95bb" d="M 128.515625 207.824219 C 128.515625 207.824219 133.441406 207.136719 134.171875 209.359375 C 134.898438 211.578125 139.328125 213.128906 140.527344 209.277344 C 141.726562 205.421875 133.058594 201.148438 128.515625 207.824219 Z M 128.515625 207.824219 " fill-opacity="1" fill-rule="nonzero"/><path fill="#ff95bb" d="M 200.070312 136.449219 C 200.070312 136.449219 205.085938 141.722656 203.0625 144.480469 C 201.039062 147.234375 202.96875 153.820312 208.570312 151.964844 C 214.175781 150.109375 211.878906 136.167969 200.070312 136.453125 Z M 200.070312 136.449219 " fill-opacity="1" fill-rule="nonzero"/><path fill="#ff95bb" d="M 281.316406 258.625 C 281.316406 258.625 284.925781 262.292969 283.527344 264.269531 C 282.128906 266.242188 283.570312 270.878906 287.511719 269.5 C 291.453125 268.125 289.667969 258.285156 281.316406 258.625 Z M 281.316406 258.625 " fill-opacity="1" fill-rule="nonzero"/><path fill="#ff95bb" d="M 98.519531 208.851562 C 98.519531 208.851562 103.351562 213.746094 101.484375 216.390625 C 99.621094 219.03125 101.558594 225.226562 106.824219 223.375 C 112.089844 221.527344 109.679688 208.378906 98.519531 208.851562 Z M 98.519531 208.851562 " fill-opacity="1" fill-rule="nonzero"/><path fill="#ff95bb" d="M 164.582031 200.804688 C 164.582031 200.804688 167.5 197.882812 169.097656 198.992188 C 170.691406 200.097656 174.398438 198.910156 173.265625 195.753906 C 172.132812 192.601562 164.25 194.105469 164.582031 200.804688 Z M 164.582031 200.804688 " fill-opacity="1" fill-rule="nonzero"/><path fill="#ff95bb" d="M 206.003906 263.066406 C 206.003906 263.066406 204.207031 258.539062 206.15625 257.332031 C 208.101562 256.128906 208.550781 251.554688 204.609375 251.304688 C 200.664062 251.054688 198.601562 260.289062 206.003906 263.066406 Z M 206.003906 263.066406 " fill-opacity="1" fill-rule="nonzero"/><path fill="#ff95bb" d="M 127.253906 242.472656 C 127.253906 242.472656 130.761719 242.238281 131.160156 243.84375 C 131.558594 245.445312 134.601562 246.765625 135.644531 244.113281 C 136.691406 241.457031 130.800781 237.996094 127.253906 242.472656 Z M 127.253906 242.472656 " fill-opacity="1" fill-rule="nonzero"/><path fill="#ff95bb" d="M 316.316406 211.808594 C 316.316406 211.808594 311.207031 215.515625 309.066406 213.457031 C 306.929688 211.402344 301.042969 212.304688 301.996094 217.335938 C 302.945312 222.367188 315.203125 221.996094 316.316406 211.808594 Z M 316.316406 211.808594 " fill-opacity="1" fill-rule="nonzero"/><path fill="#ff95bb" d="M 55.957031 122.820312 C 55.957031 122.820312 56.5625 126.429688 54.941406 127.007812 C 53.320312 127.589844 52.269531 130.875 55.125 131.683594 C 57.984375 132.488281 60.957031 126.03125 55.957031 122.820312 Z M 55.957031 122.820312 " fill-opacity="1" fill-rule="nonzero"/><path fill="#ff95bb" d="M 252.898438 280.40625 C 252.898438 280.40625 259.316406 278.289062 260.828125 281.085938 C 262.339844 283.878906 268.632812 284.875 269.304688 279.433594 C 269.972656 273.992188 257.355469 270.378906 252.898438 280.40625 Z M 252.898438 280.40625 " fill-opacity="1" fill-rule="nonzero"/><path fill="#ff95bb" d="M 254.375 90.09375 C 254.375 90.09375 252.546875 93.1875 250.960938 92.597656 C 249.378906 92.007812 246.507812 93.8125 248.144531 96.226562 C 249.78125 98.640625 256.101562 95.667969 254.375 90.09375 Z M 254.375 90.09375 " fill-opacity="1" fill-rule="nonzero"/><path fill="#ff95bb" d="M 270.972656 196.332031 C 270.972656 196.332031 264.542969 196.800781 263.792969 193.863281 C 263.042969 190.925781 257.449219 188.539062 255.566406 193.421875 C 253.683594 198.300781 264.523438 204.578125 270.972656 196.332031 Z M 270.972656 196.332031 " fill-opacity="1" fill-rule="nonzero"/><path fill="#ff95bb" d="M 181.929688 215.988281 C 181.929688 215.988281 186.585938 218.601562 185.761719 220.96875 C 184.9375 223.339844 187.710938 227.539062 191.238281 225.03125 C 194.765625 222.519531 190.148438 213.242188 181.929688 215.988281 Z M 181.929688 215.988281 " fill-opacity="1" fill-rule="nonzero"/><path fill="#ff95bb" d="M 267.222656 114.304688 C 267.222656 114.304688 268.046875 110.664062 269.800781 110.742188 C 271.550781 110.820312 273.816406 108.125 271.429688 106.261719 C 269.042969 104.394531 263.742188 109.34375 267.222656 114.304688 Z M 267.222656 114.304688 " fill-opacity="1" fill-rule="nonzero"/><path fill="#ff95bb" d="M 230.933594 286.523438 C 230.933594 286.523438 234.660156 282.539062 236.8125 283.933594 C 238.964844 285.328125 243.8125 283.59375 242.179688 279.484375 C 240.546875 275.371094 230.207031 277.695312 230.933594 286.523438 Z M 230.933594 286.523438 " fill-opacity="1" fill-rule="nonzero"/><path fill="#ff95bb" d="M 237.496094 152.800781 C 237.496094 152.800781 233.949219 153.765625 234.042969 156.539062 C 234.136719 159.3125 232.386719 159.976562 231.519531 158.429688 C 230.652344 156.886719 229.84375 152.722656 237.496094 152.800781 Z M 237.496094 152.800781 " fill-opacity="1" fill-rule="nonzero"/><path fill="#ff95bb" d="M 152.722656 241.242188 C 152.722656 241.242188 153.109375 244.011719 155.214844 244.203125 C 157.316406 244.398438 157.648438 245.777344 156.402344 246.289062 C 155.152344 246.796875 151.933594 247.007812 152.722656 241.242188 Z M 152.722656 241.242188 " fill-opacity="1" fill-rule="nonzero"/><path fill="#ff95bb" d="M 221.464844 306.792969 C 221.464844 306.792969 224.003906 306.074219 223.914062 304.082031 C 223.824219 302.09375 225.074219 301.601562 225.707031 302.703125 C 226.34375 303.804688 226.960938 306.785156 221.464844 306.792969 Z M 221.464844 306.792969 " fill-opacity="1" fill-rule="nonzero"/><path fill="#ff95bb" d="M 149.976562 144.808594 C 149.976562 144.808594 146.820312 148.992188 149.347656 152.039062 C 151.878906 155.082031 150.484375 157.355469 148.160156 156.371094 C 145.832031 155.390625 141.285156 151.40625 149.976562 144.808594 Z M 149.976562 144.808594 " fill-opacity="1" fill-rule="nonzero"/><path fill="#ff95bb" d="M 252.484375 80.78125 C 252.484375 80.78125 253.476562 83.472656 255.628906 83.207031 C 257.777344 82.941406 258.414062 84.257812 257.273438 85.039062 C 256.132812 85.820312 252.953125 86.734375 252.484375 80.78125 Z M 252.484375 80.78125 " fill-opacity="1" fill-rule="nonzero"/><path fill="#ff95bb" d="M 298.117188 127.621094 C 298.117188 127.621094 300.128906 129.332031 301.734375 128.148438 C 303.339844 126.96875 304.441406 127.734375 303.878906 128.878906 C 303.316406 130.019531 301.175781 132.1875 298.117188 127.621094 Z M 298.117188 127.621094 " fill-opacity="1" fill-rule="nonzero"/><path fill="#ff95bb" d="M 173.699219 72.636719 C 173.699219 72.636719 171.160156 70.609375 169.230469 72.125 C 167.304688 73.636719 165.917969 72.734375 166.566406 71.3125 C 167.214844 69.886719 169.761719 67.140625 173.699219 72.636719 Z M 173.699219 72.636719 " fill-opacity="1" fill-rule="nonzero"/><path fill="#ff95bb" d="M 82.902344 184.496094 C 82.902344 184.496094 81.238281 181.679688 78.878906 182.417969 C 76.519531 183.152344 75.539062 181.808594 76.65625 180.699219 C 77.777344 179.589844 81.15625 177.910156 82.902344 184.496094 Z M 82.902344 184.496094 " fill-opacity="1" fill-rule="nonzero"/><path fill="#ff95bb" d="M 85.433594 189.792969 C 85.433594 189.792969 88.246094 187.851562 87.304688 185.445312 C 86.367188 183.042969 87.695312 181.921875 88.933594 183.007812 C 90.171875 184.09375 92.167969 187.496094 85.433594 189.792969 Z M 85.433594 189.792969 " fill-opacity="1" fill-rule="nonzero"/><path fill="#ff95bb" d="M 279.179688 249.789062 C 279.179688 249.789062 279.152344 253.292969 281.722656 253.921875 C 284.292969 254.554688 284.449219 256.328125 282.808594 256.726562 C 281.164062 257.125 277.136719 256.792969 279.179688 249.789062 Z M 279.179688 249.789062 " fill-opacity="1" fill-rule="nonzero"/><path fill="#ff95bb" d="M 214.210938 194.488281 C 214.210938 194.488281 209.136719 196.539062 209.765625 200.625 C 210.398438 204.707031 207.929688 205.996094 206.371094 203.867188 C 204.816406 201.738281 202.886719 195.726562 214.210938 194.488281 Z M 214.210938 194.488281 " fill-opacity="1" fill-rule="nonzero"/><path fill="#ff95bb" d="M 167.042969 182.175781 C 167.042969 182.175781 169.160156 187.425781 173.382812 186.78125 C 177.605469 186.136719 178.933594 188.691406 176.730469 190.296875 C 174.527344 191.902344 168.308594 193.886719 167.042969 182.175781 Z M 167.042969 182.175781 " fill-opacity="1" fill-rule="nonzero"/><path fill="#ff95bb" d="M 216.976562 205.90625 C 216.976562 205.90625 213.46875 209.640625 215.605469 212.871094 C 217.738281 216.097656 216.144531 218.160156 213.988281 216.957031 C 211.828125 215.757812 207.832031 211.402344 216.976562 205.90625 Z M 216.976562 205.90625 " fill-opacity="1" fill-rule="nonzero"/><path fill="#ff95bb" d="M 105.183594 133.171875 C 105.183594 133.171875 108.652344 129.949219 106.882812 126.839844 C 105.113281 123.730469 106.710938 121.929688 108.628906 123.171875 C 110.542969 124.410156 113.957031 128.675781 105.183594 133.171875 Z M 105.183594 133.171875 " fill-opacity="1" fill-rule="nonzero"/><path fill="#ff95bb" d="M 150.550781 91.574219 C 150.550781 91.574219 150.160156 95.796875 153.195312 96.816406 C 156.226562 97.835938 156.234375 99.992188 154.21875 100.308594 C 152.199219 100.621094 147.375 99.808594 150.550781 91.574219 Z M 150.550781 91.574219 " fill-opacity="1" fill-rule="nonzero"/><path fill="#ff95bb" d="M 87.621094 112.984375 C 87.621094 112.984375 91.027344 117.882812 86.25 123.121094 C 81.472656 128.359375 87.578125 128.667969 88.132812 125.839844 C 88.683594 123.007812 92.496094 118.601562 87.621094 112.984375 Z M 87.621094 112.984375 " fill-opacity="1" fill-rule="nonzero"/><path fill="#ff95bb" d="M 116.347656 171.042969 C 116.347656 171.042969 118.3125 165.835938 124.863281 166.738281 C 131.414062 167.640625 128.421875 162.78125 125.957031 163.855469 C 123.492188 164.925781 118.089844 164.328125 116.347656 171.042969 Z M 116.347656 171.042969 " fill-opacity="1" fill-rule="nonzero"/><path fill="#ff95bb" d="M 245.597656 212.003906 C 245.597656 212.003906 242.703125 206.480469 248.339844 201.671875 C 253.972656 196.859375 247.679688 195.746094 246.738281 198.609375 C 245.800781 201.472656 241.277344 205.542969 245.597656 212.003906 Z M 245.597656 212.003906 " fill-opacity="1" fill-rule="nonzero"/><path fill="#ff95bb" d="M 284.820312 202.859375 C 284.820312 202.859375 289.28125 205.835938 287.007812 211.789062 C 284.734375 217.738281 289.941406 215.988281 289.472656 213.441406 C 289.003906 210.894531 290.742188 205.957031 284.820312 202.859375 Z M 284.820312 202.859375 " fill-opacity="1" fill-rule="nonzero"/><path fill="#ff95bb" d="M 154.042969 223.210938 C 154.042969 223.210938 155.820312 227.886719 150.875 231.175781 C 145.929688 234.464844 150.832031 235.957031 151.855469 233.765625 C 152.875 231.578125 156.867188 228.765625 154.042969 223.210938 Z M 154.042969 223.210938 " fill-opacity="1" fill-rule="nonzero"/><path fill="#ff95bb" d="M 215.886719 201.050781 C 215.886719 201.050781 222.429688 204.402344 220.273438 212.867188 C 218.117188 221.328125 224.9375 218.121094 223.894531 214.726562 C 222.851562 211.332031 224.441406 204.332031 215.886719 201.050781 Z M 215.886719 201.050781 " fill-opacity="1" fill-rule="nonzero"/><path fill="#ff95bb" d="M 134.320312 110.226562 C 134.320312 110.226562 137.945312 104.910156 145.0625 107.703125 C 152.183594 110.5 150.140625 104.226562 147.078125 104.761719 C 144.011719 105.296875 138.101562 103.152344 134.320312 110.226562 Z M 134.320312 110.226562 " fill-opacity="1" fill-rule="nonzero"/><path fill="#ff95bb" d="M 310.199219 166.042969 C 310.199219 166.042969 309.636719 160.585938 315.804688 158.496094 C 321.976562 156.402344 317.199219 153.441406 315.5 155.472656 C 313.796875 157.503906 308.773438 159.359375 310.199219 166.042969 Z M 310.199219 166.042969 " fill-opacity="1" fill-rule="nonzero"/><path fill="#ff95bb" d="M 72.664062 108.34375 C 72.664062 108.34375 80.902344 106.210938 85.550781 115.191406 C 90.195312 124.171875 93.628906 116.152344 90.113281 114.015625 C 86.601562 111.878906 82.589844 104.601562 72.664062 108.34375 Z M 72.664062 108.34375 " fill-opacity="1" fill-rule="nonzero"/><path fill="#ff95bb" d="M 152.105469 178.839844 C 152.105469 178.839844 147.378906 183.917969 140.253906 179.785156 C 133.125 175.652344 134.28125 182.664062 137.632812 182.59375 C 140.980469 182.519531 146.925781 185.761719 152.105469 178.839844 Z M 152.105469 178.839844 " fill-opacity="1" fill-rule="nonzero"/><path fill="#ff95bb" d="M 106.230469 223.242188 C 106.230469 223.242188 113.480469 224.113281 114.386719 232.738281 C 115.292969 241.367188 120.539062 236.03125 118.402344 233.226562 C 116.261719 230.421875 115.328125 223.355469 106.230469 223.242188 Z M 106.230469 223.242188 " fill-opacity="1" fill-rule="nonzero"/><path fill="#ff95bb" d="M 216.488281 218.847656 C 216.488281 218.847656 213.421875 228.074219 201.925781 226.960938 C 190.425781 225.847656 195.992188 234.113281 200.21875 232.070312 C 204.449219 230.023438 213.917969 230.691406 216.488281 218.847656 Z M 216.488281 218.847656 " fill-opacity="1" fill-rule="nonzero"/><path fill="#ff95bb" d="M 313.132812 167.339844 C 313.132812 167.339844 321.601562 168.578125 322.398438 178.714844 C 323.199219 188.851562 329.511719 182.761719 327.089844 179.410156 C 324.667969 176.058594 323.792969 167.746094 313.132812 167.339844 Z M 313.132812 167.339844 " fill-opacity="1" fill-rule="nonzero"/><path fill="#ff95bb" d="M 199.210938 166.660156 C 199.210938 166.660156 195.5 169.914062 190.753906 166.476562 C 186.003906 163.039062 186.320312 168.085938 188.695312 168.277344 C 191.070312 168.464844 195.046875 171.1875 199.210938 166.660156 Z M 199.210938 166.660156 " fill-opacity="1" fill-rule="nonzero"/><path fill="#ff95bb" d="M 186.480469 250.710938 C 186.480469 250.710938 194.039062 253.15625 193.195312 262.5625 C 192.355469 271.960938 199.078125 267.367188 197.382812 263.921875 C 195.683594 260.480469 196.175781 252.738281 186.480469 250.710938 Z M 186.480469 250.710938 " fill-opacity="1" fill-rule="nonzero"/><path fill="#ff95bb" d="M 223.28125 152.246094 C 223.183594 151.980469 225.703125 164.628906 220.949219 168.117188 C 216.199219 171.605469 213.628906 174.554688 215.996094 178.179688 C 218.363281 181.804688 230.375 181.296875 229.585938 170.40625 C 228.792969 159.515625 224.183594 154.761719 223.28125 152.246094 Z M 223.28125 152.246094 " fill-opacity="1" fill-rule="nonzero"/><path fill="#ff95bb" d="M 118.785156 139.292969 C 119.019531 139.214844 107.941406 141.140625 105 136.921875 C 102.0625 132.703125 99.546875 130.398438 96.335938 132.386719 C 93.125 134.371094 93.308594 144.855469 102.820312 144.398438 C 112.328125 143.941406 116.574219 140.023438 118.785156 139.292969 Z M 118.785156 139.292969 " fill-opacity="1" fill-rule="nonzero"/><path fill="#ff95bb" d="M 232.578125 257.78125 C 232.792969 258.023438 224.8125 245.574219 228.425781 239.863281 C 232.039062 234.152344 233.550781 229.929688 229.503906 227.050781 C 225.460938 224.167969 212.847656 229.738281 218.25 241.03125 C 223.652344 252.324219 230.566406 255.472656 232.578125 257.78125 Z M 232.578125 257.78125 " fill-opacity="1" fill-rule="nonzero"/><path fill="#ff95bb" d="M 195.0625 204.46875 C 194.894531 204.347656 201.558594 210.917969 200.125 214.945312 C 198.695312 218.976562 198.351562 221.792969 201.25 223.003906 C 204.148438 224.21875 211.152344 219.019531 206.242188 212.804688 C 201.332031 206.589844 196.625 205.613281 195.0625 204.46875 Z M 195.0625 204.46875 " fill-opacity="1" fill-rule="nonzero"/><g clip-path="url(#473d953c6a)"><path fill="#ff95bb" d="M 191.941406 64.605469 C 191.789062 64.46875 197.640625 71.777344 195.746094 75.617188 C 193.847656 79.453125 193.175781 82.214844 195.914062 83.757812 C 198.652344 85.304688 206.226562 80.960938 202.078125 74.207031 C 197.925781 67.449219 193.363281 65.925781 191.941406 64.605469 Z M 191.941406 64.605469 " fill-opacity="1" fill-rule="nonzero"/></g><path fill="#ff95bb" d="M 83.480469 107.664062 C 83.222656 107.839844 96.132812 101.640625 101.195312 105.789062 C 106.257812 109.941406 110.140625 111.890625 113.386719 108.34375 C 116.636719 104.796875 112.773438 92.015625 101.28125 95.871094 C 89.78125 99.726562 85.9375 106 83.480469 107.664062 Z M 83.480469 107.664062 " fill-opacity="1" fill-rule="nonzero"/><path fill="#ff95bb" d="M 108.308594 185.25 C 108.21875 185.050781 110.929688 194.675781 107.464844 197.65625 C 104.003906 200.640625 102.195312 203.078125 104.242188 205.738281 C 106.292969 208.394531 115.546875 207.277344 114.277344 198.90625 C 113.007812 190.535156 109.15625 187.136719 108.308594 185.25 Z M 108.308594 185.25 " fill-opacity="1" fill-rule="nonzero"/><path fill="#ff95bb" d="M 314.855469 197.324219 C 315.09375 197.566406 305.980469 185.070312 309.394531 178.878906 C 312.808594 172.691406 314.121094 168.1875 309.71875 165.433594 C 305.316406 162.679688 292.5 169.285156 298.847656 180.738281 C 305.195312 192.1875 312.609375 195.042969 314.855469 197.324219 Z M 314.855469 197.324219 " fill-opacity="1" fill-rule="nonzero"/><path fill="#ff95bb" d="M 184.101562 115.605469 C 184.144531 115.285156 180.070312 129.46875 173.40625 130.519531 C 166.742188 131.570312 162.582031 133.222656 163.085938 138.152344 C 163.589844 143.082031 176.074219 148.867188 180.984375 137.378906 C 185.894531 125.890625 183.703125 118.632812 184.105469 115.605469 Z M 184.101562 115.605469 " fill-opacity="1" fill-rule="nonzero"/><path fill="#ff95bb" d="M 209.460938 200.40625 C 209.765625 200.503906 196.71875 194.082031 196.855469 187.4375 C 196.992188 180.792969 196.113281 176.46875 191.246094 176.101562 C 186.375 175.734375 178.59375 186.832031 188.882812 193.59375 C 199.175781 200.355469 206.59375 199.488281 209.460938 200.40625 Z M 209.460938 200.40625 " fill-opacity="1" fill-rule="nonzero"/><path fill="#ff95bb" d="M 275 165.382812 C 274.835938 165.101562 280.410156 178.941406 275.753906 183.929688 C 271.101562 188.914062 268.8125 192.816406 272.28125 196.433594 C 275.75 200.046875 289.300781 196.890625 286.0625 184.679688 C 282.828125 172.46875 276.566406 168.046875 275 165.382812 Z M 275 165.382812 " fill-opacity="1" fill-rule="nonzero"/><path fill="#ff95bb" d="M 268.222656 176.601562 C 268.425781 176.59375 259.195312 175.488281 257.871094 171.449219 C 256.546875 167.414062 255.101562 164.992188 252.089844 165.800781 C 249.074219 166.613281 246.730469 174.953125 254.367188 176.851562 C 262.007812 178.75 266.296875 176.65625 268.222656 176.601562 Z M 268.222656 176.601562 " fill-opacity="1" fill-rule="nonzero"/><path fill="#ff95bb" d="M 157.882812 78.78125 C 157.578125 78.734375 171.164062 82.808594 172.101562 89.226562 C 173.042969 95.640625 174.582031 99.660156 179.324219 99.230469 C 184.070312 98.800781 189.769531 86.863281 178.78125 82.019531 C 167.789062 77.171875 160.792969 79.199219 157.882812 78.777344 Z M 157.882812 78.78125 " fill-opacity="1" fill-rule="nonzero"/><path fill="#ff95bb" d="M 256.28125 179.144531 C 256.550781 179.230469 244.792969 173.625 244.84375 167.671875 C 244.890625 161.71875 244.058594 157.855469 239.691406 157.582031 C 235.328125 157.304688 228.480469 167.335938 237.773438 173.273438 C 247.066406 179.214844 253.699219 178.355469 256.28125 179.148438 Z M 256.28125 179.144531 " fill-opacity="1" fill-rule="nonzero"/><path fill="#ff95bb" d="M 248.273438 115.953125 C 248.328125 116.105469 246.742188 108.898438 249.421875 106.847656 C 252.097656 104.796875 253.535156 103.078125 252.136719 101.03125 C 250.742188 98.984375 243.871094 99.414062 244.453125 105.636719 C 245.03125 111.859375 247.726562 114.527344 248.273438 115.953125 Z M 248.273438 115.953125 " fill-opacity="1" fill-rule="nonzero"/></svg>