<svg xmlns="http://www.w3.org/2000/svg" xmlns:xlink="http://www.w3.org/1999/xlink" width="500" zoomAndPan="magnify" viewBox="0 0 375 374.999991" height="500" preserveAspectRatio="xMidYMid meet" version="1.0"><defs><clipPath id="9568d4a041"><path d="M 193 30.003906 L 208 30.003906 L 208 56 L 193 56 Z M 193 30.003906 " clip-rule="nonzero"/></clipPath></defs><path fill="#ff95bb" d="M 171.035156 69.386719 C 171.035156 69.386719 170.761719 75.074219 167.152344 78.023438 C 163.546875 80.972656 158.515625 83.984375 162.105469 88.246094 C 164.292969 90.84375 169.960938 86.808594 168.8125 83.066406 C 167.664062 79.328125 171.910156 73.636719 171.035156 69.386719 Z M 171.035156 69.386719 " fill-opacity="1" fill-rule="nonzero"/><path fill="#ff95bb" d="M 70.042969 158.21875 C 70.042969 158.21875 74.777344 155.953125 78.75 157.589844 C 82.722656 159.226562 87.367188 161.992188 89.253906 157.210938 C 90.40625 154.296875 84.648438 151.464844 82.117188 154.035156 C 79.582031 156.601562 73.109375 155.648438 70.042969 158.21875 Z M 70.042969 158.21875 " fill-opacity="1" fill-rule="nonzero"/><path fill="#ff95bb" d="M 312.488281 281.984375 C 312.488281 281.984375 305.644531 285.636719 299.671875 283.476562 C 293.703125 281.316406 286.667969 277.53125 284.191406 284.707031 C 282.679688 289.082031 291.359375 292.898438 294.933594 288.941406 C 298.503906 284.988281 308.125 285.976562 312.488281 281.984375 Z M 312.488281 281.984375 " fill-opacity="1" fill-rule="nonzero"/><path fill="#ff95bb" d="M 24.160156 143.472656 C 24.160156 143.472656 26.480469 147.179688 25.492188 150.621094 C 24.507812 154.0625 22.652344 158.167969 26.78125 159.285156 C 29.300781 159.964844 31.113281 154.9375 28.75 153.078125 C 26.386719 151.21875 26.574219 145.769531 24.160156 143.472656 Z M 24.160156 143.472656 " fill-opacity="1" fill-rule="nonzero"/><path fill="#ff95bb" d="M 213.761719 320.363281 C 213.761719 320.363281 217.257812 315.414062 222.183594 314.828125 C 227.113281 314.246094 233.351562 314.421875 232.566406 308.542969 C 232.085938 304.957031 224.6875 305.335938 223.578125 309.351562 C 222.472656 313.367188 215.40625 316.046875 213.761719 320.363281 Z M 213.761719 320.363281 " fill-opacity="1" fill-rule="nonzero"/><path fill="#ff95bb" d="M 211.871094 316.585938 C 211.871094 316.585938 214.152344 308.898438 220.074219 306.070312 C 226 303.246094 233.894531 300.816406 230.410156 293.78125 C 228.289062 289.492188 219.179688 293.113281 219.496094 298.617188 C 219.8125 304.117188 212.101562 310.476562 211.871094 316.585938 Z M 211.871094 316.585938 " fill-opacity="1" fill-rule="nonzero"/><path fill="#ff95bb" d="M 313.589844 273.410156 C 313.589844 273.410156 316.003906 267.019531 321.210938 264.984375 C 326.421875 262.953125 333.277344 261.375 330.753906 255.183594 C 329.21875 251.410156 321.253906 253.921875 321.183594 258.613281 C 321.109375 263.308594 314.160156 268.234375 313.589844 273.410156 Z M 313.589844 273.410156 " fill-opacity="1" fill-rule="nonzero"/><path fill="#ff95bb" d="M 286.875 124.828125 C 286.875 124.828125 285.714844 129.703125 282.117188 131.667969 C 278.515625 133.632812 273.675781 135.417969 276.089844 139.683594 C 277.558594 142.285156 283.117188 139.71875 282.730469 136.296875 C 282.347656 132.878906 286.941406 128.648438 286.875 124.828125 Z M 286.875 124.828125 " fill-opacity="1" fill-rule="nonzero"/><path fill="#ff95bb" d="M 222.886719 149.417969 C 222.886719 149.417969 225.160156 142.695312 230.496094 140.398438 C 235.828125 138.097656 242.886719 136.214844 240.042969 129.878906 C 238.3125 126.015625 230.136719 128.910156 230.230469 133.785156 C 230.328125 138.660156 223.292969 144.023438 222.886719 149.417969 Z M 222.886719 149.417969 " fill-opacity="1" fill-rule="nonzero"/><path fill="#ff95bb" d="M 43.785156 116.382812 C 43.785156 116.382812 37.707031 114.378906 35.597656 109.582031 C 33.484375 104.789062 31.738281 98.433594 26.042969 101.042969 C 22.570312 102.632812 25.238281 109.984375 29.632812 109.863281 C 34.03125 109.746094 38.917969 116.054688 43.785156 116.382812 Z M 43.785156 116.382812 " fill-opacity="1" fill-rule="nonzero"/><path fill="#ff95bb" d="M 150.046875 74.066406 C 150.046875 74.066406 147.105469 69.621094 148.195312 65.398438 C 149.289062 61.175781 151.421875 56.121094 146.351562 54.890625 C 143.265625 54.140625 141.21875 60.324219 144.152344 62.511719 C 147.089844 64.699219 147.035156 71.339844 150.046875 74.066406 Z M 150.046875 74.066406 " fill-opacity="1" fill-rule="nonzero"/><path fill="#ff95bb" d="M 193.894531 103.9375 C 193.894531 103.9375 191.25 100.164062 192.09375 96.488281 C 192.941406 92.808594 194.671875 88.386719 190.257812 87.441406 C 187.570312 86.863281 185.941406 92.257812 188.53125 94.082031 C 191.121094 95.90625 191.226562 101.652344 193.894531 103.9375 Z M 193.894531 103.9375 " fill-opacity="1" fill-rule="nonzero"/><path fill="#ff95bb" d="M 267.441406 228.285156 C 267.441406 228.285156 267.054688 223.011719 270.050781 219.890625 C 273.046875 216.769531 277.34375 213.429688 273.558594 209.90625 C 271.25 207.757812 266.480469 212.109375 267.957031 215.429688 C 269.433594 218.746094 266.160156 224.464844 267.441406 228.285156 Z M 267.441406 228.285156 " fill-opacity="1" fill-rule="nonzero"/><path fill="#ff95bb" d="M 169.429688 131.300781 C 169.429688 131.300781 176.707031 134.109375 178.980469 140.074219 C 181.257812 146.039062 182.996094 153.878906 190.085938 151.054688 C 194.410156 149.332031 191.613281 140.21875 186.253906 140.097656 C 180.898438 139.972656 175.335938 132 169.429688 131.300781 Z M 169.429688 131.300781 " fill-opacity="1" fill-rule="nonzero"/><path fill="#ff95bb" d="M 189.839844 58.910156 C 189.839844 58.910156 193.511719 64.203125 192.304688 69.335938 C 191.097656 74.464844 188.65625 80.632812 194.8125 81.984375 C 198.566406 82.808594 200.875 75.285156 197.269531 72.71875 C 193.664062 70.152344 193.554688 62.125 189.839844 58.910156 Z M 189.839844 58.910156 " fill-opacity="1" fill-rule="nonzero"/><path fill="#ff95bb" d="M 133.917969 55.398438 C 133.917969 55.398438 125.730469 50.652344 122.652344 54.984375 C 119.574219 59.316406 113.277344 59.417969 111.578125 54.300781 C 109.875 49.1875 124.265625 44.316406 133.921875 55.398438 Z M 133.917969 55.398438 " fill-opacity="1" fill-rule="nonzero"/><path fill="#ff95bb" d="M 328.222656 143.078125 C 328.222656 143.078125 320.582031 139.660156 318.273438 143.753906 C 315.964844 147.851562 310.429688 148.519531 308.460938 144.175781 C 306.496094 139.832031 318.707031 134.21875 328.222656 143.078125 Z M 328.222656 143.078125 " fill-opacity="1" fill-rule="nonzero"/><path fill="#ff95bb" d="M 221.058594 344.953125 C 221.058594 344.953125 228.132812 335.179688 223.035156 330.714844 C 217.941406 326.253906 218.628906 318.253906 225.335938 316.757812 C 232.042969 315.261719 236.359375 334.140625 221.058594 344.949219 Z M 221.058594 344.953125 " fill-opacity="1" fill-rule="nonzero"/><path fill="#ff95bb" d="M 128.394531 272.660156 C 128.394531 272.660156 133.5625 262.148438 127.953125 258.710938 C 122.34375 255.273438 121.6875 247.5 127.863281 244.96875 C 134.039062 242.4375 141.269531 259.800781 128.394531 272.664062 Z M 128.394531 272.660156 " fill-opacity="1" fill-rule="nonzero"/><path fill="#ff95bb" d="M 141.488281 200.167969 C 141.488281 200.167969 149.300781 197.835938 148.402344 193.347656 C 147.503906 188.855469 151.164062 184.84375 155.378906 186.800781 C 159.589844 188.753906 154.144531 200.660156 141.488281 200.167969 Z M 141.488281 200.167969 " fill-opacity="1" fill-rule="nonzero"/><path fill="#ff95bb" d="M 79.242188 141.648438 C 79.242188 141.648438 68.972656 154.648438 75.707031 161.066406 C 82.441406 167.480469 81.039062 178.417969 71.753906 180.085938 C 62.464844 181.753906 57.628906 155.601562 79.242188 141.648438 Z M 79.242188 141.648438 " fill-opacity="1" fill-rule="nonzero"/><path fill="#ff95bb" d="M 69.09375 175.007812 C 69.09375 175.007812 69.605469 186.40625 76.003906 186.710938 C 82.402344 187.015625 86.601562 193.34375 82.519531 198.394531 C 78.433594 203.449219 64.128906 192.015625 69.09375 175.007812 Z M 69.09375 175.007812 " fill-opacity="1" fill-rule="nonzero"/><path fill="#ff95bb" d="M 201.386719 104.523438 C 201.386719 104.523438 214.128906 114.523438 220.382812 107.917969 C 226.632812 101.3125 237.335938 102.652344 238.992188 111.726562 C 240.652344 120.804688 215.09375 125.613281 201.386719 104.523438 Z M 201.386719 104.523438 " fill-opacity="1" fill-rule="nonzero"/><path fill="#ff95bb" d="M 322.539062 157.582031 C 322.539062 157.582031 317.496094 173.199219 325.964844 176.832031 C 334.429688 180.460938 336.90625 191.101562 328.859375 195.855469 C 320.8125 200.613281 307.289062 178.003906 322.539062 157.582031 Z M 322.539062 157.582031 " fill-opacity="1" fill-rule="nonzero"/><path fill="#ff95bb" d="M 329.738281 213.808594 C 329.738281 213.808594 325.835938 227.425781 333.246094 230.3125 C 340.652344 233.203125 343.097656 242.308594 336.292969 246.644531 C 329.484375 250.976562 317.171875 231.863281 329.738281 213.808594 Z M 329.738281 213.808594 " fill-opacity="1" fill-rule="nonzero"/><path fill="#ff95bb" d="M 246.492188 49.449219 C 246.492188 49.449219 234.566406 53.746094 236.347656 60.640625 C 238.132812 67.53125 232.800781 74.074219 226.089844 71.402344 C 219.382812 68.734375 226.804688 49.78125 246.492188 49.445312 Z M 246.492188 49.449219 " fill-opacity="1" fill-rule="nonzero"/><path fill="#ff95bb" d="M 146.457031 216.761719 C 146.457031 216.761719 136.683594 221.789062 138.988281 227.515625 C 141.289062 233.238281 137.4375 239.457031 131.375 237.910156 C 125.308594 236.367188 129.570312 219.25 146.457031 216.761719 Z M 146.457031 216.761719 " fill-opacity="1" fill-rule="nonzero"/><path fill="#ff95bb" d="M 15.21875 131.441406 C 15.21875 131.441406 9.972656 144.964844 17.257812 148.597656 C 24.542969 152.234375 26.1875 161.75 18.84375 165.53125 C 11.5 169.320312 0.722656 148.679688 15.21875 131.441406 Z M 15.21875 131.441406 " fill-opacity="1" fill-rule="nonzero"/><path fill="#ff95bb" d="M 273.480469 257.890625 C 273.480469 257.890625 268.507812 248.527344 263.015625 250.820312 C 257.523438 253.113281 251.476562 249.476562 252.890625 243.605469 C 254.308594 237.738281 270.871094 241.636719 273.480469 257.890625 Z M 273.480469 257.890625 " fill-opacity="1" fill-rule="nonzero"/><path fill="#ff95bb" d="M 232.132812 157.078125 C 232.132812 157.078125 217.050781 158.808594 217.230469 167.328125 C 217.414062 175.851562 209.402344 182.007812 202.316406 177.050781 C 195.230469 172.09375 209.097656 152.050781 232.132812 157.078125 Z M 232.132812 157.078125 " fill-opacity="1" fill-rule="nonzero"/><path fill="#ff95bb" d="M 252.433594 65.121094 C 252.433594 65.121094 258.09375 54.992188 261.910156 58.222656 C 265.730469 61.453125 269.328125 53.875 263.164062 49.601562 C 256.996094 45.328125 251.28125 56.167969 252.433594 65.121094 Z M 252.433594 65.121094 " fill-opacity="1" fill-rule="nonzero"/><path fill="#ff95bb" d="M 49.023438 86.464844 C 49.023438 86.464844 48.902344 102.457031 42.148438 101.085938 C 35.390625 99.714844 36.066406 111.257812 46.351562 112.332031 C 56.632812 113.40625 56.351562 96.519531 49.023438 86.464844 Z M 49.023438 86.464844 " fill-opacity="1" fill-rule="nonzero"/><path fill="#ff95bb" d="M 153.789062 152.65625 C 153.789062 152.65625 162.503906 166.476562 155.9375 169.023438 C 149.371094 171.566406 156.316406 181.121094 165.753906 176.375 C 175.191406 171.628906 165.632812 157.261719 153.789062 152.65625 Z M 153.789062 152.65625 " fill-opacity="1" fill-rule="nonzero"/><path fill="#ff95bb" d="M 283.964844 193.613281 C 283.964844 193.613281 291.164062 186.167969 293.71875 189.828125 C 296.273438 193.492188 301.113281 187.777344 296.773438 182.679688 C 292.429688 177.582031 285.019531 185.625 283.964844 193.613281 Z M 283.964844 193.613281 " fill-opacity="1" fill-rule="nonzero"/><path fill="#ff95bb" d="M 157.691406 204.144531 C 157.691406 204.144531 148.765625 208.578125 147.625 204.433594 C 146.488281 200.289062 140.257812 203.914062 142.554688 209.9375 C 144.851562 215.957031 154.164062 211.046875 157.691406 204.144531 Z M 157.691406 204.144531 " fill-opacity="1" fill-rule="nonzero"/><path fill="#ff95bb" d="M 221.824219 292.980469 C 221.824219 292.980469 224.847656 278.1875 230.859375 280.6875 C 236.867188 283.191406 238.34375 272.375 229.011719 269.507812 C 219.679688 266.636719 216.867188 282.332031 221.824219 292.980469 Z M 221.824219 292.980469 " fill-opacity="1" fill-rule="nonzero"/><path fill="#ff95bb" d="M 263.703125 251.261719 C 263.703125 251.261719 251.53125 256.785156 250.199219 251.179688 C 248.867188 245.574219 240.347656 250.140625 243.144531 258.320312 C 245.941406 266.5 258.652344 260.351562 263.703125 251.261719 Z M 263.703125 251.261719 " fill-opacity="1" fill-rule="nonzero"/><path fill="#ff95bb" d="M 299.109375 249.726562 C 299.109375 249.726562 301.679688 235.683594 307.40625 237.929688 C 313.136719 240.175781 314.320312 229.925781 305.441406 227.394531 C 296.566406 224.867188 294.214844 239.757812 299.109375 249.726562 Z M 299.109375 249.726562 " fill-opacity="1" fill-rule="nonzero"/><path fill="#ff95bb" d="M 141.050781 197.367188 C 141.050781 197.367188 140.6875 188.253906 144.570312 188.851562 C 148.457031 189.453125 147.761719 182.894531 141.871094 182.5625 C 135.984375 182.226562 136.605469 191.839844 141.050781 197.367188 Z M 141.050781 197.367188 " fill-opacity="1" fill-rule="nonzero"/><path fill="#ff95bb" d="M 352.101562 194.636719 C 352.101562 194.636719 359.8125 199.164062 357.261719 202.050781 C 354.707031 204.941406 360.484375 207.839844 363.878906 203.160156 C 367.273438 198.480469 359.019531 193.898438 352.101562 194.636719 Z M 352.101562 194.636719 " fill-opacity="1" fill-rule="nonzero"/><path fill="#ff95bb" d="M 247.710938 171.679688 C 247.710938 171.679688 257.625 184.273438 251.476562 187.425781 C 245.332031 190.582031 253.082031 199.191406 261.804688 193.601562 C 270.527344 188.003906 259.738281 174.964844 247.710938 171.679688 Z M 247.710938 171.679688 " fill-opacity="1" fill-rule="nonzero"/><path fill="#ff95bb" d="M 219.601562 259.246094 C 219.601562 259.246094 206.898438 260.800781 207.289062 255.296875 C 207.683594 249.792969 198.59375 251.519531 198.796875 259.792969 C 199.003906 268.066406 212.378906 266.097656 219.601562 259.246094 Z M 219.601562 259.246094 " fill-opacity="1" fill-rule="nonzero"/><path fill="#ff95bb" d="M 127.972656 44.320312 C 127.972656 44.320312 119.730469 43.816406 120.625 40.371094 C 121.519531 36.925781 115.546875 36.953125 114.707031 42.226562 C 113.871094 47.5 122.585938 47.820312 127.972656 44.320312 Z M 127.972656 44.320312 " fill-opacity="1" fill-rule="nonzero"/><path fill="#ff95bb" d="M 310.304688 80.257812 C 310.304688 80.257812 309.238281 94.605469 303.257812 92.96875 C 297.277344 91.332031 297.191406 101.734375 306.355469 103.3125 C 315.523438 104.894531 316.277344 89.71875 310.304688 80.257812 Z M 310.304688 80.257812 " fill-opacity="1" fill-rule="nonzero"/><path fill="#ff95bb" d="M 252.175781 216.238281 C 252.175781 216.238281 258.753906 220.902344 256.238281 223.296875 C 253.71875 225.695312 258.6875 228.746094 262.097656 224.804688 C 265.511719 220.863281 258.449219 216.109375 252.175781 216.238281 Z M 252.175781 216.238281 " fill-opacity="1" fill-rule="nonzero"/><path fill="#ff95bb" d="M 98.273438 195.101562 C 102.898438 195.324219 106.5625 191.136719 106.445312 186.503906 C 106.390625 184.246094 105.4375 182.21875 103.949219 180.75 C 103.773438 180.554688 103.566406 180.363281 103.304688 180.171875 C 102.132812 179.234375 100.707031 178.609375 99.152344 178.410156 C 99.039062 178.375 98.949219 178.34375 98.832031 178.3125 C 82.140625 173.78125 69.183594 181.347656 69.183594 181.347656 C 86.488281 179.957031 90.375 190.53125 90.375 190.53125 C 90.375 190.53125 92.78125 194.835938 98.273438 195.101562 Z M 98.273438 195.101562 " fill-opacity="1" fill-rule="nonzero"/><path fill="#ff95bb" d="M 106.289062 115.25 C 106.507812 117.679688 108.960938 119.285156 111.367188 118.886719 C 112.542969 118.691406 113.527344 118.050781 114.1875 117.164062 C 114.273438 117.058594 114.359375 116.9375 114.4375 116.785156 C 114.84375 116.105469 115.0625 115.320312 115.054688 114.492188 C 115.066406 114.433594 115.074219 114.382812 115.082031 114.320312 C 116.226562 105.285156 111.339844 99.082031 111.339844 99.082031 C 113.324219 108.003906 108.097656 110.800781 108.097656 110.800781 C 108.097656 110.800781 106.027344 112.371094 106.289062 115.25 Z M 106.289062 115.25 " fill-opacity="1" fill-rule="nonzero"/><path fill="#ff95bb" d="M 204.339844 98.585938 C 203.550781 96.324219 200.832031 95.375 198.632812 96.324219 C 197.558594 96.789062 196.769531 97.632812 196.351562 98.632812 C 196.292969 98.753906 196.238281 98.890625 196.199219 99.054688 C 195.972656 99.796875 195.949219 100.601562 196.152344 101.386719 C 196.160156 101.449219 196.164062 101.5 196.167969 101.5625 C 197.21875 110.449219 203.351562 115.207031 203.351562 115.207031 C 199.34375 107.167969 203.667969 103.261719 203.667969 103.261719 C 203.667969 103.261719 205.269531 101.273438 204.339844 98.585938 Z M 204.339844 98.585938 " fill-opacity="1" fill-rule="nonzero"/><path fill="#ff95bb" d="M 109.609375 211.671875 C 110.375 207.261719 106.792969 203.25 102.335938 202.808594 C 100.164062 202.597656 98.109375 203.265625 96.523438 204.519531 C 96.316406 204.667969 96.105469 204.839844 95.894531 205.070312 C 94.855469 206.082031 94.085938 207.375 93.707031 208.839844 C 93.664062 208.945312 93.621094 209.03125 93.578125 209.136719 C 87.246094 224.601562 92.960938 237.929688 92.960938 237.929688 C 93.6875 221.167969 104.285156 218.699219 104.285156 218.699219 C 104.285156 218.699219 108.703125 216.90625 109.609375 211.671875 Z M 109.609375 211.671875 " fill-opacity="1" fill-rule="nonzero"/><path fill="#ff95bb" d="M 46.734375 203.890625 C 49.875 205.722656 53.949219 204.136719 55.546875 200.867188 C 56.328125 199.273438 56.398438 197.519531 55.894531 195.957031 C 55.84375 195.757812 55.769531 195.546875 55.65625 195.320312 C 55.179688 194.242188 54.414062 193.289062 53.40625 192.585938 C 53.339844 192.523438 53.285156 192.464844 53.21875 192.402344 C 43.238281 183.1875 31.472656 183.753906 31.472656 183.753906 C 44.027344 189.066406 42.898438 197.839844 42.898438 197.839844 C 42.898438 197.839844 43.007812 201.710938 46.734375 203.890625 Z M 46.734375 203.890625 " fill-opacity="1" fill-rule="nonzero"/><path fill="#ff95bb" d="M 247.769531 273.035156 C 245.804688 274.910156 246.101562 278.15625 248.113281 279.980469 C 249.097656 280.871094 250.339844 281.285156 251.566406 281.246094 C 251.71875 281.25 251.882812 281.242188 252.070312 281.207031 C 252.941406 281.089844 253.78125 280.734375 254.496094 280.15625 C 254.554688 280.125 254.605469 280.097656 254.667969 280.0625 C 263.339844 274.8125 265.367188 266.253906 265.367188 266.253906 C 258.960938 274.160156 252.902344 271.535156 252.902344 271.535156 C 252.902344 271.535156 250.101562 270.8125 247.769531 273.035156 Z M 247.769531 273.035156 " fill-opacity="1" fill-rule="nonzero"/><path fill="#ff95bb" d="M 253.101562 199.964844 C 252.109375 197.886719 249.410156 197.269531 247.410156 198.410156 C 246.433594 198.96875 245.773438 199.863281 245.480469 200.863281 C 245.4375 200.984375 245.402344 201.121094 245.378906 201.28125 C 245.246094 202.015625 245.308594 202.785156 245.585938 203.511719 C 245.597656 203.570312 245.605469 203.617188 245.621094 203.675781 C 247.570312 212.050781 253.9375 215.9375 253.9375 215.9375 C 249.25 208.691406 252.960938 204.496094 252.960938 204.496094 C 252.960938 204.496094 254.277344 202.429688 253.101562 199.964844 Z M 253.101562 199.964844 " fill-opacity="1" fill-rule="nonzero"/><path fill="#ff95bb" d="M 334.378906 154.472656 C 337.472656 153.878906 339.222656 150.523438 338.402344 147.480469 C 338.003906 145.996094 337.050781 144.8125 335.832031 144.078125 C 335.683594 143.980469 335.515625 143.886719 335.3125 143.800781 C 334.386719 143.371094 333.347656 143.1875 332.285156 143.300781 C 332.207031 143.296875 332.140625 143.292969 332.058594 143.289062 C 320.304688 142.972656 312.953125 150.046875 312.953125 150.046875 C 324.167969 146.355469 328.429688 152.71875 328.429688 152.71875 C 328.429688 152.71875 330.710938 155.175781 334.378906 154.472656 Z M 334.378906 154.472656 " fill-opacity="1" fill-rule="nonzero"/><path fill="#ff95bb" d="M 226.449219 48.496094 C 226.464844 44.890625 223.082031 42.183594 219.480469 42.429688 C 217.726562 42.550781 216.183594 43.359375 215.089844 44.570312 C 214.945312 44.710938 214.804688 44.878906 214.664062 45.089844 C 213.972656 46.03125 213.539062 47.160156 213.433594 48.378906 C 213.414062 48.464844 213.390625 48.539062 213.371094 48.632812 C 210.414062 61.765625 216.738281 71.589844 216.738281 71.589844 C 215.066406 58.175781 223.160156 54.792969 223.160156 54.792969 C 223.160156 54.792969 226.425781 52.777344 226.449219 48.496094 Z M 226.449219 48.496094 " fill-opacity="1" fill-rule="nonzero"/><path fill="#ff95bb" d="M 77.605469 202.335938 C 76.734375 199.429688 73.355469 198.082031 70.519531 199.160156 C 69.140625 199.6875 68.097656 200.714844 67.515625 201.953125 C 67.433594 202.105469 67.359375 202.273438 67.296875 202.476562 C 66.972656 203.402344 66.898438 204.417969 67.113281 205.421875 C 67.117188 205.496094 67.117188 205.5625 67.121094 205.640625 C 67.953125 216.925781 75.441406 223.277344 75.441406 223.277344 C 70.820312 212.898438 76.5 208.203125 76.5 208.203125 C 76.5 208.203125 78.632812 205.78125 77.605469 202.335938 Z M 77.605469 202.335938 " fill-opacity="1" fill-rule="nonzero"/><path fill="#ff95bb" d="M 295.273438 122.945312 C 290.835938 123.488281 288.039062 128.074219 288.90625 132.457031 C 289.332031 134.597656 290.566406 136.367188 292.222656 137.523438 C 292.421875 137.679688 292.652344 137.828125 292.933594 137.964844 C 294.199219 138.667969 295.65625 139.023438 297.167969 138.964844 C 297.28125 138.976562 297.371094 138.992188 297.488281 139.003906 C 314.101562 140.582031 325.1875 131.269531 325.1875 131.269531 C 308.957031 135.421875 303.53125 126 303.53125 126 C 303.53125 126 300.539062 122.300781 295.277344 122.945312 Z M 295.273438 122.945312 " fill-opacity="1" fill-rule="nonzero"/><path fill="#ff95bb" d="M 29.59375 150.191406 C 32.070312 150.675781 34.371094 148.707031 34.671875 146.203125 C 34.816406 144.984375 34.464844 143.816406 33.777344 142.910156 C 33.699219 142.789062 33.605469 142.671875 33.476562 142.546875 C 32.917969 141.949219 32.203125 141.503906 31.378906 141.269531 C 31.324219 141.246094 31.277344 141.222656 31.214844 141.195312 C 22.585938 137.441406 15.011719 140.5 15.011719 140.5 C 24.441406 141.109375 25.703125 147.109375 25.703125 147.109375 C 25.703125 147.109375 26.660156 149.617188 29.59375 150.191406 Z M 29.59375 150.191406 " fill-opacity="1" fill-rule="nonzero"/><path fill="#ff95bb" d="M 140.175781 122.652344 C 139.75 118.222656 135.257812 115.320312 130.871094 116.070312 C 128.730469 116.4375 126.9375 117.621094 125.742188 119.242188 C 125.582031 119.433594 125.429688 119.65625 125.285156 119.933594 C 124.554688 121.179688 124.15625 122.617188 124.179688 124.125 C 124.164062 124.238281 124.148438 124.328125 124.132812 124.445312 C 122.132812 140.941406 131.121094 152.21875 131.121094 152.21875 C 127.402344 135.953125 136.921875 130.796875 136.921875 130.796875 C 136.921875 130.796875 140.683594 127.914062 140.175781 122.65625 Z M 140.175781 122.652344 " fill-opacity="1" fill-rule="nonzero"/><path fill="#ff95bb" d="M 49.59375 161.191406 C 47.042969 160.1875 44.191406 161.84375 43.378906 164.464844 C 42.980469 165.742188 43.132812 167.058594 43.6875 168.167969 C 43.75 168.308594 43.828125 168.457031 43.941406 168.613281 C 44.421875 169.363281 45.101562 169.980469 45.9375 170.390625 C 45.992188 170.429688 46.039062 170.464844 46.097656 170.503906 C 54.605469 176.214844 63.308594 174.425781 63.308594 174.425781 C 53.335938 171.921875 53.160156 165.253906 53.160156 165.253906 C 53.160156 165.253906 52.625 162.382812 49.59375 161.191406 Z M 49.59375 161.191406 " fill-opacity="1" fill-rule="nonzero"/><path fill="#ff95bb" d="M 107.363281 99.390625 C 107.503906 95.621094 104.054688 92.675781 100.285156 92.8125 C 98.445312 92.882812 96.804688 93.675781 95.621094 94.902344 C 95.464844 95.046875 95.308594 95.21875 95.15625 95.433594 C 94.402344 96.394531 93.90625 97.5625 93.757812 98.832031 C 93.730469 98.921875 93.707031 98.996094 93.683594 99.09375 C 90.148438 112.730469 96.429688 123.214844 96.429688 123.214844 C 95.136719 109.132812 103.714844 105.867188 103.714844 105.867188 C 103.714844 105.867188 107.199219 103.867188 107.363281 99.390625 Z M 107.363281 99.390625 " fill-opacity="1" fill-rule="nonzero"/><path fill="#ff95bb" d="M 177.203125 172.128906 C 176.09375 177.148438 173.03125 179.351562 173.03125 179.351562 C 173.03125 179.351562 173.042969 179.375 173.0625 179.40625 C 172.316406 180.023438 171.949219 181.035156 172.207031 182.039062 C 172.5625 183.417969 173.96875 184.25 175.351562 183.894531 C 176.023438 183.722656 176.566406 183.296875 176.902344 182.746094 C 176.949219 182.679688 176.992188 182.605469 177.03125 182.511719 C 177.230469 182.097656 177.667969 181.3125 177.621094 180.832031 C 177.621094 180.832031 179.003906 175.453125 177.203125 172.128906 Z M 177.203125 172.128906 " fill-opacity="1" fill-rule="nonzero"/><path fill="#ff95bb" d="M 364.730469 159.984375 C 359.242188 158.492188 356.960938 154.996094 356.960938 154.996094 C 356.960938 154.996094 356.9375 155.007812 356.902344 155.027344 C 356.257812 154.167969 355.15625 153.710938 354.039062 153.941406 C 352.492188 154.261719 351.5 155.777344 351.820312 157.320312 C 351.976562 158.074219 352.417969 158.695312 353.007812 159.097656 C 353.078125 159.152344 353.160156 159.203125 353.261719 159.253906 C 353.710938 159.496094 354.554688 160.019531 355.085938 159.992188 C 355.085938 159.992188 360.960938 161.800781 364.730469 159.984375 Z M 364.730469 159.984375 " fill-opacity="1" fill-rule="nonzero"/><path fill="#ff95bb" d="M 231.601562 122.898438 C 225.816406 125.144531 221.554688 123.546875 221.554688 123.546875 C 221.554688 123.546875 221.539062 123.574219 221.519531 123.613281 C 220.402344 123.277344 219.136719 123.585938 218.304688 124.515625 C 217.15625 125.796875 217.265625 127.765625 218.546875 128.914062 C 219.171875 129.476562 219.960938 129.734375 220.738281 129.707031 C 220.835938 129.707031 220.941406 129.699219 221.058594 129.679688 C 221.609375 129.601562 222.691406 129.515625 223.140625 129.144531 C 223.140625 129.144531 229.46875 126.929688 231.601562 122.898438 Z M 231.601562 122.898438 " fill-opacity="1" fill-rule="nonzero"/><path fill="#ff95bb" d="M 123.824219 133.261719 C 117.835938 139.546875 111.488281 140.058594 111.488281 140.058594 C 111.488281 140.058594 111.488281 140.101562 111.488281 140.164062 C 109.871094 140.40625 108.457031 141.546875 107.953125 143.21875 C 107.265625 145.523438 108.570312 147.953125 110.878906 148.644531 C 112 148.980469 113.15625 148.839844 114.121094 148.339844 C 114.246094 148.285156 114.375 148.214844 114.511719 148.117188 C 115.164062 147.691406 116.480469 146.9375 116.828125 146.203125 C 116.828125 146.203125 123.519531 139.636719 123.824219 133.261719 Z M 123.824219 133.261719 " fill-opacity="1" fill-rule="nonzero"/><path fill="#ff95bb" d="M 74.210938 58.578125 C 68.582031 62.621094 63.527344 62.085938 63.527344 62.085938 C 63.527344 62.085938 63.519531 62.117188 63.511719 62.164062 C 62.207031 62.117188 60.925781 62.804688 60.285156 64.039062 C 59.402344 65.746094 60.070312 67.847656 61.777344 68.730469 C 62.609375 69.160156 63.535156 69.21875 64.367188 68.972656 C 64.472656 68.949219 64.585938 68.910156 64.707031 68.855469 C 65.28125 68.617188 66.425781 68.21875 66.808594 67.695312 C 66.808594 67.695312 73.03125 63.535156 74.210938 58.578125 Z M 74.210938 58.578125 " fill-opacity="1" fill-rule="nonzero"/><path fill="#ff95bb" d="M 166.40625 138.839844 C 170.652344 141.3125 171.769531 144.742188 171.769531 144.742188 C 171.769531 144.742188 171.792969 144.734375 171.828125 144.726562 C 172.171875 145.585938 172.988281 146.214844 173.972656 146.273438 C 175.335938 146.347656 176.5 145.308594 176.578125 143.949219 C 176.617188 143.285156 176.386719 142.667969 175.984375 142.203125 C 175.9375 142.140625 175.882812 142.078125 175.808594 142.015625 C 175.488281 141.714844 174.902344 141.085938 174.453125 140.992188 C 174.453125 140.992188 169.957031 138.167969 166.40625 138.839844 Z M 166.40625 138.839844 " fill-opacity="1" fill-rule="nonzero"/><path fill="#ff95bb" d="M 254.066406 49.625 C 245.378906 47.417969 241.703125 41.960938 241.703125 41.960938 C 241.703125 41.960938 241.664062 41.984375 241.605469 42.015625 C 240.570312 40.679688 238.824219 39.984375 237.066406 40.378906 C 234.644531 40.925781 233.117188 43.332031 233.664062 45.757812 C 233.929688 46.941406 234.640625 47.90625 235.578125 48.527344 C 235.691406 48.609375 235.820312 48.691406 235.976562 48.761719 C 236.691406 49.132812 238.035156 49.9375 238.875 49.882812 C 238.875 49.882812 248.175781 52.582031 254.066406 49.625 Z M 254.066406 49.625 " fill-opacity="1" fill-rule="nonzero"/><path fill="#ff95bb" d="M 50.515625 153.292969 C 54.660156 157.582031 54.835938 161.953125 54.835938 161.953125 C 54.835938 161.953125 54.863281 161.957031 54.90625 161.957031 C 55.027344 163.074219 55.773438 164.078125 56.90625 164.46875 C 58.46875 165.007812 60.175781 164.179688 60.714844 162.613281 C 60.980469 161.851562 60.914062 161.054688 60.597656 160.378906 C 60.5625 160.292969 60.519531 160.199219 60.453125 160.105469 C 60.179688 159.644531 59.699219 158.71875 59.207031 158.457031 C 59.207031 158.457031 54.882812 153.679688 50.515625 153.292969 Z M 50.515625 153.292969 " fill-opacity="1" fill-rule="nonzero"/><path fill="#ff95bb" d="M 243.757812 139.222656 C 236.136719 140.632812 231.273438 137.679688 231.273438 137.679688 C 231.273438 137.679688 231.25 137.710938 231.21875 137.757812 C 229.921875 137.085938 228.296875 137.171875 227.0625 138.117188 C 225.355469 139.421875 225.027344 141.867188 226.335938 143.574219 C 226.972656 144.40625 227.878906 144.90625 228.839844 145.054688 C 228.960938 145.078125 229.089844 145.09375 229.242188 145.09375 C 229.9375 145.128906 231.28125 145.273438 231.921875 144.925781 C 231.921875 144.925781 240.203125 143.675781 243.757812 139.222656 Z M 243.757812 139.222656 " fill-opacity="1" fill-rule="nonzero"/><path fill="#ff95bb" d="M 36.589844 168.1875 C 30.996094 170.449219 26.832031 168.953125 26.832031 168.953125 C 26.832031 168.953125 26.820312 168.980469 26.800781 169.019531 C 25.707031 168.707031 24.484375 169.027344 23.6875 169.941406 C 22.589844 171.199219 22.71875 173.113281 23.980469 174.214844 C 24.597656 174.75 25.367188 174.992188 26.121094 174.953125 C 26.214844 174.953125 26.320312 174.945312 26.433594 174.921875 C 26.96875 174.839844 28.019531 174.742188 28.449219 174.375 C 28.449219 174.375 34.570312 172.136719 36.589844 168.1875 Z M 36.589844 168.1875 " fill-opacity="1" fill-rule="nonzero"/><path fill="#ff95bb" d="M 145.230469 53.539062 C 139.300781 47.570312 138.972656 41.402344 138.972656 41.402344 C 138.972656 41.402344 138.933594 41.402344 138.871094 41.398438 C 138.679688 39.828125 137.613281 38.425781 136.007812 37.894531 C 133.792969 37.164062 131.402344 38.367188 130.667969 40.582031 C 130.3125 41.660156 130.417969 42.78125 130.875 43.734375 C 130.925781 43.855469 130.992188 43.984375 131.082031 44.117188 C 131.480469 44.761719 132.171875 46.054688 132.875 46.414062 C 132.875 46.414062 139.0625 53.078125 145.230469 53.539062 Z M 145.230469 53.539062 " fill-opacity="1" fill-rule="nonzero"/><path fill="#ff95bb" d="M 139.84375 40.90625 C 147.222656 40.042969 151.683594 43.179688 151.683594 43.179688 C 151.683594 43.179688 151.707031 43.152344 151.742188 43.113281 C 152.941406 43.835938 154.496094 43.859375 155.742188 43.035156 C 157.457031 41.894531 157.925781 39.578125 156.785156 37.859375 C 156.230469 37.023438 155.394531 36.484375 154.484375 36.285156 C 154.371094 36.253906 154.25 36.230469 154.105469 36.21875 C 153.441406 36.144531 152.164062 35.917969 151.53125 36.210938 C 151.53125 36.210938 143.527344 36.871094 139.84375 40.90625 Z M 139.84375 40.90625 " fill-opacity="1" fill-rule="nonzero"/><path fill="#ff95bb" d="M 79.382812 65.792969 C 82.695312 61.25 86.726562 60.378906 86.726562 60.378906 C 86.726562 60.378906 86.722656 60.351562 86.71875 60.308594 C 87.738281 60.015625 88.546875 59.164062 88.726562 58.046875 C 88.976562 56.507812 87.925781 55.058594 86.386719 54.8125 C 85.636719 54.691406 84.910156 54.878906 84.328125 55.28125 C 84.253906 55.328125 84.179688 55.386719 84.097656 55.460938 C 83.714844 55.789062 82.933594 56.382812 82.773438 56.886719 C 82.773438 56.886719 79.035156 61.675781 79.382812 65.792969 Z M 79.382812 65.792969 " fill-opacity="1" fill-rule="nonzero"/><path fill="#ff95bb" d="M 90.152344 245.515625 C 87.027344 242.53125 86.773438 239.371094 86.773438 239.371094 C 86.773438 239.371094 86.753906 239.371094 86.722656 239.371094 C 86.601562 238.566406 86.035156 237.859375 85.203125 237.609375 C 84.054688 237.265625 82.84375 237.914062 82.5 239.0625 C 82.328125 239.621094 82.398438 240.195312 82.648438 240.679688 C 82.675781 240.742188 82.710938 240.804688 82.761719 240.871094 C 82.972656 241.199219 83.347656 241.851562 83.710938 242.027344 C 83.710938 242.027344 86.980469 245.363281 90.152344 245.515625 Z M 90.152344 245.515625 " fill-opacity="1" fill-rule="nonzero"/><path fill="#ff95bb" d="M 53.601562 70.320312 C 49.910156 75.007812 45.597656 75.773438 45.597656 75.773438 C 45.597656 75.773438 45.597656 75.800781 45.601562 75.84375 C 44.511719 76.113281 43.617188 76.988281 43.382812 78.164062 C 43.058594 79.785156 44.109375 81.367188 45.734375 81.6875 C 46.527344 81.847656 47.304688 81.675781 47.9375 81.269531 C 48.015625 81.226562 48.101562 81.167969 48.1875 81.09375 C 48.605469 80.757812 49.460938 80.15625 49.652344 79.632812 C 49.652344 79.632812 53.808594 74.703125 53.601562 70.320312 Z M 53.601562 70.320312 " fill-opacity="1" fill-rule="nonzero"/><path fill="#ff95bb" d="M 285.402344 93.066406 C 285.402344 93.066406 305.695312 99.496094 303.660156 115.402344 C 303.660156 115.402344 300.605469 123.898438 295.230469 122.175781 C 289.855469 120.449219 287.929688 112.363281 293.9375 109.035156 C 299.949219 105.707031 291.628906 94.5 285.402344 93.066406 Z M 285.402344 93.066406 " fill-opacity="1" fill-rule="nonzero"/><path fill="#ff95bb" d="M 276.765625 130.539062 C 276.765625 130.539062 302.25 140.851562 298.03125 161.125 C 298.03125 161.125 293.25 171.761719 286.503906 169 C 279.753906 166.242188 278.085938 155.636719 286.15625 151.957031 C 294.226562 148.273438 284.640625 133.007812 276.765625 130.539062 Z M 276.765625 130.539062 " fill-opacity="1" fill-rule="nonzero"/><path fill="#ff95bb" d="M 106.484375 266.113281 C 106.484375 266.113281 96.292969 247.03125 109.066406 236.914062 C 109.066406 236.914062 117.316406 232.902344 120 237.972656 C 122.683594 243.042969 118.34375 250.289062 111.613281 248.441406 C 104.882812 246.59375 102.972656 260.648438 106.484375 266.109375 Z M 106.484375 266.113281 " fill-opacity="1" fill-rule="nonzero"/><path fill="#ff95bb" d="M 370.515625 208.3125 C 370.515625 208.3125 374.988281 224.089844 363.890625 229.523438 C 363.890625 229.523438 357.132812 231.164062 355.960938 226.976562 C 354.792969 222.785156 359.175781 218.117188 363.863281 220.574219 C 368.554688 223.027344 372.234375 212.925781 370.515625 208.308594 Z M 370.515625 208.3125 " fill-opacity="1" fill-rule="nonzero"/><path fill="#ff95bb" d="M 176.125 195.867188 C 176.125 195.867188 182.40625 223.613281 162.6875 232 C 162.6875 232 150.824219 234.214844 149.1875 226.851562 C 147.546875 219.484375 155.574219 211.804688 163.46875 216.492188 C 171.363281 221.179688 178.675781 204.019531 176.125 195.867188 Z M 176.125 195.867188 " fill-opacity="1" fill-rule="nonzero"/><path fill="#ff95bb" d="M 203.296875 127.101562 C 203.296875 127.101562 186.667969 124.492188 186.367188 111.816406 C 186.367188 111.816406 187.738281 104.8125 192.148438 105.519531 C 196.554688 106.226562 199.023438 112.320312 194.71875 115.636719 C 190.417969 118.953125 198.257812 126.722656 203.296875 127.101562 Z M 203.296875 127.101562 " fill-opacity="1" fill-rule="nonzero"/><path fill="#ff95bb" d="M 286.855469 116.632812 C 286.855469 116.632812 278.132812 144.03125 256.652344 141.25 C 256.652344 141.25 245.179688 137.113281 247.523438 129.855469 C 249.863281 122.597656 260.789062 120.011719 265.269531 128.136719 C 269.753906 136.261719 284.910156 125.042969 286.855469 116.632812 Z M 286.855469 116.632812 " fill-opacity="1" fill-rule="nonzero"/><path fill="#ff95bb" d="M 163.097656 117.4375 C 163.097656 117.4375 139.550781 108.890625 142.722656 90.285156 C 142.722656 90.285156 146.726562 80.445312 152.964844 82.734375 C 159.199219 85.023438 161.070312 94.628906 153.839844 98.246094 C 146.609375 101.863281 155.84375 115.449219 163.097656 117.4375 Z M 163.097656 117.4375 " fill-opacity="1" fill-rule="nonzero"/><path fill="#ff95bb" d="M 83.09375 121.335938 C 83.09375 121.335938 98.609375 120.429688 101.363281 131.808594 C 101.363281 131.808594 101.496094 138.398438 97.378906 138.625 C 93.265625 138.847656 89.84375 133.835938 93.078125 130 C 96.308594 126.164062 87.714844 120.6875 83.09375 121.335938 Z M 83.09375 121.335938 " fill-opacity="1" fill-rule="nonzero"/><path fill="#ff95bb" d="M 94.605469 242.898438 C 94.605469 242.898438 97.332031 221.464844 113.589844 220.605469 C 113.589844 220.605469 122.632812 222.105469 121.886719 227.789062 C 121.140625 233.472656 113.414062 236.867188 109 231.46875 C 104.582031 226.070312 94.902344 236.417969 94.605469 242.898438 Z M 94.605469 242.898438 " fill-opacity="1" fill-rule="nonzero"/><path fill="#ff95bb" d="M 167.582031 225.886719 C 167.582031 225.886719 181.171875 229.53125 180.296875 240.089844 C 180.296875 240.089844 178.53125 245.792969 174.929688 244.8125 C 171.332031 243.832031 169.820312 238.550781 173.691406 236.175781 C 177.558594 233.800781 171.734375 226.648438 167.582031 225.886719 Z M 167.582031 225.886719 " fill-opacity="1" fill-rule="nonzero"/><path fill="#ff95bb" d="M 113.765625 158.015625 C 113.765625 158.015625 128.277344 156.539062 131.324219 167.097656 C 131.324219 167.097656 131.714844 173.269531 127.863281 173.648438 C 124.015625 174.027344 120.601562 169.464844 123.480469 165.738281 C 126.355469 162.007812 118.074219 157.222656 113.765625 158.015625 Z M 113.765625 158.015625 " fill-opacity="1" fill-rule="nonzero"/><path fill="#ff95bb" d="M 321.496094 283.519531 C 321.496094 283.519531 297.40625 265.546875 307.492188 245.277344 C 307.492188 245.277344 315.5 235.355469 321.871094 240.148438 C 328.242188 244.9375 327.0625 256.617188 317.507812 258.269531 C 307.949219 259.921875 313.851562 278.726562 321.496094 283.519531 Z M 321.496094 283.519531 " fill-opacity="1" fill-rule="nonzero"/><path fill="#ff95bb" d="M 240.335938 213.527344 C 240.335938 213.527344 225.605469 198.210938 234.980469 185.234375 C 234.980469 185.234375 241.707031 179.238281 245.597656 183.316406 C 249.492188 187.390625 247.324219 195.402344 240.464844 195.453125 C 233.609375 195.503906 235.554688 209.300781 240.335938 213.527344 Z M 240.335938 213.527344 " fill-opacity="1" fill-rule="nonzero"/><path fill="#ff95bb" d="M 36.078125 140.511719 C 36.078125 140.511719 60.078125 122.984375 76.296875 138.421875 C 76.296875 138.421875 83.339844 148.875 76.953125 153.5 C 70.574219 158.125 59.878906 153.613281 61.101562 144.097656 C 62.324219 134.585938 42.835938 134.6875 36.078125 140.511719 Z M 36.078125 140.511719 " fill-opacity="1" fill-rule="nonzero"/><path fill="#ff95bb" d="M 295.824219 229.191406 C 295.824219 229.191406 282.121094 225.339844 281.613281 220.238281 C 281.105469 215.140625 273.109375 218.742188 274.847656 223.449219 C 276.582031 228.15625 289.847656 234.589844 295.824219 229.191406 Z M 295.824219 229.191406 " fill-opacity="1" fill-rule="nonzero"/><path fill="#ff95bb" d="M 176.5625 143.980469 C 176.5625 143.980469 155.265625 146.34375 151.679688 139.519531 C 148.09375 132.691406 138.96875 142.230469 144.050781 147.816406 C 149.132812 153.402344 171.265625 154.886719 176.558594 143.980469 Z M 176.5625 143.980469 " fill-opacity="1" fill-rule="nonzero"/><path fill="#ff95bb" d="M 169.871094 263.179688 C 169.871094 263.179688 157.28125 252.53125 159.199219 246.914062 C 161.121094 241.296875 150.960938 241.246094 150.527344 247.039062 C 150.09375 252.832031 160.972656 265.992188 169.871094 263.179688 Z M 169.871094 263.179688 " fill-opacity="1" fill-rule="nonzero"/><path fill="#ff95bb" d="M 332 270.066406 C 332 270.066406 344.78125 255.972656 351.179688 258.40625 C 357.582031 260.84375 358.046875 249.128906 351.378906 248.398438 C 344.714844 247.671875 329.109375 259.695312 332 270.0625 Z M 332 270.066406 " fill-opacity="1" fill-rule="nonzero"/><path fill="#ff95bb" d="M 151.664062 122.023438 C 151.664062 122.023438 146.589844 130.722656 143.007812 130.164062 C 139.425781 129.601562 140.46875 135.71875 144 135.367188 C 147.53125 135.011719 154.296875 127.074219 151.664062 122.023438 Z M 151.664062 122.023438 " fill-opacity="1" fill-rule="nonzero"/><path fill="#ff95bb" d="M 132.054688 108.898438 C 132.054688 108.898438 145.273438 113.355469 145.511719 118.371094 C 145.75 123.386719 153.757812 120.261719 152.296875 115.570312 C 150.832031 110.878906 138.175781 103.917969 132.054688 108.898438 Z M 132.054688 108.898438 " fill-opacity="1" fill-rule="nonzero"/><path fill="#ff95bb" d="M 255.007812 290.835938 C 255.007812 290.835938 243.765625 294.464844 241.074219 291.171875 C 238.386719 287.878906 234.507812 294.039062 237.867188 296.496094 C 241.230469 298.953125 253.351562 297.3125 255.007812 290.835938 Z M 255.007812 290.835938 " fill-opacity="1" fill-rule="nonzero"/><path fill="#ff95bb" d="M 303.574219 206.246094 C 303.574219 206.246094 307.160156 216.308594 304.257812 218.832031 C 301.355469 221.355469 307.027344 224.691406 309.15625 221.585938 C 311.289062 218.480469 309.476562 207.566406 303.574219 206.246094 Z M 303.574219 206.246094 " fill-opacity="1" fill-rule="nonzero"/><path fill="#ff95bb" d="M 218.085938 83.222656 C 218.085938 83.222656 213.417969 94.398438 209.058594 94.300781 C 204.699219 94.199219 206.914062 101.328125 211.066406 100.347656 C 215.222656 99.367188 222.027344 88.832031 218.085938 83.222656 Z M 218.085938 83.222656 " fill-opacity="1" fill-rule="nonzero"/><path fill="#ff95bb" d="M 195.191406 35.140625 C 195.191406 35.140625 183.570312 45.425781 178.597656 42.878906 C 173.625 40.332031 172.203125 49.789062 177.539062 50.976562 C 182.878906 52.164062 196.609375 43.808594 195.191406 35.140625 Z M 195.191406 35.140625 " fill-opacity="1" fill-rule="nonzero"/><path fill="#ff95bb" d="M 111.695312 207.34375 C 111.695312 207.34375 125.671875 196.648438 131.089844 199.933594 C 136.511719 203.214844 138.882812 192.632812 132.9375 190.859375 C 126.996094 189.082031 110.792969 197.425781 111.695312 207.34375 Z M 111.695312 207.34375 " fill-opacity="1" fill-rule="nonzero"/><path fill="#ff95bb" d="M 192.832031 156.226562 C 192.832031 156.226562 208.335938 152.519531 211.613281 157.226562 C 214.890625 161.941406 220.746094 154.054688 216.480469 150.398438 C 212.214844 146.742188 195.734375 147.683594 192.832031 156.226562 Z M 192.832031 156.226562 " fill-opacity="1" fill-rule="nonzero"/><path fill="#ff95bb" d="M 372.855469 202.722656 C 372.855469 202.722656 355.015625 211.261719 349.8125 206.402344 C 344.609375 201.539062 339.5625 212.632812 345.6875 215.953125 C 351.816406 219.273438 371.558594 213.835938 372.855469 202.722656 Z M 372.855469 202.722656 " fill-opacity="1" fill-rule="nonzero"/><path fill="#ff95bb" d="M 179.820312 193.523438 C 179.820312 193.523438 183.234375 206.726562 179.257812 209.605469 C 175.277344 212.480469 182.113281 217.367188 185.175781 213.664062 C 188.234375 209.957031 187.171875 195.875 179.820312 193.527344 Z M 179.820312 193.523438 " fill-opacity="1" fill-rule="nonzero"/><path fill="#ff95bb" d="M 151.570312 108.5625 C 151.570312 108.5625 162.773438 103.578125 165.914062 106.679688 C 169.054688 109.78125 172.375 102.996094 168.632812 100.832031 C 164.894531 98.667969 152.5625 101.695312 151.570312 108.5625 Z M 151.570312 108.5625 " fill-opacity="1" fill-rule="nonzero"/><path fill="#ff95bb" d="M 280.796875 202.230469 C 280.796875 202.230469 282.695312 216.683594 292.308594 220.183594 C 301.921875 223.683594 301.25 209.207031 295.769531 209.066406 C 290.285156 208.925781 289.445312 210.597656 289.445312 210.597656 C 289.445312 210.597656 281.136719 203.996094 280.796875 202.230469 Z M 280.796875 202.230469 " fill-opacity="1" fill-rule="nonzero"/><path fill="#ff95bb" d="M 165.902344 243.410156 C 165.902344 243.410156 166.058594 252.339844 171.671875 255.136719 C 177.28125 257.929688 177.871094 249.070312 174.542969 248.605469 C 171.214844 248.140625 170.589844 249.101562 170.589844 249.101562 C 170.589844 249.101562 165.988281 244.507812 165.902344 243.410156 Z M 165.902344 243.410156 " fill-opacity="1" fill-rule="nonzero"/><path fill="#ff95bb" d="M 301.707031 263.140625 C 301.707031 263.140625 295.070312 268.535156 296.277344 274.414062 C 297.484375 280.292969 304.511719 275.507812 302.894531 272.722656 C 301.28125 269.941406 300.183594 270.035156 300.183594 270.035156 C 300.183594 270.035156 300.929688 263.855469 301.707031 263.140625 Z M 301.707031 263.140625 " fill-opacity="1" fill-rule="nonzero"/><path fill="#ff95bb" d="M 312.269531 289.105469 C 312.269531 289.105469 299.550781 290.6875 296.414062 299.121094 C 293.273438 307.554688 306.011719 307.050781 306.167969 302.230469 C 306.328125 297.410156 304.859375 296.660156 304.859375 296.660156 C 304.859375 296.660156 310.714844 289.394531 312.269531 289.105469 Z M 312.269531 289.105469 " fill-opacity="1" fill-rule="nonzero"/><path fill="#ff95bb" d="M 116.753906 195.347656 C 116.753906 195.347656 109.96875 191.707031 105.503906 194.75 C 101.039062 197.792969 107.453125 201.96875 109.207031 199.660156 C 110.957031 197.351562 110.5 196.476562 110.5 196.476562 C 110.5 196.476562 115.890625 194.949219 116.753906 195.347656 Z M 116.753906 195.347656 " fill-opacity="1" fill-rule="nonzero"/><path fill="#ff95bb" d="M 319.746094 147.160156 C 319.746094 147.160156 317.113281 156.136719 321.847656 160.679688 C 326.582031 165.230469 329.9375 156.558594 326.757812 155.054688 C 323.578125 153.546875 322.652344 154.3125 322.652344 154.3125 C 322.652344 154.3125 319.488281 148.285156 319.746094 147.160156 Z M 319.746094 147.160156 " fill-opacity="1" fill-rule="nonzero"/><path fill="#ff95bb" d="M 111.554688 67.574219 C 111.554688 67.574219 103.765625 80.964844 109.578125 90.148438 C 115.390625 99.335938 124.226562 86.722656 119.707031 83.042969 C 115.1875 79.363281 113.394531 80.226562 113.394531 80.226562 C 113.394531 80.226562 110.695312 69.277344 111.554688 67.574219 Z M 111.554688 67.574219 " fill-opacity="1" fill-rule="nonzero"/><path fill="#ff95bb" d="M 110.066406 59.976562 C 110.066406 59.976562 117.609375 74.132812 128.867188 74.027344 C 140.121094 73.917969 133.835938 59.261719 128.132812 61.234375 C 122.429688 63.207031 122.210938 65.257812 122.210938 65.257812 C 122.210938 65.257812 111.097656 61.664062 110.066406 59.976562 Z M 110.066406 59.976562 " fill-opacity="1" fill-rule="nonzero"/><path fill="#ff95bb" d="M 86.398438 99.109375 C 86.398438 99.109375 80.578125 87.835938 71.671875 87.804688 C 62.765625 87.777344 67.589844 99.433594 72.121094 97.929688 C 76.652344 96.429688 76.847656 94.808594 76.847656 94.808594 C 76.847656 94.808594 85.601562 97.761719 86.398438 99.109375 Z M 86.398438 99.109375 " fill-opacity="1" fill-rule="nonzero"/><path fill="#ff95bb" d="M 271.101562 81.511719 C 271.101562 81.511719 268.167969 93.347656 274.585938 99.011719 C 281.007812 104.671875 284.902344 93.191406 280.675781 91.40625 C 276.445312 89.621094 275.28125 90.667969 275.28125 90.667969 C 275.28125 90.667969 270.824219 82.988281 271.101562 81.511719 Z M 271.101562 81.511719 " fill-opacity="1" fill-rule="nonzero"/><path fill="#ff95bb" d="M 142.019531 96.71875 C 142.019531 96.71875 127.710938 92.914062 120.707031 100.589844 C 113.703125 108.261719 127.558594 113.226562 129.8125 108.132812 C 132.066406 103.039062 130.816406 101.605469 130.816406 101.605469 C 130.816406 101.605469 140.230469 96.355469 142.019531 96.71875 Z M 142.019531 96.71875 " fill-opacity="1" fill-rule="nonzero"/><path fill="#ff95bb" d="M 333.652344 193.707031 C 333.652344 193.707031 331.738281 205.140625 338.234375 210.039062 C 344.734375 214.9375 347.585938 203.769531 343.449219 202.386719 C 339.3125 201.003906 338.285156 202.082031 338.285156 202.082031 C 338.285156 202.082031 333.5 195.128906 333.652344 193.707031 Z M 333.652344 193.707031 " fill-opacity="1" fill-rule="nonzero"/><path fill="#ff95bb" d="M 276.628906 251.652344 C 276.628906 251.652344 278.96875 237.03125 270.621094 230.835938 C 262.277344 224.636719 258.734375 238.929688 264.03125 240.660156 C 269.328125 242.386719 270.632812 241 270.632812 241 C 270.632812 241 276.808594 249.835938 276.628906 251.65625 Z M 276.628906 251.652344 " fill-opacity="1" fill-rule="nonzero"/><path fill="#ff95bb" d="M 276.058594 241.878906 C 276.058594 241.878906 283.726562 245.175781 288.269531 241.472656 C 292.808594 237.765625 285.484375 233.855469 283.808594 236.511719 C 282.132812 239.167969 282.710938 240.070312 282.710938 240.070312 C 282.710938 240.070312 277.023438 242.226562 276.058594 241.878906 Z M 276.058594 241.878906 " fill-opacity="1" fill-rule="nonzero"/><path fill="#ff95bb" d="M 100.484375 119.253906 C 100.484375 119.253906 104.703125 130.726562 113.210938 131.816406 C 121.71875 132.910156 118.5 121.191406 113.988281 122.085938 C 109.476562 122.980469 109.101562 124.503906 109.101562 124.503906 C 109.101562 124.503906 101.085938 120.632812 100.484375 119.253906 Z M 100.484375 119.253906 " fill-opacity="1" fill-rule="nonzero"/><path fill="#ff95bb" d="M 186.40625 276.339844 C 186.40625 276.339844 180.433594 272.3125 180.441406 270.203125 C 180.453125 268.089844 181.996094 266.011719 184.148438 266.976562 C 186.300781 267.945312 185.894531 270.890625 185.375 273.453125 C 184.855469 276.019531 186.40625 276.339844 186.40625 276.339844 Z M 186.40625 276.339844 " fill-opacity="1" fill-rule="nonzero"/><path fill="#ff95bb" d="M 133.527344 152.292969 C 133.527344 152.292969 146.660156 155.46875 148.023438 159.1875 C 149.386719 162.90625 148.027344 167.574219 143.613281 167.277344 C 139.199219 166.984375 137.988281 161.539062 137.226562 156.691406 C 136.460938 151.84375 133.527344 152.292969 133.527344 152.292969 Z M 133.527344 152.292969 " fill-opacity="1" fill-rule="nonzero"/><path fill="#ff95bb" d="M 268.9375 103.675781 C 268.9375 103.675781 278.539062 111.566406 278.175781 115.191406 C 277.816406 118.816406 274.820312 122.136719 271.285156 120.121094 C 267.746094 118.109375 268.925781 113.121094 270.234375 108.800781 C 271.542969 104.480469 268.9375 103.675781 268.9375 103.675781 Z M 268.9375 103.675781 " fill-opacity="1" fill-rule="nonzero"/><path fill="#ff95bb" d="M 211.144531 310.371094 C 211.144531 310.371094 203.035156 300.84375 204.039062 297.316406 C 205.039062 293.789062 208.597656 291.035156 211.746094 293.65625 C 214.890625 296.28125 212.835938 301.015625 210.769531 305.0625 C 208.703125 309.109375 211.144531 310.371094 211.144531 310.371094 Z M 211.144531 310.371094 " fill-opacity="1" fill-rule="nonzero"/><path fill="#ff95bb" d="M 202.09375 72.875 C 202.09375 72.875 199.351562 64.5 200.949219 62.464844 C 202.542969 60.433594 205.597656 59.585938 206.949219 62.136719 C 208.300781 64.6875 205.695312 67.226562 203.269531 69.3125 C 200.839844 71.402344 202.09375 72.875 202.09375 72.875 Z M 202.09375 72.875 " fill-opacity="1" fill-rule="nonzero"/><path fill="#ff95bb" d="M 103.546875 68.957031 C 103.546875 68.957031 102.574219 61.949219 104.125 60.570312 C 105.675781 59.191406 108.210938 58.960938 108.914062 61.167969 C 109.617188 63.375 107.199219 65.007812 104.980469 66.3125 C 102.765625 67.613281 103.546875 68.957031 103.546875 68.957031 Z M 103.546875 68.957031 " fill-opacity="1" fill-rule="nonzero"/><path fill="#ff95bb" d="M 344.726562 174.328125 C 344.726562 174.328125 352.125 168.601562 354.726562 169.472656 C 357.328125 170.34375 359.261719 173.097656 357.191406 175.359375 C 355.121094 177.617188 351.65625 175.917969 348.703125 174.230469 C 345.753906 172.546875 344.726562 174.328125 344.726562 174.328125 Z M 344.726562 174.328125 " fill-opacity="1" fill-rule="nonzero"/><path fill="#ff95bb" d="M 267.207031 264.851562 C 267.207031 264.851562 277.253906 273.871094 276.691406 277.789062 C 276.128906 281.707031 272.71875 285.167969 268.976562 282.816406 C 265.230469 280.464844 266.746094 275.101562 268.371094 270.476562 C 269.996094 265.847656 267.207031 264.851562 267.207031 264.851562 Z M 267.207031 264.851562 " fill-opacity="1" fill-rule="nonzero"/><path fill="#ff95bb" d="M 279.300781 285.761719 C 279.300781 285.761719 273.796875 297.734375 269.984375 298.34375 C 266.167969 298.949219 261.957031 296.773438 263.066406 292.601562 C 264.179688 288.433594 269.613281 288.296875 274.398438 288.476562 C 279.179688 288.652344 279.300781 285.761719 279.300781 285.761719 Z M 279.300781 285.761719 " fill-opacity="1" fill-rule="nonzero"/><path fill="#ff95bb" d="M 273.144531 84.921875 C 273.144531 84.921875 277.445312 73.433594 280.949219 72.613281 C 284.449219 71.789062 288.507812 73.527344 287.757812 77.472656 C 287.007812 81.421875 281.96875 81.914062 277.515625 82.070312 C 273.0625 82.230469 273.144531 84.921875 273.144531 84.921875 Z M 273.144531 84.921875 " fill-opacity="1" fill-rule="nonzero"/><path fill="#ff95bb" d="M 249.796875 78.539062 C 249.796875 78.539062 246.441406 89.242188 243.285156 90.167969 C 240.128906 91.09375 236.339844 89.707031 236.828125 86.066406 C 237.316406 82.425781 241.890625 81.726562 245.949219 81.359375 C 250.007812 80.996094 249.796875 78.539062 249.796875 78.539062 Z M 249.796875 78.539062 " fill-opacity="1" fill-rule="nonzero"/><path fill="#ff95bb" d="M 132.617188 156.773438 C 132.617188 156.773438 123.277344 157.996094 121.457031 155.917969 C 119.636719 153.835938 119.355469 150.460938 122.300781 149.546875 C 125.246094 148.632812 127.398438 151.871094 129.109375 154.835938 C 130.820312 157.800781 132.617188 156.773438 132.617188 156.773438 Z M 132.617188 156.773438 " fill-opacity="1" fill-rule="nonzero"/><path fill="#ff95bb" d="M 202.390625 88.140625 C 202.390625 88.140625 205.683594 76.945312 208.949219 75.921875 C 212.214844 74.902344 216.183594 76.269531 215.746094 80.070312 C 215.304688 83.867188 210.558594 84.679688 206.339844 85.136719 C 202.125 85.59375 202.390625 88.140625 202.390625 88.140625 Z M 202.390625 88.140625 " fill-opacity="1" fill-rule="nonzero"/><path fill="#ff95bb" d="M 198.300781 211.132812 C 198.300781 211.132812 196.894531 219.9375 194.515625 221.027344 C 192.140625 222.117188 189 221.464844 188.964844 218.546875 C 188.929688 215.625 192.445312 214.546875 195.597656 213.792969 C 198.746094 213.039062 198.300781 211.132812 198.300781 211.132812 Z M 198.300781 211.132812 " fill-opacity="1" fill-rule="nonzero"/><path fill="#ff95bb" d="M 286.738281 141.113281 C 286.738281 141.113281 279.613281 152.433594 275.691406 152.539062 C 271.773438 152.644531 267.824219 149.898438 269.496094 145.847656 C 271.164062 141.796875 276.652344 142.382812 281.441406 143.195312 C 286.234375 144.007812 286.738281 141.113281 286.738281 141.113281 Z M 286.738281 141.113281 " fill-opacity="1" fill-rule="nonzero"/><path fill="#ff95bb" d="M 200.914062 128.394531 C 200.914062 128.394531 194.332031 134.847656 194.128906 137.589844 C 193.925781 140.328125 195.765625 147.828125 201.523438 147.976562 C 207.285156 148.125 206.753906 141.746094 204.210938 137.347656 C 201.671875 132.949219 200.914062 128.394531 200.914062 128.394531 Z M 200.914062 128.394531 " fill-opacity="1" fill-rule="nonzero"/><path fill="#ff95bb" d="M 65.800781 118.265625 C 65.800781 118.265625 56.398438 120.765625 54.785156 123.179688 C 53.171875 125.589844 50.957031 133.4375 56.171875 136.570312 C 61.386719 139.703125 64.214844 133.570312 64.171875 128.207031 C 64.128906 122.84375 65.800781 118.265625 65.800781 118.265625 Z M 65.800781 118.265625 " fill-opacity="1" fill-rule="nonzero"/><path fill="#ff95bb" d="M 65 195.199219 C 65 195.199219 58.648438 198.496094 57.875 200.488281 C 57.101562 202.476562 56.765625 208.464844 61.011719 209.878906 C 65.257812 211.292969 66.308594 206.4375 65.417969 202.59375 C 64.53125 198.75 65 195.199219 65 195.199219 Z M 65 195.199219 " fill-opacity="1" fill-rule="nonzero"/><path fill="#ff95bb" d="M 246.335938 120.71875 C 246.335938 120.71875 255.035156 118.726562 256.59375 116.570312 C 258.148438 114.410156 260.425781 107.285156 255.746094 104.246094 C 251.066406 101.207031 248.277344 106.742188 248.144531 111.660156 C 248.015625 116.578125 246.335938 120.71875 246.335938 120.71875 Z M 246.335938 120.71875 " fill-opacity="1" fill-rule="nonzero"/><path fill="#ff95bb" d="M 160.425781 61.328125 C 160.425781 61.328125 156.285156 65.074219 156.09375 66.730469 C 155.90625 68.386719 156.839844 72.96875 160.324219 73.199219 C 163.804688 73.425781 163.636719 69.550781 162.207031 66.828125 C 160.773438 64.101562 160.425781 61.328125 160.425781 61.328125 Z M 160.425781 61.328125 " fill-opacity="1" fill-rule="nonzero"/><path fill="#ff95bb" d="M 369.058594 196.070312 C 369.058594 196.070312 371.035156 190.9375 370.464844 189.402344 C 369.898438 187.863281 367.042969 184.25 363.882812 185.597656 C 360.722656 186.941406 362.585938 190.269531 365.054688 192.027344 C 367.523438 193.785156 369.058594 196.070312 369.058594 196.070312 Z M 369.058594 196.070312 " fill-opacity="1" fill-rule="nonzero"/><path fill="#ff95bb" d="M 28.589844 93.472656 C 28.589844 93.472656 33.5625 95.75 35.125 95.277344 C 36.6875 94.808594 40.457031 92.195312 39.3125 88.972656 C 38.171875 85.746094 34.75 87.398438 32.851562 89.742188 C 30.953125 92.082031 28.589844 93.472656 28.589844 93.472656 Z M 28.589844 93.472656 " fill-opacity="1" fill-rule="nonzero"/><path fill="#ff95bb" d="M 295.253906 66.386719 C 295.253906 66.386719 291.988281 74.480469 292.847656 76.9375 C 293.710938 79.394531 298.148438 85.207031 303.207031 83.148438 C 308.261719 81.09375 305.382812 75.761719 301.507812 72.90625 C 297.636719 70.050781 295.253906 66.386719 295.253906 66.386719 Z M 295.253906 66.386719 " fill-opacity="1" fill-rule="nonzero"/><path fill="#ff95bb" d="M 280.128906 252.242188 C 280.128906 252.242188 275.222656 260.5625 275.765625 263.390625 C 276.304688 266.21875 280.207031 273.308594 286.074219 271.890625 C 291.941406 270.472656 289.667969 264.164062 285.902344 260.402344 C 282.132812 256.644531 280.128906 252.242188 280.128906 252.242188 Z M 280.128906 252.242188 " fill-opacity="1" fill-rule="nonzero"/><path fill="#ff95bb" d="M 366.109375 246.265625 C 366.109375 246.265625 363.402344 236.191406 360.8125 234.46875 C 358.222656 232.746094 349.808594 230.394531 346.464844 235.992188 C 343.121094 241.589844 349.703125 244.605469 355.453125 244.542969 C 361.199219 244.484375 366.109375 246.265625 366.109375 246.265625 Z M 366.109375 246.265625 " fill-opacity="1" fill-rule="nonzero"/><path fill="#ff95bb" d="M 294.546875 265.1875 C 294.546875 265.1875 298.992188 257.570312 298.488281 254.992188 C 297.984375 252.410156 294.394531 245.953125 289.039062 247.273438 C 283.6875 248.589844 285.789062 254.339844 289.246094 257.757812 C 292.699219 261.175781 294.546875 265.1875 294.546875 265.1875 Z M 294.546875 265.1875 " fill-opacity="1" fill-rule="nonzero"/><path fill="#ff95bb" d="M 289.472656 68.015625 C 289.472656 68.015625 288.710938 62.777344 287.507812 61.753906 C 286.304688 60.730469 282.203125 59.042969 280.183594 61.664062 C 278.164062 64.285156 281.300781 66.199219 284.203125 66.511719 C 287.105469 66.824219 289.472656 68.015625 289.472656 68.015625 Z M 289.472656 68.015625 " fill-opacity="1" fill-rule="nonzero"/><path fill="#ff95bb" d="M 219.308594 191.777344 C 219.308594 191.777344 223.960938 193.625 225.367188 193.121094 C 226.773438 192.617188 230.089844 190.054688 228.894531 187.160156 C 227.699219 184.269531 224.652344 185.9375 223.027344 188.167969 C 221.402344 190.398438 219.308594 191.777344 219.308594 191.777344 Z M 219.308594 191.777344 " fill-opacity="1" fill-rule="nonzero"/><path fill="#ff95bb" d="M 343.664062 130.378906 C 343.664062 130.378906 338.640625 120.925781 335.65625 119.796875 C 332.667969 118.667969 323.710938 118.253906 321.652344 124.621094 C 319.59375 130.992188 326.871094 132.496094 332.609375 131.109375 C 338.34375 129.726562 343.664062 130.378906 343.664062 130.378906 Z M 343.664062 130.378906 " fill-opacity="1" fill-rule="nonzero"/><path fill="#ff95bb" d="M 285.125 111.410156 C 285.125 111.410156 288.929688 108.3125 289.171875 106.871094 C 289.414062 105.425781 288.804688 101.363281 285.761719 101.003906 C 282.714844 100.644531 282.683594 104.046875 283.816406 106.503906 C 284.945312 108.957031 285.125 111.410156 285.125 111.410156 Z M 285.125 111.410156 " fill-opacity="1" fill-rule="nonzero"/><path fill="#ff95bb" d="M 285.339844 157.808594 C 285.339844 157.808594 276.117188 160.875 271.488281 154.355469 C 266.863281 147.832031 262.96875 151.179688 263.183594 153.0625 C 263.402344 154.949219 273.613281 165.394531 285.339844 157.808594 Z M 285.339844 157.808594 " fill-opacity="1" fill-rule="nonzero"/><path fill="#ff95bb" d="M 156.074219 175.410156 C 156.074219 175.410156 149.234375 178.101562 145.472656 173.371094 C 141.710938 168.636719 138.910156 171.320312 139.148438 172.738281 C 139.390625 174.152344 147.53125 181.617188 156.074219 175.410156 Z M 156.074219 175.410156 " fill-opacity="1" fill-rule="nonzero"/><path fill="#ff95bb" d="M 248.851562 269.730469 C 248.851562 269.730469 254.234375 262.183594 261.464844 264.601562 C 268.695312 267.023438 269.8125 262.257812 268.585938 260.925781 C 267.359375 259.597656 253.621094 257.292969 248.851562 269.730469 Z M 248.851562 269.730469 " fill-opacity="1" fill-rule="nonzero"/><path fill="#ff95bb" d="M 105.875 76.488281 C 105.875 76.488281 96.746094 66.855469 102.132812 57.363281 C 107.515625 47.871094 101.128906 44.988281 98.921875 46.347656 C 96.714844 47.707031 89.707031 66.375 105.875 76.488281 Z M 105.875 76.488281 " fill-opacity="1" fill-rule="nonzero"/><path fill="#ff95bb" d="M 226.132812 77.957031 C 226.132812 77.957031 232.222656 74.0625 236.75 77.917969 C 241.273438 81.773438 243.472656 78.648438 242.972656 77.332031 C 242.46875 76.011719 233.203125 70.347656 226.132812 77.957031 Z M 226.132812 77.957031 " fill-opacity="1" fill-rule="nonzero"/><path fill="#ff95bb" d="M 191.238281 203.226562 C 191.238281 203.226562 197.59375 201.695312 200.328125 206.328125 C 203.058594 210.960938 205.859375 208.9375 205.820312 207.664062 C 205.78125 206.386719 199.527344 198.804688 191.238281 203.226562 Z M 191.238281 203.226562 " fill-opacity="1" fill-rule="nonzero"/><path fill="#ff95bb" d="M 332.316406 138.511719 C 332.316406 138.511719 338.519531 135.601562 342.300781 139.785156 C 346.078125 143.96875 348.53125 141.304688 348.222656 140 C 347.914062 138.699219 339.902344 132.230469 332.316406 138.511719 Z M 332.316406 138.511719 " fill-opacity="1" fill-rule="nonzero"/><path fill="#ff95bb" d="M 227.648438 231.332031 C 227.648438 231.332031 237.824219 227.488281 243.292969 234.570312 C 248.757812 241.652344 252.964844 237.738281 252.636719 235.640625 C 252.308594 233.542969 240.417969 222.320312 227.648438 231.332031 Z M 227.648438 231.332031 " fill-opacity="1" fill-rule="nonzero"/><path fill="#ff95bb" d="M 237.304688 113.644531 C 237.304688 113.644531 238.914062 100.511719 249.628906 98.625 C 260.347656 96.738281 258.503906 89.996094 256.058594 89.164062 C 253.613281 88.332031 234.816406 94.796875 237.304688 113.644531 Z M 237.304688 113.644531 " fill-opacity="1" fill-rule="nonzero"/><path fill="#ff95bb" d="M 210.042969 200.472656 C 210.042969 200.472656 207.457031 190.777344 214.464844 186.414062 C 221.472656 182.054688 218.269531 177.832031 216.3125 177.9375 C 214.355469 178.042969 202.957031 187.914062 210.042969 200.472656 Z M 210.042969 200.472656 " fill-opacity="1" fill-rule="nonzero"/><path fill="#ff95bb" d="M 258.609375 285.191406 C 258.609375 285.191406 253.121094 288.667969 249.066406 285.183594 C 245.015625 281.699219 243.027344 284.496094 243.472656 285.683594 C 243.917969 286.871094 252.222656 292.003906 258.609375 285.191406 Z M 258.609375 285.191406 " fill-opacity="1" fill-rule="nonzero"/><path fill="#ff95bb" d="M 28.9375 130.46875 C 28.9375 130.46875 34.054688 120.632812 43.023438 122.296875 C 51.988281 123.960938 52.523438 118.128906 50.847656 116.753906 C 49.171875 115.386719 32.515625 114.941406 28.9375 130.46875 Z M 28.9375 130.46875 " fill-opacity="1" fill-rule="nonzero"/><path fill="#ff95bb" d="M 258.824219 91.914062 C 258.824219 91.914062 265.558594 97.808594 262.539062 104.519531 C 259.515625 111.230469 263.988281 112.765625 265.382812 111.714844 C 266.777344 110.664062 270.3125 97.6875 258.824219 91.914062 Z M 258.824219 91.914062 " fill-opacity="1" fill-rule="nonzero"/><path fill="#ff95bb" d="M 179.152344 75.972656 C 179.152344 75.972656 180.59375 85.839844 173.179688 89.34375 C 165.765625 92.847656 168.445312 97.382812 170.386719 97.5 C 172.332031 97.621094 184.710938 89.179688 179.152344 75.972656 Z M 179.152344 75.972656 " fill-opacity="1" fill-rule="nonzero"/><path fill="#ff95bb" d="M 187.8125 32.875 C 187.8125 32.875 183.285156 37.164062 178.828125 34.632812 C 174.367188 32.101562 173.015625 35.101562 173.652344 36.140625 C 174.292969 37.175781 183.058594 40.46875 187.8125 32.875 Z M 187.8125 32.875 " fill-opacity="1" fill-rule="nonzero"/><path fill="#ff95bb" d="M 277.316406 310.882812 C 277.316406 310.882812 271.414062 313.886719 267.636719 309.964844 C 263.855469 306.042969 261.574219 308.691406 261.910156 309.941406 C 262.25 311.1875 270.1875 317.183594 277.316406 310.882812 Z M 277.316406 310.882812 " fill-opacity="1" fill-rule="nonzero"/><path fill="#ff95bb" d="M 316.558594 129.347656 C 316.558594 129.347656 312.472656 122.914062 316.550781 118.160156 C 320.632812 113.398438 317.347656 111.074219 315.957031 111.597656 C 314.5625 112.121094 308.558594 121.871094 316.558594 129.347656 Z M 316.558594 129.347656 " fill-opacity="1" fill-rule="nonzero"/><path fill="#ff95bb" d="M 326.667969 265.816406 C 326.667969 265.816406 325.214844 273.472656 318.84375 274.164062 C 312.46875 274.855469 313.289062 278.886719 314.695312 279.472656 C 316.097656 280.058594 327.398438 276.988281 326.667969 265.816406 Z M 326.667969 265.816406 " fill-opacity="1" fill-rule="nonzero"/><path fill="#ff95bb" d="M 26.753906 191.710938 C 26.753906 191.710938 33.632812 192.835938 34.398438 198.515625 C 35.164062 204.199219 38.75 203.371094 39.242188 202.101562 C 39.730469 200.832031 36.726562 190.796875 26.753906 191.710938 Z M 26.753906 191.710938 " fill-opacity="1" fill-rule="nonzero"/><path fill="#ff95bb" d="M 192.554688 174.734375 C 192.554688 174.734375 180.78125 171.484375 180.515625 161.441406 C 180.246094 151.398438 173.839844 152.164062 172.75 154.28125 C 171.65625 156.402344 175.007812 174.449219 192.554688 174.738281 Z M 192.554688 174.734375 " fill-opacity="1" fill-rule="nonzero"/><path fill="#ff95bb" d="M 64.613281 140.960938 C 64.613281 140.960938 60.683594 146.59375 55.308594 144.855469 C 49.929688 143.117188 49.136719 146.660156 50.054688 147.636719 C 50.976562 148.609375 61.175781 150.214844 64.613281 140.960938 Z M 64.613281 140.960938 " fill-opacity="1" fill-rule="nonzero"/><path fill="#ff95bb" d="M 345.730469 175.277344 C 345.730469 175.277344 352.960938 179.449219 351.414062 186.136719 C 349.867188 192.828125 354.238281 193.417969 355.324219 192.207031 C 356.410156 190.992188 357.289062 178.476562 345.730469 175.277344 Z M 345.730469 175.277344 " fill-opacity="1" fill-rule="nonzero"/><path fill="#ff95bb" d="M 221.984375 74.496094 C 221.984375 74.496094 229.464844 81.683594 225.605469 89.292969 C 221.742188 96.902344 226.839844 98.921875 228.511719 97.78125 C 230.183594 96.636719 234.976562 81.800781 221.984375 74.492188 Z M 221.984375 74.496094 " fill-opacity="1" fill-rule="nonzero"/><path fill="#ff95bb" d="M 96.132812 175.960938 C 96.132812 175.960938 102.167969 168.539062 109.453125 171.507812 C 116.742188 174.476562 118.207031 169.644531 117.03125 168.191406 C 115.855469 166.742188 101.859375 163.464844 96.132812 175.960938 Z M 96.132812 175.960938 " fill-opacity="1" fill-rule="nonzero"/><path fill="#ff95bb" d="M 222.964844 263.398438 C 222.964844 263.398438 217.335938 257.996094 220.234375 252.269531 C 223.136719 246.546875 219.304688 245.03125 218.046875 245.890625 C 216.789062 246.75 213.191406 257.90625 222.964844 263.398438 Z M 222.964844 263.398438 " fill-opacity="1" fill-rule="nonzero"/><path fill="#ff95bb" d="M 93.894531 180.851562 C 93.894531 180.851562 88.09375 172.039062 93.632812 165.363281 C 99.171875 158.683594 94.574219 155.535156 92.65625 156.292969 C 90.742188 157.046875 82.652344 170.683594 93.894531 180.851562 Z M 93.894531 180.851562 " fill-opacity="1" fill-rule="nonzero"/><path fill="#ff95bb" d="M 99.160156 177.113281 C 99.160156 177.113281 109.613281 176.519531 112.585938 184.605469 C 115.558594 192.6875 120.550781 190.304688 120.859375 188.285156 C 121.164062 186.265625 113.488281 172.527344 99.160156 177.113281 Z M 99.160156 177.113281 " fill-opacity="1" fill-rule="nonzero"/><path fill="#ff95bb" d="M 141.226562 216.695312 C 141.226562 216.695312 134.683594 215.167969 134.316406 209.652344 C 133.953125 204.140625 130.449219 204.699219 129.894531 205.890625 C 129.339844 207.078125 131.574219 216.921875 141.226562 216.695312 Z M 141.226562 216.695312 " fill-opacity="1" fill-rule="nonzero"/><path fill="#ff95bb" d="M 57.953125 125.917969 C 57.953125 125.917969 59.972656 112.804688 70.773438 111.246094 C 81.578125 109.6875 79.941406 102.875 77.515625 101.960938 C 75.089844 101.050781 56.042969 106.949219 57.953125 125.917969 Z M 57.953125 125.917969 " fill-opacity="1" fill-rule="nonzero"/><path fill="#ff95bb" d="M 44.386719 143.171875 C 44.386719 143.171875 45.003906 151.835938 38.335938 154.402344 C 31.664062 156.972656 33.703125 161.082031 35.382812 161.3125 C 37.0625 161.539062 48.367188 155.003906 44.386719 143.171875 Z M 44.386719 143.171875 " fill-opacity="1" fill-rule="nonzero"/><path fill="#ff95bb" d="M 267.421875 195.730469 C 267.421875 195.730469 268.960938 184.4375 269.839844 182.234375 C 270.714844 180.027344 278.726562 180.929688 275.449219 186.898438 C 272.171875 192.867188 269.371094 190.011719 267.421875 195.730469 Z M 267.421875 195.730469 " fill-opacity="1" fill-rule="nonzero"/><path fill="#ff95bb" d="M 291.222656 174.65625 C 291.222656 174.65625 285.582031 184.703125 283.941406 186.449219 C 282.300781 188.195312 275.105469 184.375 280.398438 179.980469 C 285.695312 175.589844 287.269531 179.308594 291.222656 174.65625 Z M 291.222656 174.65625 " fill-opacity="1" fill-rule="nonzero"/><path fill="#ff95bb" d="M 229.359375 197.292969 C 229.359375 197.292969 226.097656 208.039062 224.902344 210.042969 C 223.703125 212.050781 216.050781 209.925781 220.171875 204.632812 C 224.289062 199.339844 226.570312 202.550781 229.359375 197.292969 Z M 229.359375 197.292969 " fill-opacity="1" fill-rule="nonzero"/><path fill="#ff95bb" d="M 253.59375 231.078125 C 253.59375 231.078125 240.363281 221.152344 238.1875 218.484375 C 236.011719 215.816406 242.808594 206.296875 248.0625 214.664062 C 253.3125 223.03125 247.71875 224.570312 253.59375 231.078125 Z M 253.59375 231.078125 " fill-opacity="1" fill-rule="nonzero"/><path fill="#ff95bb" d="M 186.855469 242.941406 C 186.855469 242.941406 192.15625 254.65625 192.640625 257.285156 C 193.125 259.914062 184.929688 263.859375 184.484375 256.191406 C 184.035156 248.527344 188.425781 249.574219 186.855469 242.941406 Z M 186.855469 242.941406 " fill-opacity="1" fill-rule="nonzero"/><path fill="#ff95bb" d="M -0.0078125 125.824219 C -0.0078125 125.824219 21.714844 119.449219 26.421875 119.246094 C 31.125 119.046875 35.996094 134.300781 22.519531 133.203125 C 9.042969 132.109375 11.941406 124.710938 -0.0078125 125.824219 Z M -0.0078125 125.824219 " fill-opacity="1" fill-rule="nonzero"/><path fill="#ff95bb" d="M 171.652344 130.195312 C 171.652344 130.195312 189.101562 124.214844 192.921875 123.882812 C 196.746094 123.546875 201.265625 135.78125 190.257812 135.382812 C 179.25 134.980469 181.335938 128.855469 171.652344 130.195312 Z M 171.652344 130.195312 " fill-opacity="1" fill-rule="nonzero"/><path fill="#ff95bb" d="M 37.398438 174.726562 C 37.398438 174.726562 31.332031 185.085938 29.589844 186.875 C 27.84375 188.664062 20.417969 184.546875 26.019531 180.070312 C 31.621094 175.59375 33.191406 179.5 37.398438 174.726562 Z M 37.398438 174.726562 " fill-opacity="1" fill-rule="nonzero"/><path fill="#ff95bb" d="M 314.90625 197.710938 C 314.90625 197.710938 330.773438 204.175781 333.652344 206.277344 C 336.53125 208.375 332.226562 219.703125 324.761719 212.699219 C 317.300781 205.695312 322.503906 202.683594 314.90625 197.710938 Z M 314.90625 197.710938 " fill-opacity="1" fill-rule="nonzero"/><path fill="#ff95bb" d="M 80.585938 145.480469 C 80.585938 145.480469 98.292969 141.675781 102.058594 141.792969 C 105.824219 141.910156 108.8125 154.367188 98.125 152.699219 C 87.4375 151.027344 90.183594 145.300781 80.585938 145.480469 Z M 80.585938 145.480469 " fill-opacity="1" fill-rule="nonzero"/><path fill="#ff95bb" d="M 51.234375 124.046875 C 51.234375 124.046875 42.933594 136.527344 40.632812 138.632812 C 38.332031 140.734375 29.367188 135.074219 36.667969 129.894531 C 43.972656 124.714844 45.648438 129.695312 51.234375 124.046875 Z M 51.234375 124.046875 " fill-opacity="1" fill-rule="nonzero"/><path fill="#ff95bb" d="M 173.664062 203.933594 C 173.664062 203.933594 167.066406 214.097656 165.226562 215.820312 C 163.386719 217.542969 156.089844 213.050781 161.945312 208.792969 C 167.796875 204.539062 169.203125 208.550781 173.664062 203.933594 Z M 173.664062 203.933594 " fill-opacity="1" fill-rule="nonzero"/><path fill="#ff95bb" d="M 334.222656 106.675781 C 334.222656 106.675781 320.710938 105.894531 318.023438 105.0625 C 315.332031 104.230469 315.65625 94.660156 323.023438 97.988281 C 330.390625 101.316406 327.273438 104.898438 334.222656 106.675781 Z M 334.222656 106.675781 " fill-opacity="1" fill-rule="nonzero"/><path fill="#ff95bb" d="M 263.683594 81.503906 C 263.683594 81.503906 245.996094 72.808594 242.859375 70.167969 C 239.722656 67.527344 245.578125 54.875 253.578125 63.507812 C 261.578125 72.144531 255.367188 75.183594 263.683594 81.503906 Z M 263.683594 81.503906 " fill-opacity="1" fill-rule="nonzero"/><path fill="#ff95bb" d="M 298.519531 142.535156 C 298.519531 142.535156 312.585938 154.207031 314.839844 157.265625 C 317.097656 160.328125 309.082031 170.46875 303.738281 160.949219 C 298.394531 151.429688 304.652344 150.035156 298.519531 142.535156 Z M 298.519531 142.535156 " fill-opacity="1" fill-rule="nonzero"/><path fill="#ff95bb" d="M 112.015625 213.511719 C 112.015625 213.511719 118.320312 212.628906 119.25 215.472656 C 120.179688 218.316406 125.847656 220.296875 127.382812 215.367188 C 128.917969 210.4375 117.828125 204.964844 112.015625 213.511719 Z M 112.015625 213.511719 " fill-opacity="1" fill-rule="nonzero"/><path fill="#ff95bb" d="M 203.589844 122.167969 C 203.589844 122.167969 210.007812 128.910156 207.417969 132.441406 C 204.832031 135.96875 207.300781 144.394531 214.46875 142.023438 C 221.640625 139.648438 218.703125 121.800781 203.589844 122.167969 Z M 203.589844 122.167969 " fill-opacity="1" fill-rule="nonzero"/><path fill="#ff95bb" d="M 307.570312 278.523438 C 307.570312 278.523438 312.1875 283.21875 310.398438 285.746094 C 308.609375 288.273438 310.453125 294.207031 315.496094 292.441406 C 320.539062 290.679688 318.253906 278.089844 307.570312 278.523438 Z M 307.570312 278.523438 " fill-opacity="1" fill-rule="nonzero"/><path fill="#ff95bb" d="M 73.625 214.824219 C 73.625 214.824219 79.808594 221.089844 77.421875 224.472656 C 75.03125 227.851562 77.511719 235.78125 84.25 233.414062 C 90.992188 231.042969 87.90625 214.21875 73.625 214.824219 Z M 73.625 214.824219 " fill-opacity="1" fill-rule="nonzero"/><path fill="#ff95bb" d="M 158.171875 204.527344 C 158.171875 204.527344 161.90625 200.785156 163.949219 202.203125 C 165.988281 203.621094 170.738281 202.097656 169.285156 198.0625 C 167.832031 194.027344 157.746094 195.953125 158.171875 204.527344 Z M 158.171875 204.527344 " fill-opacity="1" fill-rule="nonzero"/><path fill="#ff95bb" d="M 211.183594 284.207031 C 211.183594 284.207031 208.886719 278.414062 211.375 276.871094 C 213.867188 275.328125 214.441406 269.476562 209.394531 269.15625 C 204.351562 268.835938 201.710938 280.652344 211.183594 284.207031 Z M 211.183594 284.207031 " fill-opacity="1" fill-rule="nonzero"/><path fill="#ff95bb" d="M 110.398438 257.851562 C 110.398438 257.851562 114.886719 257.550781 115.398438 259.605469 C 115.910156 261.660156 119.800781 263.347656 121.140625 259.949219 C 122.476562 256.554688 114.9375 252.125 110.398438 257.851562 Z M 110.398438 257.851562 " fill-opacity="1" fill-rule="nonzero"/><path fill="#ff95bb" d="M 352.359375 218.605469 C 352.359375 218.605469 345.820312 223.351562 343.082031 220.71875 C 340.347656 218.085938 332.816406 219.242188 334.03125 225.679688 C 335.25 232.121094 350.9375 231.644531 352.359375 218.605469 Z M 352.359375 218.605469 " fill-opacity="1" fill-rule="nonzero"/><path fill="#ff95bb" d="M 19.15625 104.722656 C 19.15625 104.722656 19.929688 109.339844 17.855469 110.082031 C 15.78125 110.824219 14.433594 115.03125 18.089844 116.0625 C 21.75 117.09375 25.554688 108.832031 19.15625 104.722656 Z M 19.15625 104.722656 " fill-opacity="1" fill-rule="nonzero"/><path fill="#ff95bb" d="M 271.199219 306.398438 C 271.199219 306.398438 279.414062 303.6875 281.347656 307.265625 C 283.28125 310.84375 291.335938 312.121094 292.195312 305.15625 C 293.050781 298.191406 276.902344 293.5625 271.199219 306.398438 Z M 271.199219 306.398438 " fill-opacity="1" fill-rule="nonzero"/><path fill="#ff95bb" d="M 273.085938 62.835938 C 273.085938 62.835938 270.746094 66.796875 268.71875 66.042969 C 266.691406 65.289062 263.019531 67.597656 265.113281 70.6875 C 267.210938 73.777344 275.300781 69.972656 273.085938 62.835938 Z M 273.085938 62.835938 " fill-opacity="1" fill-rule="nonzero"/><path fill="#ff95bb" d="M 294.332031 198.800781 C 294.332031 198.800781 286.101562 199.402344 285.140625 195.640625 C 284.183594 191.882812 277.023438 188.828125 274.609375 195.074219 C 272.199219 201.320312 286.074219 209.355469 294.332031 198.800781 Z M 294.332031 198.800781 " fill-opacity="1" fill-rule="nonzero"/><path fill="#ff95bb" d="M 180.375 223.957031 C 180.375 223.957031 186.328125 227.300781 185.277344 230.332031 C 184.222656 233.367188 187.773438 238.742188 192.285156 235.527344 C 196.800781 232.316406 190.890625 220.441406 180.375 223.957031 Z M 180.375 223.957031 " fill-opacity="1" fill-rule="nonzero"/><path fill="#ff95bb" d="M 289.53125 93.820312 C 289.53125 93.820312 290.585938 89.164062 292.828125 89.265625 C 295.070312 89.367188 297.964844 85.914062 294.914062 83.527344 C 291.859375 81.144531 285.078125 87.472656 289.53125 93.820312 Z M 289.53125 93.820312 " fill-opacity="1" fill-rule="nonzero"/><path fill="#ff95bb" d="M 243.089844 314.226562 C 243.089844 314.226562 247.859375 309.128906 250.613281 310.910156 C 253.367188 312.695312 259.566406 310.480469 257.480469 305.21875 C 255.390625 299.953125 242.15625 302.929688 243.089844 314.226562 Z M 243.089844 314.226562 " fill-opacity="1" fill-rule="nonzero"/><path fill="#ff95bb" d="M 251.488281 143.089844 C 251.488281 143.089844 246.949219 144.324219 247.066406 147.875 C 247.1875 151.425781 244.949219 152.273438 243.839844 150.296875 C 242.726562 148.320312 241.695312 142.992188 251.488281 143.089844 Z M 251.488281 143.089844 " fill-opacity="1" fill-rule="nonzero"/><path fill="#ff95bb" d="M 142.992188 256.277344 C 142.992188 256.277344 143.492188 259.820312 146.179688 260.066406 C 148.871094 260.3125 149.296875 262.082031 147.703125 262.734375 C 146.105469 263.386719 141.984375 263.660156 142.992188 256.277344 Z M 142.992188 256.277344 " fill-opacity="1" fill-rule="nonzero"/><path fill="#ff95bb" d="M 230.972656 340.171875 C 230.972656 340.171875 234.21875 339.246094 234.105469 336.699219 C 233.988281 334.152344 235.585938 333.527344 236.402344 334.933594 C 237.214844 336.34375 238.003906 340.160156 230.972656 340.171875 Z M 230.972656 340.171875 " fill-opacity="1" fill-rule="nonzero"/><path fill="#ff95bb" d="M 139.480469 132.859375 C 139.480469 132.859375 135.441406 138.21875 138.675781 142.113281 C 141.914062 146.007812 140.132812 148.917969 137.152344 147.660156 C 134.175781 146.40625 128.355469 141.304688 139.480469 132.859375 Z M 139.480469 132.859375 " fill-opacity="1" fill-rule="nonzero"/><path fill="#ff95bb" d="M 270.667969 50.917969 C 270.667969 50.917969 271.941406 54.363281 274.691406 54.023438 C 277.441406 53.6875 278.253906 55.367188 276.796875 56.367188 C 275.335938 57.367188 271.265625 58.539062 270.667969 50.917969 Z M 270.667969 50.917969 " fill-opacity="1" fill-rule="nonzero"/><path fill="#ff95bb" d="M 329.070312 110.863281 C 329.070312 110.863281 331.644531 113.054688 333.699219 111.542969 C 335.753906 110.03125 337.164062 111.011719 336.441406 112.472656 C 335.722656 113.933594 332.984375 116.707031 329.070312 110.863281 Z M 329.070312 110.863281 " fill-opacity="1" fill-rule="nonzero"/><path fill="#ff95bb" d="M 169.839844 40.496094 C 169.839844 40.496094 166.59375 37.902344 164.121094 39.839844 C 161.652344 41.777344 159.882812 40.621094 160.710938 38.800781 C 161.542969 36.976562 164.800781 33.460938 169.839844 40.496094 Z M 169.839844 40.496094 " fill-opacity="1" fill-rule="nonzero"/><path fill="#ff95bb" d="M 53.640625 183.652344 C 53.640625 183.652344 51.507812 180.050781 48.488281 180.992188 C 45.472656 181.9375 44.214844 180.214844 45.648438 178.792969 C 47.078125 177.375 51.40625 175.226562 53.640625 183.652344 Z M 53.640625 183.652344 " fill-opacity="1" fill-rule="nonzero"/><path fill="#ff95bb" d="M 56.875 190.433594 C 56.875 190.433594 60.476562 187.949219 59.273438 184.871094 C 58.070312 181.792969 59.773438 180.359375 61.359375 181.75 C 62.945312 183.136719 65.496094 187.492188 56.875 190.433594 Z M 56.875 190.433594 " fill-opacity="1" fill-rule="nonzero"/><path fill="#ff95bb" d="M 304.835938 267.214844 C 304.835938 267.214844 304.796875 271.699219 308.085938 272.507812 C 311.375 273.3125 311.578125 275.585938 309.476562 276.09375 C 307.375 276.605469 302.214844 276.179688 304.835938 267.214844 Z M 304.835938 267.214844 " fill-opacity="1" fill-rule="nonzero"/><path fill="#ff95bb" d="M 221.6875 196.441406 C 221.6875 196.441406 215.195312 199.066406 216 204.296875 C 216.804688 209.519531 213.648438 211.171875 211.65625 208.445312 C 209.664062 205.722656 207.191406 198.027344 221.6875 196.441406 Z M 221.6875 196.441406 " fill-opacity="1" fill-rule="nonzero"/><path fill="#ff95bb" d="M 161.324219 180.6875 C 161.324219 180.6875 164.027344 187.402344 169.433594 186.578125 C 174.835938 185.753906 176.539062 189.019531 173.71875 191.074219 C 170.898438 193.132812 162.941406 195.671875 161.324219 180.6875 Z M 161.324219 180.6875 " fill-opacity="1" fill-rule="nonzero"/><path fill="#ff95bb" d="M 225.226562 211.054688 C 225.226562 211.054688 220.734375 215.835938 223.46875 219.964844 C 226.203125 224.09375 224.164062 226.734375 221.398438 225.199219 C 218.636719 223.664062 213.519531 218.089844 225.226562 211.054688 Z M 225.226562 211.054688 " fill-opacity="1" fill-rule="nonzero"/><path fill="#ff95bb" d="M 82.152344 117.96875 C 82.152344 117.96875 86.59375 113.84375 84.328125 109.863281 C 82.066406 105.886719 84.109375 103.582031 86.5625 105.167969 C 89.011719 106.757812 93.382812 112.214844 82.152344 117.96875 Z M 82.152344 117.96875 " fill-opacity="1" fill-rule="nonzero"/><path fill="#ff95bb" d="M 140.214844 64.730469 C 140.214844 64.730469 139.714844 70.136719 143.597656 71.441406 C 147.480469 72.746094 147.492188 75.507812 144.90625 75.910156 C 142.320312 76.3125 136.148438 75.273438 140.214844 64.730469 Z M 140.214844 64.730469 " fill-opacity="1" fill-rule="nonzero"/><path fill="#ff95bb" d="M 59.679688 92.132812 C 59.679688 92.132812 64.035156 98.402344 57.921875 105.105469 C 51.804688 111.808594 59.625 112.207031 60.332031 108.585938 C 61.035156 104.960938 65.914062 99.324219 59.679688 92.132812 Z M 59.679688 92.132812 " fill-opacity="1" fill-rule="nonzero"/><path fill="#ff95bb" d="M 96.441406 166.433594 C 96.441406 166.433594 98.957031 159.769531 107.339844 160.925781 C 115.722656 162.082031 111.894531 155.867188 108.738281 157.238281 C 105.582031 158.609375 98.671875 157.839844 96.441406 166.433594 Z M 96.441406 166.433594 " fill-opacity="1" fill-rule="nonzero"/><path fill="#ff95bb" d="M 261.855469 218.855469 C 261.855469 218.855469 258.152344 211.789062 265.363281 205.632812 C 272.574219 199.476562 264.519531 198.050781 263.316406 201.714844 C 262.113281 205.378906 256.324219 210.589844 261.855469 218.855469 Z M 261.855469 218.855469 " fill-opacity="1" fill-rule="nonzero"/><path fill="#ff95bb" d="M 312.054688 207.15625 C 312.054688 207.15625 317.757812 210.964844 314.851562 218.582031 C 311.941406 226.195312 318.605469 223.957031 318.007812 220.699219 C 317.40625 217.4375 319.632812 211.117188 312.054688 207.15625 Z M 312.054688 207.15625 " fill-opacity="1" fill-rule="nonzero"/><path fill="#ff95bb" d="M 144.683594 233.203125 C 144.683594 233.203125 146.957031 239.183594 140.628906 243.394531 C 134.300781 247.605469 140.578125 249.511719 141.882812 246.710938 C 143.191406 243.90625 148.296875 240.3125 144.683594 233.203125 Z M 144.683594 233.203125 " fill-opacity="1" fill-rule="nonzero"/><path fill="#ff95bb" d="M 223.832031 204.839844 C 223.832031 204.839844 232.203125 209.128906 229.445312 219.960938 C 226.6875 230.792969 235.414062 226.6875 234.082031 222.34375 C 232.746094 217.996094 234.78125 209.039062 223.832031 204.839844 Z M 223.832031 204.839844 " fill-opacity="1" fill-rule="nonzero"/><path fill="#ff95bb" d="M 119.441406 88.605469 C 119.441406 88.605469 124.082031 81.796875 133.191406 85.375 C 142.304688 88.953125 139.6875 80.925781 135.769531 81.609375 C 131.847656 82.292969 124.285156 79.550781 119.441406 88.605469 Z M 119.441406 88.605469 " fill-opacity="1" fill-rule="nonzero"/><path fill="#ff95bb" d="M 344.53125 160.039062 C 344.53125 160.039062 343.808594 153.054688 351.707031 150.378906 C 359.605469 147.703125 353.492188 143.910156 351.3125 146.511719 C 349.136719 149.113281 342.707031 151.480469 344.53125 160.039062 Z M 344.53125 160.039062 " fill-opacity="1" fill-rule="nonzero"/><path fill="#ff95bb" d="M 40.539062 86.195312 C 40.539062 86.195312 51.082031 83.464844 57.027344 94.957031 C 62.96875 106.453125 67.367188 96.191406 62.871094 93.453125 C 58.371094 90.722656 53.238281 81.40625 40.539062 86.195312 Z M 40.539062 86.195312 " fill-opacity="1" fill-rule="nonzero"/><path fill="#ff95bb" d="M 142.203125 176.414062 C 142.203125 176.414062 136.15625 182.910156 127.035156 177.621094 C 117.910156 172.332031 119.390625 181.308594 123.679688 181.21875 C 127.96875 181.125 135.574219 185.273438 142.203125 176.414062 Z M 142.203125 176.414062 " fill-opacity="1" fill-rule="nonzero"/><path fill="#ff95bb" d="M 83.492188 233.242188 C 83.492188 233.242188 92.769531 234.355469 93.929688 245.394531 C 95.089844 256.433594 101.808594 249.609375 99.070312 246.019531 C 96.328125 242.429688 95.136719 233.382812 83.492188 233.242188 Z M 83.492188 233.242188 " fill-opacity="1" fill-rule="nonzero"/><path fill="#ff95bb" d="M 224.597656 227.617188 C 224.597656 227.617188 220.679688 239.425781 205.960938 238 C 191.246094 236.574219 198.367188 247.15625 203.78125 244.539062 C 209.195312 241.921875 221.3125 242.773438 224.597656 227.617188 Z M 224.597656 227.617188 " fill-opacity="1" fill-rule="nonzero"/><path fill="#ff95bb" d="M 348.289062 161.699219 C 348.289062 161.699219 359.125 163.285156 360.144531 176.257812 C 361.167969 189.230469 369.246094 181.433594 366.148438 177.144531 C 363.046875 172.855469 361.929688 162.21875 348.289062 161.699219 Z M 348.289062 161.699219 " fill-opacity="1" fill-rule="nonzero"/><path fill="#ff95bb" d="M 202.488281 160.828125 C 202.488281 160.828125 197.742188 164.992188 191.664062 160.59375 C 185.585938 156.191406 185.988281 162.652344 189.03125 162.894531 C 192.074219 163.136719 197.160156 166.621094 202.488281 160.828125 Z M 202.488281 160.828125 " fill-opacity="1" fill-rule="nonzero"/><path fill="#ff95bb" d="M 186.199219 268.394531 C 186.199219 268.394531 195.871094 271.527344 194.792969 283.558594 C 193.714844 295.59375 202.320312 289.710938 200.148438 285.304688 C 197.976562 280.898438 198.601562 270.988281 186.199219 268.394531 Z M 186.199219 268.394531 " fill-opacity="1" fill-rule="nonzero"/><path fill="#ff95bb" d="M 233.292969 142.382812 C 233.171875 142.042969 236.394531 158.226562 230.3125 162.691406 C 224.230469 167.15625 220.941406 170.929688 223.972656 175.570312 C 227.003906 180.210938 242.375 179.558594 241.363281 165.621094 C 240.347656 151.683594 234.445312 145.597656 233.292969 142.382812 Z M 233.292969 142.382812 " fill-opacity="1" fill-rule="nonzero"/><path fill="#ff95bb" d="M 99.5625 125.804688 C 99.859375 125.703125 85.679688 128.164062 81.921875 122.769531 C 78.160156 117.371094 74.941406 114.421875 70.832031 116.964844 C 66.722656 119.503906 66.957031 132.921875 79.128906 132.335938 C 91.300781 131.753906 96.730469 126.738281 99.5625 125.804688 Z M 99.5625 125.804688 " fill-opacity="1" fill-rule="nonzero"/><path fill="#ff95bb" d="M 245.195312 277.441406 C 245.464844 277.753906 235.253906 261.824219 239.878906 254.515625 C 244.503906 247.203125 246.433594 241.800781 241.257812 238.113281 C 236.082031 234.429688 219.945312 241.554688 226.855469 256.007812 C 233.769531 270.460938 242.617188 274.492188 245.195312 277.441406 Z M 245.195312 277.441406 " fill-opacity="1" fill-rule="nonzero"/><path fill="#ff95bb" d="M 197.179688 209.214844 C 196.96875 209.0625 205.492188 217.464844 203.660156 222.625 C 201.828125 227.78125 201.390625 231.386719 205.097656 232.9375 C 208.808594 234.488281 217.773438 227.835938 211.488281 219.882812 C 205.203125 211.929688 199.179688 210.679688 197.179688 209.214844 Z M 197.179688 209.214844 " fill-opacity="1" fill-rule="nonzero"/><g clip-path="url(#9568d4a041)"><path fill="#ff95bb" d="M 193.183594 30.21875 C 192.992188 30.042969 200.480469 39.398438 198.054688 44.308594 C 195.625 49.21875 194.765625 52.753906 198.269531 54.730469 C 201.777344 56.710938 211.46875 51.152344 206.15625 42.503906 C 200.84375 33.859375 195.003906 31.90625 193.183594 30.21875 Z M 193.183594 30.21875 " fill-opacity="1" fill-rule="nonzero"/></g><path fill="#ff95bb" d="M 54.378906 85.324219 C 54.046875 85.546875 70.570312 77.617188 77.050781 82.925781 C 83.53125 88.238281 88.5 90.734375 92.65625 86.195312 C 96.808594 81.65625 91.871094 65.296875 77.15625 70.234375 C 62.441406 75.167969 57.523438 83.195312 54.378906 85.324219 Z M 54.378906 85.324219 " fill-opacity="1" fill-rule="nonzero"/><path fill="#ff95bb" d="M 86.152344 184.617188 C 86.039062 184.363281 89.507812 196.679688 85.074219 200.5 C 80.640625 204.316406 78.328125 207.433594 80.949219 210.835938 C 83.574219 214.242188 95.417969 212.8125 93.792969 202.097656 C 92.167969 191.382812 87.238281 187.035156 86.152344 184.617188 Z M 86.152344 184.617188 " fill-opacity="1" fill-rule="nonzero"/><path fill="#ff95bb" d="M 350.492188 200.070312 C 350.792969 200.378906 339.132812 184.390625 343.503906 176.464844 C 347.875 168.546875 349.550781 162.78125 343.917969 159.257812 C 338.28125 155.734375 321.878906 164.1875 330.003906 178.84375 C 338.128906 193.5 347.613281 197.152344 350.488281 200.070312 Z M 350.492188 200.070312 " fill-opacity="1" fill-rule="nonzero"/><path fill="#ff95bb" d="M 183.15625 95.488281 C 183.210938 95.078125 177.992188 113.226562 169.464844 114.574219 C 160.9375 115.921875 155.613281 118.035156 156.257812 124.34375 C 156.902344 130.652344 172.878906 138.058594 179.160156 123.355469 C 185.445312 108.648438 182.640625 99.363281 183.15625 95.488281 Z M 183.15625 95.488281 " fill-opacity="1" fill-rule="nonzero"/><path fill="#ff95bb" d="M 215.609375 204.015625 C 215.996094 204.140625 199.296875 195.921875 199.472656 187.417969 C 199.648438 178.914062 198.527344 173.378906 192.296875 172.910156 C 186.0625 172.4375 176.101562 186.644531 189.273438 195.296875 C 202.441406 203.949219 211.9375 202.839844 215.609375 204.015625 Z M 215.609375 204.015625 " fill-opacity="1" fill-rule="nonzero"/><path fill="#ff95bb" d="M 299.484375 159.195312 C 299.273438 158.835938 306.410156 176.546875 300.449219 182.925781 C 294.492188 189.304688 291.5625 194.304688 296.003906 198.929688 C 300.445312 203.554688 317.785156 199.519531 313.644531 183.890625 C 309.5 168.257812 301.488281 162.605469 299.484375 159.195312 Z M 299.484375 159.195312 " fill-opacity="1" fill-rule="nonzero"/><path fill="#ff95bb" d="M 290.808594 173.550781 C 291.070312 173.542969 279.257812 172.125 277.5625 166.957031 C 275.867188 161.792969 274.019531 158.691406 270.160156 159.730469 C 266.304688 160.765625 263.304688 171.441406 273.078125 173.871094 C 282.855469 176.296875 288.347656 173.621094 290.808594 173.550781 Z M 290.808594 173.550781 " fill-opacity="1" fill-rule="nonzero"/><path fill="#ff95bb" d="M 149.597656 48.359375 C 149.207031 48.300781 166.59375 53.515625 167.796875 61.730469 C 168.996094 69.9375 170.96875 75.082031 177.039062 74.53125 C 183.109375 73.980469 190.40625 58.707031 176.34375 52.503906 C 162.277344 46.300781 153.320312 48.894531 149.597656 48.359375 Z M 149.597656 48.359375 " fill-opacity="1" fill-rule="nonzero"/><path fill="#ff95bb" d="M 275.527344 176.808594 C 275.875 176.914062 260.828125 169.742188 260.890625 162.121094 C 260.953125 154.503906 259.882812 149.558594 254.296875 149.207031 C 248.710938 148.855469 239.949219 161.691406 251.839844 169.292969 C 263.734375 176.894531 272.222656 175.796875 275.523438 176.808594 Z M 275.527344 176.808594 " fill-opacity="1" fill-rule="nonzero"/><path fill="#ff95bb" d="M 265.277344 95.933594 C 265.351562 96.128906 263.316406 86.902344 266.746094 84.277344 C 270.175781 81.652344 272.011719 79.453125 270.226562 76.835938 C 268.4375 74.214844 259.648438 74.765625 260.390625 82.730469 C 261.132812 90.695312 264.578125 94.109375 265.277344 95.933594 Z M 265.277344 95.933594 " fill-opacity="1" fill-rule="nonzero"/></svg>
