<svg xmlns="http://www.w3.org/2000/svg" xmlns:xlink="http://www.w3.org/1999/xlink" width="500" zoomAndPan="magnify" viewBox="0 0 375 374.999991" height="500" preserveAspectRatio="xMidYMid meet" version="1.0"><defs><g/><clipPath id="22faff72c4"><path d="M 200 177 L 206 177 L 206 188.984375 L 200 188.984375 Z M 200 177 " clip-rule="nonzero"/></clipPath><clipPath id="26580db19d"><path d="M 111.839844 98 L 125 98 L 125 104 L 111.839844 104 Z M 111.839844 98 " clip-rule="nonzero"/></clipPath><clipPath id="d83da93ef8"><path d="M 189 62.234375 L 196 62.234375 L 196 73 L 189 73 Z M 189 62.234375 " clip-rule="nonzero"/></clipPath></defs><rect x="-37.5" width="450" fill="#ffffff" y="-37.499999" height="449.999989" fill-opacity="1"/><rect x="-37.5" width="450" fill="#101527" y="-37.499999" height="449.999989" fill-opacity="1"/><g fill="#ff95bb" fill-opacity="1"><g transform="translate(11.144535, 288.552036)"><g><path d="M 51.84375 -72.003906 L 45.363281 -72.003906 L 30.035156 -50.09375 L 14.710938 -72.003906 L 7.921875 -72.003906 L 7.921875 0 L 14.195312 0 L 14.195312 -62.027344 L 29.832031 -39.5 L 45.566406 -62.128906 L 45.566406 0 L 51.84375 0 Z M 51.84375 -72.003906 "/></g></g></g><g fill="#ff95bb" fill-opacity="1"><g transform="translate(71.006367, 288.552036)"><g><path d="M 7.921875 -72.003906 L 7.921875 0 L 30.035156 0 L 30.035156 -6.070312 L 14.195312 -6.070312 L 14.195312 -48.035156 L 23.96875 -48.035156 L 23.96875 -53.589844 L 14.195312 -53.589844 L 14.195312 -66.039062 L 30.035156 -66.039062 L 30.035156 -72.003906 Z M 7.921875 -72.003906 "/></g></g></g><g fill="#ff95bb" fill-opacity="1"><g transform="translate(104.125795, 288.552036)"><g><path d="M 51.84375 -72.003906 L 45.363281 -72.003906 L 30.035156 -50.09375 L 14.710938 -72.003906 L 7.921875 -72.003906 L 7.921875 0 L 14.195312 0 L 14.195312 -62.027344 L 29.832031 -39.5 L 45.566406 -62.128906 L 45.566406 0 L 51.84375 0 Z M 51.84375 -72.003906 "/></g></g></g><g fill="#ff95bb" fill-opacity="1"><g transform="translate(163.987627, 288.552036)"><g><path d="M 22.527344 1.027344 C 35.179688 1.027344 41.453125 -10.492188 41.453125 -36.207031 C 41.453125 -61.921875 35.179688 -73.445312 22.527344 -73.445312 C 9.976562 -73.445312 3.601562 -61.921875 3.601562 -36.207031 C 3.601562 -10.492188 9.976562 1.027344 22.527344 1.027344 Z M 22.527344 -4.9375 C 11.625 -4.9375 9.976562 -23.453125 9.976562 -36.207031 C 9.976562 -48.960938 11.625 -67.476562 22.527344 -67.476562 C 33.429688 -67.476562 35.074219 -48.960938 35.074219 -36.207031 C 35.074219 -23.453125 33.429688 -4.9375 22.527344 -4.9375 Z M 22.527344 -4.9375 "/></g></g></g><g fill="#ff95bb" fill-opacity="1"><g transform="translate(209.038276, 288.552036)"><g><path d="M 20.574219 -34.253906 L 35.691406 0.925781 L 41.351562 -1.953125 L 25.097656 -39.703125 L 29.726562 -45.363281 C 35.691406 -52.664062 37.957031 -55.546875 37.957031 -60.996094 C 37.957031 -67.890625 33.636719 -72.003906 24.480469 -72.003906 L 7.921875 -72.003906 L 7.921875 0 L 14.195312 0 L 14.195312 -26.539062 Z M 14.195312 -34.972656 L 14.195312 -66.039062 L 24.585938 -66.039062 C 29.109375 -66.039062 31.476562 -64.390625 31.476562 -60.6875 C 31.476562 -56.882812 30.449219 -54.824219 26.023438 -49.375 Z M 14.195312 -34.972656 "/></g></g></g><g fill="#ff95bb" fill-opacity="1"><g transform="translate(253.266071, 288.552036)"><g><path d="M 32.8125 -11.210938 L 35.074219 0 L 41.351562 0 L 26.023438 -72.003906 L 18.414062 -72.003906 L 3.910156 0 L 9.976562 0 L 15.738281 -29.832031 Z M 30.652344 -22.011719 L 17.179688 -36.722656 L 22.21875 -62.847656 Z M 30.652344 -22.011719 "/></g></g></g><g fill="#ff95bb" fill-opacity="1"><g transform="translate(298.316743, 288.552036)"><g><path d="M 8.230469 -72.003906 L 8.230469 0 L 14.503906 0 L 14.503906 -72.003906 Z M 8.230469 -72.003906 "/></g></g></g><g fill="#ff95bb" fill-opacity="1"><g transform="translate(321.150634, 288.552036)"><g><path d="M 14.605469 -72.003906 L 7.714844 -72.003906 L 7.714844 0 L 14.605469 0 C 32.8125 0 39.601562 -18.824219 39.601562 -37.03125 C 39.601562 -58.734375 29.933594 -72.003906 14.605469 -72.003906 Z M 33.121094 -37.03125 C 33.121094 -16.253906 27.054688 -6.171875 14.402344 -6.070312 L 13.988281 -6.070312 L 13.988281 -66.039062 L 15.222656 -66.039062 C 25.40625 -65.933594 33.121094 -56.78125 33.121094 -37.03125 Z M 33.121094 -37.03125 "/></g></g></g><path fill="#ff95bb" d="M 180.851562 78.125 C 180.851562 78.125 180.742188 80.421875 179.289062 81.613281 C 177.832031 82.800781 175.800781 84.015625 177.25 85.738281 C 178.132812 86.785156 180.421875 85.15625 179.957031 83.648438 C 179.492188 82.136719 181.207031 79.84375 180.851562 78.125 Z M 180.851562 78.125 " fill-opacity="1" fill-rule="nonzero"/><path fill="#ff95bb" d="M 140.101562 113.972656 C 140.101562 113.972656 142.011719 113.054688 143.617188 113.714844 C 145.21875 114.378906 147.09375 115.492188 147.855469 113.566406 C 148.320312 112.390625 145.996094 111.246094 144.976562 112.28125 C 143.953125 113.320312 141.339844 112.933594 140.101562 113.972656 Z M 140.101562 113.972656 " fill-opacity="1" fill-rule="nonzero"/><path fill="#ff95bb" d="M 237.929688 163.910156 C 237.929688 163.910156 235.167969 165.382812 232.757812 164.511719 C 230.351562 163.640625 227.511719 162.113281 226.511719 165.007812 C 225.902344 166.773438 229.402344 168.3125 230.847656 166.71875 C 232.289062 165.121094 236.167969 165.523438 237.929688 163.910156 Z M 237.929688 163.910156 " fill-opacity="1" fill-rule="nonzero"/><path fill="#ff95bb" d="M 121.589844 108.019531 C 121.589844 108.019531 122.523438 109.515625 122.128906 110.90625 C 121.730469 112.292969 120.980469 113.949219 122.648438 114.402344 C 123.664062 114.675781 124.394531 112.648438 123.441406 111.898438 C 122.488281 111.148438 122.5625 108.949219 121.589844 108.019531 Z M 121.589844 108.019531 " fill-opacity="1" fill-rule="nonzero"/><path fill="#ff95bb" d="M 198.09375 179.394531 C 198.09375 179.394531 199.503906 177.398438 201.492188 177.164062 C 203.480469 176.925781 205.996094 177 205.679688 174.625 C 205.488281 173.179688 202.503906 173.332031 202.054688 174.953125 C 201.609375 176.574219 198.757812 177.65625 198.09375 179.394531 Z M 198.09375 179.394531 " fill-opacity="1" fill-rule="nonzero"/><path fill="#ff95bb" d="M 197.332031 177.871094 C 197.332031 177.871094 198.25 174.769531 200.640625 173.628906 C 203.03125 172.488281 206.21875 171.507812 204.8125 168.671875 C 203.953125 166.941406 200.28125 168.402344 200.40625 170.621094 C 200.535156 172.839844 197.421875 175.40625 197.332031 177.871094 Z M 197.332031 177.871094 " fill-opacity="1" fill-rule="nonzero"/><path fill="#ff95bb" d="M 238.375 160.449219 C 238.375 160.449219 239.347656 157.871094 241.449219 157.050781 C 243.550781 156.230469 246.320312 155.59375 245.300781 153.097656 C 244.679688 151.574219 241.46875 152.585938 241.4375 154.480469 C 241.410156 156.375 238.605469 158.363281 238.375 160.449219 Z M 238.375 160.449219 " fill-opacity="1" fill-rule="nonzero"/><path fill="#ff95bb" d="M 227.59375 100.5 C 227.59375 100.5 227.125 102.464844 225.675781 103.257812 C 224.222656 104.050781 222.269531 104.769531 223.242188 106.492188 C 223.835938 107.542969 226.078125 106.507812 225.921875 105.125 C 225.769531 103.746094 227.621094 102.039062 227.59375 100.5 Z M 227.59375 100.5 " fill-opacity="1" fill-rule="nonzero"/><path fill="#ff95bb" d="M 201.777344 110.417969 C 201.777344 110.417969 202.695312 107.707031 204.84375 106.78125 C 206.996094 105.851562 209.847656 105.09375 208.699219 102.535156 C 208 100.976562 204.703125 102.144531 204.738281 104.113281 C 204.777344 106.078125 201.941406 108.242188 201.777344 110.417969 Z M 201.777344 110.417969 " fill-opacity="1" fill-rule="nonzero"/><path fill="#ff95bb" d="M 129.507812 97.089844 C 129.507812 97.089844 127.054688 96.28125 126.203125 94.347656 C 125.351562 92.410156 124.648438 89.847656 122.347656 90.898438 C 120.949219 91.542969 122.023438 94.507812 123.796875 94.460938 C 125.570312 94.414062 127.542969 96.957031 129.507812 97.089844 Z M 129.507812 97.089844 " fill-opacity="1" fill-rule="nonzero"/><path fill="#ff95bb" d="M 172.382812 80.015625 C 172.382812 80.015625 171.199219 78.222656 171.636719 76.519531 C 172.078125 74.816406 172.9375 72.773438 170.894531 72.277344 C 169.648438 71.976562 168.824219 74.46875 170.007812 75.351562 C 171.191406 76.234375 171.167969 78.914062 172.382812 80.015625 Z M 172.382812 80.015625 " fill-opacity="1" fill-rule="nonzero"/><path fill="#ff95bb" d="M 190.078125 92.070312 C 190.078125 92.070312 189.007812 90.546875 189.351562 89.0625 C 189.691406 87.578125 190.390625 85.792969 188.609375 85.410156 C 187.527344 85.179688 186.867188 87.355469 187.914062 88.089844 C 188.957031 88.828125 189 91.144531 190.078125 92.070312 Z M 190.078125 92.070312 " fill-opacity="1" fill-rule="nonzero"/><path fill="#ff95bb" d="M 219.753906 142.242188 C 219.753906 142.242188 219.597656 140.117188 220.804688 138.855469 C 222.015625 137.59375 223.75 136.25 222.222656 134.828125 C 221.289062 133.960938 219.363281 135.714844 219.960938 137.054688 C 220.558594 138.394531 219.234375 140.703125 219.753906 142.242188 Z M 219.753906 142.242188 " fill-opacity="1" fill-rule="nonzero"/><path fill="#ff95bb" d="M 180.207031 103.109375 C 180.207031 103.109375 183.140625 104.242188 184.058594 106.648438 C 184.976562 109.054688 185.679688 112.21875 188.539062 111.078125 C 190.285156 110.382812 189.15625 106.707031 186.996094 106.660156 C 184.832031 106.609375 182.589844 103.390625 180.207031 103.109375 Z M 180.207031 103.109375 " fill-opacity="1" fill-rule="nonzero"/><path fill="#ff95bb" d="M 188.441406 73.902344 C 188.441406 73.902344 189.921875 76.035156 189.4375 78.105469 C 188.949219 80.175781 187.964844 82.664062 190.449219 83.210938 C 191.960938 83.542969 192.894531 80.507812 191.4375 79.472656 C 189.984375 78.4375 189.941406 75.195312 188.441406 73.902344 Z M 188.441406 73.902344 " fill-opacity="1" fill-rule="nonzero"/><path fill="#ff95bb" d="M 165.878906 72.484375 C 165.878906 72.484375 162.574219 70.570312 161.332031 72.316406 C 160.089844 74.0625 157.546875 74.105469 156.863281 72.039062 C 156.175781 69.976562 161.980469 68.011719 165.878906 72.484375 Z M 165.878906 72.484375 " fill-opacity="1" fill-rule="nonzero"/><path fill="#ff95bb" d="M 244.277344 107.863281 C 244.277344 107.863281 241.195312 106.484375 240.265625 108.136719 C 239.332031 109.789062 237.101562 110.058594 236.304688 108.304688 C 235.511719 106.550781 240.4375 104.289062 244.277344 107.863281 Z M 244.277344 107.863281 " fill-opacity="1" fill-rule="nonzero"/><g clip-path="url(#22faff72c4)"><path fill="#ff95bb" d="M 201.039062 189.316406 C 201.039062 189.316406 203.890625 185.375 201.835938 183.574219 C 199.78125 181.773438 200.058594 178.542969 202.761719 177.941406 C 205.46875 177.335938 207.210938 184.957031 201.039062 189.316406 Z M 201.039062 189.316406 " fill-opacity="1" fill-rule="nonzero"/></g><path fill="#ff95bb" d="M 163.648438 160.148438 C 163.648438 160.148438 165.734375 155.90625 163.46875 154.519531 C 161.207031 153.132812 160.941406 149.996094 163.433594 148.972656 C 165.925781 147.953125 168.84375 154.960938 163.648438 160.148438 Z M 163.648438 160.148438 " fill-opacity="1" fill-rule="nonzero"/><path fill="#ff95bb" d="M 168.929688 130.898438 C 168.929688 130.898438 172.085938 129.957031 171.722656 128.144531 C 171.359375 126.332031 172.835938 124.714844 174.535156 125.503906 C 176.234375 126.292969 174.039062 131.097656 168.929688 130.898438 Z M 168.929688 130.898438 " fill-opacity="1" fill-rule="nonzero"/><path fill="#ff95bb" d="M 143.816406 107.285156 C 143.816406 107.285156 139.671875 112.53125 142.390625 115.121094 C 145.105469 117.707031 144.539062 122.121094 140.792969 122.792969 C 137.046875 123.464844 135.09375 112.914062 143.816406 107.285156 Z M 143.816406 107.285156 " fill-opacity="1" fill-rule="nonzero"/><path fill="#ff95bb" d="M 139.71875 120.746094 C 139.71875 120.746094 139.925781 125.34375 142.507812 125.46875 C 145.089844 125.589844 146.785156 128.144531 145.136719 130.183594 C 143.488281 132.222656 137.71875 127.609375 139.71875 120.746094 Z M 139.71875 120.746094 " fill-opacity="1" fill-rule="nonzero"/><path fill="#ff95bb" d="M 193.101562 92.304688 C 193.101562 92.304688 198.242188 96.339844 200.765625 93.675781 C 203.289062 91.011719 207.605469 91.550781 208.273438 95.210938 C 208.945312 98.875 198.632812 100.8125 193.101562 92.304688 Z M 193.101562 92.304688 " fill-opacity="1" fill-rule="nonzero"/><path fill="#ff95bb" d="M 241.984375 113.714844 C 241.984375 113.714844 239.949219 120.015625 243.367188 121.480469 C 246.785156 122.945312 247.78125 127.238281 244.535156 129.15625 C 241.289062 131.078125 235.832031 121.953125 241.984375 113.714844 Z M 241.984375 113.714844 " fill-opacity="1" fill-rule="nonzero"/><path fill="#ff95bb" d="M 244.890625 136.402344 C 244.890625 136.402344 243.316406 141.894531 246.304688 143.0625 C 249.292969 144.226562 250.28125 147.902344 247.535156 149.648438 C 244.789062 151.398438 239.820312 143.6875 244.890625 136.402344 Z M 244.890625 136.402344 " fill-opacity="1" fill-rule="nonzero"/><path fill="#ff95bb" d="M 211.300781 70.082031 C 211.300781 70.082031 206.488281 71.816406 207.207031 74.597656 C 207.929688 77.378906 205.777344 80.019531 203.070312 78.941406 C 200.359375 77.863281 203.355469 70.214844 211.300781 70.082031 Z M 211.300781 70.082031 " fill-opacity="1" fill-rule="nonzero"/><path fill="#ff95bb" d="M 170.9375 137.59375 C 170.9375 137.59375 166.992188 139.621094 167.921875 141.929688 C 168.851562 144.242188 167.296875 146.75 164.851562 146.128906 C 162.402344 145.503906 164.125 138.597656 170.9375 137.59375 Z M 170.9375 137.59375 " fill-opacity="1" fill-rule="nonzero"/><path fill="#ff95bb" d="M 117.980469 103.167969 C 117.980469 103.167969 115.863281 108.621094 118.804688 110.089844 C 121.746094 111.554688 122.40625 115.394531 119.445312 116.921875 C 116.480469 118.449219 112.132812 110.121094 117.980469 103.167969 Z M 117.980469 103.167969 " fill-opacity="1" fill-rule="nonzero"/><path fill="#ff95bb" d="M 222.191406 154.1875 C 222.191406 154.1875 220.183594 150.410156 217.96875 151.335938 C 215.753906 152.261719 213.3125 150.792969 213.882812 148.425781 C 214.453125 146.054688 221.136719 147.628906 222.191406 154.1875 Z M 222.191406 154.1875 " fill-opacity="1" fill-rule="nonzero"/><path fill="#ff95bb" d="M 205.507812 113.511719 C 205.507812 113.511719 199.421875 114.207031 199.492188 117.648438 C 199.566406 121.085938 196.335938 123.570312 193.476562 121.570312 C 190.617188 119.570312 196.210938 111.480469 205.507812 113.511719 Z M 205.507812 113.511719 " fill-opacity="1" fill-rule="nonzero"/><path fill="#ff95bb" d="M 213.699219 76.40625 C 213.699219 76.40625 215.980469 72.316406 217.523438 73.621094 C 219.0625 74.925781 220.515625 71.867188 218.027344 70.144531 C 215.539062 68.417969 213.234375 72.792969 213.699219 76.40625 Z M 213.699219 76.40625 " fill-opacity="1" fill-rule="nonzero"/><path fill="#ff95bb" d="M 131.621094 85.019531 C 131.621094 85.019531 131.574219 91.472656 128.847656 90.917969 C 126.121094 90.363281 126.394531 95.023438 130.542969 95.457031 C 134.691406 95.890625 134.578125 89.074219 131.621094 85.019531 Z M 131.621094 85.019531 " fill-opacity="1" fill-rule="nonzero"/><path fill="#ff95bb" d="M 173.894531 111.726562 C 173.894531 111.726562 177.410156 117.304688 174.761719 118.332031 C 172.113281 119.355469 174.914062 123.210938 178.722656 121.296875 C 182.53125 119.382812 178.675781 113.585938 173.894531 111.726562 Z M 173.894531 111.726562 " fill-opacity="1" fill-rule="nonzero"/><path fill="#ff95bb" d="M 226.421875 128.253906 C 226.421875 128.253906 229.324219 125.25 230.355469 126.726562 C 231.386719 128.203125 233.339844 125.898438 231.589844 123.839844 C 229.835938 121.785156 226.847656 125.03125 226.421875 128.253906 Z M 226.421875 128.253906 " fill-opacity="1" fill-rule="nonzero"/><path fill="#ff95bb" d="M 175.46875 132.5 C 175.46875 132.5 171.867188 134.289062 171.40625 132.617188 C 170.949219 130.945312 168.433594 132.410156 169.363281 134.839844 C 170.289062 137.269531 174.046875 135.289062 175.46875 132.5 Z M 175.46875 132.5 " fill-opacity="1" fill-rule="nonzero"/><path fill="#ff95bb" d="M 201.347656 168.347656 C 201.347656 168.347656 202.566406 162.378906 204.992188 163.386719 C 207.417969 164.398438 208.011719 160.035156 204.246094 158.875 C 200.480469 157.71875 199.347656 164.050781 201.347656 168.347656 Z M 201.347656 168.347656 " fill-opacity="1" fill-rule="nonzero"/><path fill="#ff95bb" d="M 218.246094 151.511719 C 218.246094 151.511719 213.332031 153.742188 212.796875 151.480469 C 212.257812 149.21875 208.820312 151.0625 209.949219 154.363281 C 211.078125 157.660156 216.207031 155.179688 218.246094 151.511719 Z M 218.246094 151.511719 " fill-opacity="1" fill-rule="nonzero"/><path fill="#ff95bb" d="M 232.53125 150.894531 C 232.53125 150.894531 233.570312 145.226562 235.878906 146.132812 C 238.191406 147.039062 238.667969 142.902344 235.085938 141.882812 C 231.503906 140.863281 230.558594 146.871094 232.53125 150.894531 Z M 232.53125 150.894531 " fill-opacity="1" fill-rule="nonzero"/><path fill="#ff95bb" d="M 168.753906 129.765625 C 168.753906 129.765625 168.609375 126.089844 170.175781 126.332031 C 171.742188 126.574219 171.460938 123.929688 169.085938 123.792969 C 166.710938 123.65625 166.960938 127.535156 168.753906 129.765625 Z M 168.753906 129.765625 " fill-opacity="1" fill-rule="nonzero"/><path fill="#ff95bb" d="M 253.914062 128.664062 C 253.914062 128.664062 257.023438 130.492188 255.996094 131.65625 C 254.964844 132.824219 257.296875 133.992188 258.667969 132.105469 C 260.035156 130.214844 256.707031 128.367188 253.914062 128.664062 Z M 253.914062 128.664062 " fill-opacity="1" fill-rule="nonzero"/><path fill="#ff95bb" d="M 211.792969 119.402344 C 211.792969 119.402344 215.792969 124.484375 213.3125 125.757812 C 210.832031 127.027344 213.960938 130.503906 217.480469 128.246094 C 221 125.988281 216.644531 120.726562 211.792969 119.402344 Z M 211.792969 119.402344 " fill-opacity="1" fill-rule="nonzero"/><path fill="#ff95bb" d="M 200.449219 154.734375 C 200.449219 154.734375 195.324219 155.363281 195.480469 153.140625 C 195.640625 150.921875 191.972656 151.617188 192.054688 154.957031 C 192.140625 158.292969 197.535156 157.5 200.449219 154.734375 Z M 200.449219 154.734375 " fill-opacity="1" fill-rule="nonzero"/><path fill="#ff95bb" d="M 163.476562 68.011719 C 163.476562 68.011719 160.152344 67.808594 160.511719 66.417969 C 160.875 65.027344 158.464844 65.039062 158.125 67.167969 C 157.789062 69.296875 161.304688 69.425781 163.476562 68.011719 Z M 163.476562 68.011719 " fill-opacity="1" fill-rule="nonzero"/><path fill="#ff95bb" d="M 237.046875 82.515625 C 237.046875 82.515625 236.617188 88.300781 234.207031 87.644531 C 231.792969 86.984375 231.757812 91.179688 235.457031 91.816406 C 239.15625 92.453125 239.460938 86.332031 237.046875 82.511719 Z M 237.046875 82.515625 " fill-opacity="1" fill-rule="nonzero"/><path fill="#ff95bb" d="M 213.59375 137.382812 C 213.59375 137.382812 216.246094 139.261719 215.234375 140.230469 C 214.21875 141.199219 216.222656 142.429688 217.597656 140.839844 C 218.972656 139.246094 216.125 137.328125 213.59375 137.382812 Z M 213.59375 137.382812 " fill-opacity="1" fill-rule="nonzero"/><path fill="#ff95bb" d="M 151.492188 128.855469 C 153.359375 128.945312 154.839844 127.253906 154.792969 125.382812 C 154.769531 124.472656 154.386719 123.65625 153.785156 123.0625 C 153.714844 122.984375 153.628906 122.90625 153.523438 122.828125 C 153.050781 122.449219 152.476562 122.199219 151.847656 122.117188 C 151.804688 122.105469 151.765625 122.089844 151.71875 122.078125 C 144.984375 120.25 139.753906 123.304688 139.753906 123.304688 C 146.738281 122.742188 148.308594 127.007812 148.308594 127.007812 C 148.308594 127.007812 149.277344 128.746094 151.492188 128.855469 Z M 151.492188 128.855469 " fill-opacity="1" fill-rule="nonzero"/><path fill="#ff95bb" d="M 154.726562 96.632812 C 154.816406 97.613281 155.804688 98.261719 156.777344 98.101562 C 157.25 98.023438 157.648438 97.761719 157.914062 97.40625 C 157.949219 97.363281 157.984375 97.3125 158.015625 97.253906 C 158.179688 96.980469 158.269531 96.660156 158.265625 96.328125 C 158.269531 96.304688 158.273438 96.28125 158.277344 96.257812 C 158.738281 92.613281 156.765625 90.109375 156.765625 90.109375 C 157.566406 93.710938 155.457031 94.839844 155.457031 94.839844 C 155.457031 94.839844 154.621094 95.472656 154.726562 96.632812 Z M 154.726562 96.632812 " fill-opacity="1" fill-rule="nonzero"/><path fill="#ff95bb" d="M 194.292969 89.910156 C 193.972656 88.996094 192.878906 88.613281 191.988281 88.996094 C 191.554688 89.183594 191.238281 89.523438 191.070312 89.929688 C 191.042969 89.976562 191.023438 90.03125 191.007812 90.097656 C 190.917969 90.398438 190.90625 90.722656 190.988281 91.039062 C 190.992188 91.0625 190.992188 91.085938 190.996094 91.109375 C 191.417969 94.695312 193.894531 96.617188 193.894531 96.617188 C 192.277344 93.371094 194.019531 91.796875 194.019531 91.796875 C 194.019531 91.796875 194.667969 90.992188 194.292969 89.910156 Z M 194.292969 89.910156 " fill-opacity="1" fill-rule="nonzero"/><path fill="#ff95bb" d="M 156.070312 135.539062 C 156.378906 133.757812 154.933594 132.140625 153.132812 131.964844 C 152.257812 131.878906 151.429688 132.148438 150.789062 132.652344 C 150.703125 132.710938 150.621094 132.78125 150.535156 132.875 C 150.113281 133.285156 149.804688 133.804688 149.652344 134.398438 C 149.632812 134.4375 149.617188 134.472656 149.597656 134.515625 C 147.046875 140.757812 149.351562 146.132812 149.351562 146.132812 C 149.644531 139.371094 153.921875 138.375 153.921875 138.375 C 153.921875 138.375 155.703125 137.652344 156.070312 135.539062 Z M 156.070312 135.539062 " fill-opacity="1" fill-rule="nonzero"/><path fill="#ff95bb" d="M 130.699219 132.398438 C 131.964844 133.140625 133.609375 132.5 134.253906 131.179688 C 134.570312 130.535156 134.597656 129.828125 134.394531 129.199219 C 134.375 129.117188 134.34375 129.03125 134.296875 128.941406 C 134.105469 128.503906 133.796875 128.121094 133.390625 127.835938 C 133.363281 127.8125 133.34375 127.789062 133.3125 127.761719 C 129.289062 124.046875 124.539062 124.273438 124.539062 124.273438 C 129.605469 126.417969 129.148438 129.957031 129.148438 129.957031 C 129.148438 129.957031 129.195312 131.519531 130.699219 132.398438 Z M 130.699219 132.398438 " fill-opacity="1" fill-rule="nonzero"/><path fill="#ff95bb" d="M 211.816406 160.300781 C 211.023438 161.054688 211.144531 162.367188 211.953125 163.101562 C 212.351562 163.460938 212.851562 163.628906 213.347656 163.613281 C 213.410156 163.613281 213.476562 163.609375 213.550781 163.597656 C 213.902344 163.550781 214.242188 163.40625 214.53125 163.171875 C 214.554688 163.160156 214.574219 163.148438 214.597656 163.132812 C 218.097656 161.015625 218.917969 157.5625 218.917969 157.5625 C 216.332031 160.753906 213.886719 159.695312 213.886719 159.695312 C 213.886719 159.695312 212.757812 159.402344 211.816406 160.300781 Z M 211.816406 160.300781 " fill-opacity="1" fill-rule="nonzero"/><path fill="#ff95bb" d="M 213.96875 130.816406 C 213.566406 129.976562 212.476562 129.726562 211.671875 130.1875 C 211.277344 130.414062 211.011719 130.773438 210.890625 131.175781 C 210.875 131.226562 210.859375 131.28125 210.851562 131.347656 C 210.796875 131.640625 210.824219 131.953125 210.933594 132.246094 C 210.941406 132.269531 210.941406 132.289062 210.949219 132.3125 C 211.734375 135.691406 214.304688 137.261719 214.304688 137.261719 C 212.414062 134.335938 213.910156 132.644531 213.910156 132.644531 C 213.910156 132.644531 214.441406 131.808594 213.96875 130.816406 Z M 213.96875 130.816406 " fill-opacity="1" fill-rule="nonzero"/><path fill="#ff95bb" d="M 246.761719 112.460938 C 248.011719 112.21875 248.71875 110.867188 248.386719 109.636719 C 248.226562 109.039062 247.839844 108.5625 247.347656 108.265625 C 247.289062 108.226562 247.222656 108.1875 247.140625 108.152344 C 246.765625 107.980469 246.347656 107.90625 245.917969 107.953125 C 245.886719 107.949219 245.859375 107.949219 245.828125 107.945312 C 241.082031 107.820312 238.117188 110.671875 238.117188 110.671875 C 242.640625 109.183594 244.363281 111.75 244.363281 111.75 C 244.363281 111.75 245.28125 112.742188 246.761719 112.460938 Z M 246.761719 112.460938 " fill-opacity="1" fill-rule="nonzero"/><path fill="#ff95bb" d="M 203.210938 69.699219 C 203.21875 68.242188 201.855469 67.148438 200.402344 67.25 C 199.695312 67.300781 199.070312 67.625 198.628906 68.113281 C 198.570312 68.171875 198.515625 68.238281 198.457031 68.324219 C 198.179688 68.703125 198.003906 69.160156 197.960938 69.648438 C 197.953125 69.6875 197.945312 69.714844 197.9375 69.753906 C 196.742188 75.054688 199.292969 79.015625 199.292969 79.015625 C 198.621094 73.601562 201.886719 72.238281 201.886719 72.238281 C 201.886719 72.238281 203.203125 71.425781 203.210938 69.699219 Z M 203.210938 69.699219 " fill-opacity="1" fill-rule="nonzero"/><path fill="#ff95bb" d="M 143.152344 131.773438 C 142.804688 130.601562 141.441406 130.054688 140.296875 130.492188 C 139.738281 130.703125 139.316406 131.117188 139.082031 131.617188 C 139.050781 131.679688 139.019531 131.746094 138.996094 131.828125 C 138.863281 132.203125 138.835938 132.613281 138.921875 133.015625 C 138.921875 133.046875 138.921875 133.074219 138.925781 133.105469 C 139.261719 137.660156 142.28125 140.222656 142.28125 140.222656 C 140.417969 136.035156 142.707031 134.140625 142.707031 134.140625 C 142.707031 134.140625 143.570312 133.164062 143.152344 131.773438 Z M 143.152344 131.773438 " fill-opacity="1" fill-rule="nonzero"/><path fill="#ff95bb" d="M 230.984375 99.738281 C 229.195312 99.957031 228.066406 101.808594 228.414062 103.578125 C 228.585938 104.441406 229.085938 105.152344 229.753906 105.621094 C 229.832031 105.683594 229.925781 105.742188 230.039062 105.796875 C 230.550781 106.082031 231.136719 106.226562 231.75 106.203125 C 231.792969 106.207031 231.832031 106.210938 231.878906 106.21875 C 238.582031 106.855469 243.054688 103.097656 243.054688 103.097656 C 236.503906 104.773438 234.316406 100.972656 234.316406 100.972656 C 234.316406 100.972656 233.109375 99.476562 230.984375 99.738281 Z M 230.984375 99.738281 " fill-opacity="1" fill-rule="nonzero"/><path fill="#ff95bb" d="M 123.78125 110.730469 C 124.78125 110.925781 125.710938 110.132812 125.832031 109.121094 C 125.890625 108.628906 125.746094 108.160156 125.472656 107.792969 C 125.4375 107.746094 125.398438 107.695312 125.347656 107.648438 C 125.125 107.40625 124.835938 107.226562 124.503906 107.132812 C 124.480469 107.121094 124.460938 107.113281 124.4375 107.101562 C 120.953125 105.585938 117.898438 106.820312 117.898438 106.820312 C 121.703125 107.066406 122.210938 109.488281 122.210938 109.488281 C 122.210938 109.488281 122.597656 110.5 123.78125 110.730469 Z M 123.78125 110.730469 " fill-opacity="1" fill-rule="nonzero"/><path fill="#ff95bb" d="M 168.402344 99.621094 C 168.230469 97.832031 166.417969 96.660156 164.648438 96.964844 C 163.78125 97.113281 163.058594 97.589844 162.578125 98.242188 C 162.511719 98.320312 162.453125 98.410156 162.394531 98.523438 C 162.097656 99.023438 161.9375 99.605469 161.949219 100.214844 C 161.941406 100.257812 161.933594 100.296875 161.929688 100.34375 C 161.121094 107 164.746094 111.550781 164.746094 111.550781 C 163.25 104.988281 167.089844 102.90625 167.089844 102.90625 C 167.089844 102.90625 168.605469 101.742188 168.402344 99.621094 Z M 168.402344 99.621094 " fill-opacity="1" fill-rule="nonzero"/><path fill="#ff95bb" d="M 131.851562 115.171875 C 130.820312 114.765625 129.671875 115.433594 129.34375 116.492188 C 129.183594 117.007812 129.246094 117.539062 129.46875 117.984375 C 129.496094 118.042969 129.527344 118.101562 129.570312 118.164062 C 129.765625 118.46875 130.039062 118.71875 130.375 118.882812 C 130.398438 118.898438 130.417969 118.914062 130.441406 118.929688 C 133.875 121.230469 137.386719 120.511719 137.386719 120.511719 C 133.363281 119.5 133.289062 116.808594 133.289062 116.808594 C 133.289062 116.808594 133.074219 115.652344 131.851562 115.171875 Z M 131.851562 115.171875 " fill-opacity="1" fill-rule="nonzero"/><path fill="#ff95bb" d="M 155.164062 90.234375 C 155.21875 88.710938 153.828125 87.523438 152.304688 87.578125 C 151.5625 87.605469 150.902344 87.925781 150.421875 88.421875 C 150.359375 88.480469 150.296875 88.550781 150.238281 88.636719 C 149.933594 89.027344 149.734375 89.496094 149.671875 90.007812 C 149.660156 90.042969 149.652344 90.074219 149.640625 90.113281 C 148.214844 95.617188 150.75 99.847656 150.75 99.847656 C 150.230469 94.164062 153.6875 92.847656 153.6875 92.847656 C 153.6875 92.847656 155.09375 92.039062 155.164062 90.234375 Z M 155.164062 90.234375 " fill-opacity="1" fill-rule="nonzero"/><path fill="#ff95bb" d="M 183.34375 119.582031 C 182.894531 121.609375 181.660156 122.5 181.660156 122.5 C 181.660156 122.5 181.664062 122.507812 181.671875 122.519531 C 181.371094 122.769531 181.222656 123.179688 181.324219 123.582031 C 181.46875 124.140625 182.039062 124.472656 182.59375 124.332031 C 182.867188 124.261719 183.085938 124.089844 183.222656 123.867188 C 183.238281 123.839844 183.257812 123.8125 183.273438 123.773438 C 183.355469 123.605469 183.53125 123.289062 183.511719 123.097656 C 183.511719 123.097656 184.070312 120.925781 183.34375 119.582031 Z M 183.34375 119.582031 " fill-opacity="1" fill-rule="nonzero"/><path fill="#ff95bb" d="M 259.011719 114.683594 C 256.792969 114.082031 255.875 112.667969 255.875 112.667969 C 255.875 112.667969 255.867188 112.675781 255.851562 112.683594 C 255.589844 112.335938 255.148438 112.152344 254.695312 112.246094 C 254.070312 112.375 253.671875 112.984375 253.800781 113.609375 C 253.863281 113.914062 254.042969 114.164062 254.28125 114.324219 C 254.308594 114.347656 254.339844 114.367188 254.382812 114.386719 C 254.5625 114.484375 254.902344 114.699219 255.117188 114.6875 C 255.117188 114.6875 257.488281 115.417969 259.011719 114.683594 Z M 259.011719 114.683594 " fill-opacity="1" fill-rule="nonzero"/><path fill="#ff95bb" d="M 205.292969 99.71875 C 202.957031 100.625 201.238281 99.980469 201.238281 99.980469 C 201.238281 99.980469 201.230469 99.992188 201.222656 100.007812 C 200.773438 99.871094 200.261719 99.996094 199.925781 100.371094 C 199.464844 100.886719 199.507812 101.683594 200.023438 102.148438 C 200.277344 102.375 200.59375 102.476562 200.910156 102.464844 C 200.949219 102.46875 200.992188 102.464844 201.039062 102.453125 C 201.261719 102.425781 201.695312 102.390625 201.878906 102.242188 C 201.878906 102.238281 204.429688 101.347656 205.292969 99.71875 Z M 205.292969 99.71875 " fill-opacity="1" fill-rule="nonzero"/><path fill="#ff95bb" d="M 161.804688 103.902344 C 159.386719 106.4375 156.828125 106.644531 156.828125 106.644531 C 156.828125 106.644531 156.828125 106.660156 156.824219 106.683594 C 156.171875 106.785156 155.601562 107.246094 155.402344 107.917969 C 155.121094 108.847656 155.648438 109.828125 156.578125 110.109375 C 157.035156 110.242188 157.5 110.1875 157.890625 109.984375 C 157.9375 109.964844 157.992188 109.933594 158.046875 109.894531 C 158.308594 109.722656 158.839844 109.417969 158.980469 109.121094 C 158.980469 109.121094 161.683594 106.472656 161.804688 103.902344 Z M 161.804688 103.902344 " fill-opacity="1" fill-rule="nonzero"/><path fill="#ff95bb" d="M 141.785156 73.765625 C 139.515625 75.398438 137.472656 75.179688 137.472656 75.179688 C 137.472656 75.179688 137.472656 75.195312 137.46875 75.214844 C 136.941406 75.195312 136.425781 75.472656 136.167969 75.96875 C 135.808594 76.65625 136.078125 77.503906 136.769531 77.863281 C 137.105469 78.035156 137.476562 78.058594 137.8125 77.960938 C 137.855469 77.949219 137.902344 77.933594 137.949219 77.914062 C 138.183594 77.816406 138.644531 77.65625 138.796875 77.445312 C 138.796875 77.445312 141.308594 75.765625 141.785156 73.765625 Z M 141.785156 73.765625 " fill-opacity="1" fill-rule="nonzero"/><path fill="#ff95bb" d="M 178.984375 106.152344 C 180.699219 107.148438 181.148438 108.53125 181.148438 108.53125 C 181.148438 108.53125 181.160156 108.53125 181.171875 108.527344 C 181.3125 108.875 181.640625 109.128906 182.039062 109.148438 C 182.589844 109.179688 183.058594 108.761719 183.089844 108.214844 C 183.105469 107.945312 183.011719 107.695312 182.851562 107.507812 C 182.832031 107.484375 182.808594 107.457031 182.78125 107.433594 C 182.652344 107.3125 182.414062 107.058594 182.234375 107.019531 C 182.234375 107.019531 180.417969 105.878906 178.984375 106.152344 Z M 178.984375 106.152344 " fill-opacity="1" fill-rule="nonzero"/><path fill="#ff95bb" d="M 214.355469 70.152344 C 210.851562 69.261719 209.367188 67.0625 209.367188 67.0625 C 209.367188 67.0625 209.351562 67.070312 209.328125 67.082031 C 208.910156 66.542969 208.207031 66.265625 207.496094 66.421875 C 206.519531 66.644531 205.902344 67.613281 206.125 68.59375 C 206.230469 69.070312 206.519531 69.460938 206.898438 69.710938 C 206.941406 69.742188 206.996094 69.777344 207.058594 69.804688 C 207.347656 69.957031 207.886719 70.28125 208.226562 70.257812 C 208.226562 70.257812 211.980469 71.347656 214.355469 70.152344 Z M 214.355469 70.152344 " fill-opacity="1" fill-rule="nonzero"/><path fill="#ff95bb" d="M 132.222656 111.984375 C 133.898438 113.714844 133.96875 115.476562 133.96875 115.476562 C 133.96875 115.476562 133.980469 115.480469 133.996094 115.480469 C 134.046875 115.929688 134.347656 116.335938 134.804688 116.492188 C 135.433594 116.710938 136.121094 116.375 136.339844 115.746094 C 136.445312 115.4375 136.417969 115.117188 136.292969 114.84375 C 136.277344 114.808594 136.261719 114.769531 136.234375 114.730469 C 136.125 114.546875 135.929688 114.171875 135.730469 114.066406 C 135.730469 114.066406 133.984375 112.140625 132.222656 111.984375 Z M 132.222656 111.984375 " fill-opacity="1" fill-rule="nonzero"/><path fill="#ff95bb" d="M 210.195312 106.304688 C 207.121094 106.875 205.160156 105.683594 205.160156 105.683594 C 205.160156 105.683594 205.152344 105.695312 205.136719 105.714844 C 204.613281 105.445312 203.960938 105.476562 203.460938 105.859375 C 202.769531 106.386719 202.640625 107.371094 203.167969 108.0625 C 203.425781 108.398438 203.789062 108.601562 204.179688 108.660156 C 204.226562 108.667969 204.277344 108.675781 204.339844 108.675781 C 204.621094 108.6875 205.164062 108.746094 205.421875 108.605469 C 205.421875 108.605469 208.761719 108.101562 210.195312 106.304688 Z M 210.195312 106.304688 " fill-opacity="1" fill-rule="nonzero"/><path fill="#ff95bb" d="M 126.605469 117.992188 C 124.347656 118.90625 122.667969 118.300781 122.667969 118.300781 C 122.667969 118.300781 122.664062 118.3125 122.65625 118.328125 C 122.214844 118.203125 121.71875 118.332031 121.398438 118.699219 C 120.957031 119.210938 121.007812 119.980469 121.515625 120.425781 C 121.765625 120.640625 122.078125 120.738281 122.382812 120.722656 C 122.417969 120.722656 122.460938 120.71875 122.507812 120.710938 C 122.722656 120.675781 123.144531 120.636719 123.320312 120.492188 C 123.320312 120.492188 125.789062 119.585938 126.605469 117.992188 Z M 126.605469 117.992188 " fill-opacity="1" fill-rule="nonzero"/><path fill="#ff95bb" d="M 170.441406 71.734375 C 168.050781 69.324219 167.917969 66.835938 167.917969 66.835938 C 167.917969 66.835938 167.898438 66.835938 167.875 66.835938 C 167.796875 66.199219 167.367188 65.632812 166.71875 65.421875 C 165.824219 65.125 164.859375 65.609375 164.566406 66.503906 C 164.421875 66.941406 164.464844 67.394531 164.648438 67.777344 C 164.667969 67.824219 164.695312 67.875 164.734375 67.929688 C 164.894531 68.191406 165.171875 68.714844 165.457031 68.859375 C 165.457031 68.859375 167.953125 71.546875 170.441406 71.734375 Z M 170.441406 71.734375 " fill-opacity="1" fill-rule="nonzero"/><path fill="#ff95bb" d="M 168.265625 66.636719 C 171.246094 66.289062 173.046875 67.554688 173.046875 67.554688 C 173.046875 67.554688 173.054688 67.542969 173.070312 67.527344 C 173.550781 67.816406 174.179688 67.828125 174.683594 67.492188 C 175.375 67.035156 175.5625 66.097656 175.105469 65.40625 C 174.878906 65.070312 174.542969 64.851562 174.175781 64.769531 C 174.128906 64.757812 174.078125 64.75 174.023438 64.746094 C 173.753906 64.714844 173.238281 64.621094 172.984375 64.742188 C 172.984375 64.742188 169.753906 65.007812 168.265625 66.636719 Z M 168.265625 66.636719 " fill-opacity="1" fill-rule="nonzero"/><path fill="#ff95bb" d="M 143.871094 76.675781 C 145.207031 74.84375 146.835938 74.492188 146.835938 74.492188 C 146.835938 74.492188 146.832031 74.480469 146.832031 74.464844 C 147.242188 74.347656 147.570312 74 147.640625 73.550781 C 147.742188 72.929688 147.320312 72.347656 146.699219 72.246094 C 146.394531 72.195312 146.101562 72.273438 145.867188 72.4375 C 145.835938 72.453125 145.808594 72.476562 145.773438 72.507812 C 145.621094 72.640625 145.304688 72.878906 145.238281 73.082031 C 145.238281 73.082031 143.730469 75.015625 143.871094 76.675781 Z M 143.871094 76.675781 " fill-opacity="1" fill-rule="nonzero"/><path fill="#ff95bb" d="M 148.21875 149.195312 C 146.957031 147.992188 146.855469 146.714844 146.855469 146.714844 C 146.855469 146.714844 146.847656 146.714844 146.832031 146.714844 C 146.785156 146.390625 146.554688 146.105469 146.21875 146.003906 C 145.757812 145.867188 145.269531 146.128906 145.128906 146.589844 C 145.0625 146.816406 145.089844 147.050781 145.1875 147.242188 C 145.199219 147.269531 145.214844 147.292969 145.234375 147.320312 C 145.320312 147.453125 145.472656 147.71875 145.617188 147.789062 C 145.617188 147.789062 146.9375 149.132812 148.21875 149.195312 Z M 148.21875 149.195312 " fill-opacity="1" fill-rule="nonzero"/><path fill="#ff95bb" d="M 133.46875 78.503906 C 131.980469 80.394531 130.238281 80.703125 130.238281 80.703125 C 130.238281 80.703125 130.238281 80.714844 130.242188 80.730469 C 129.800781 80.839844 129.441406 81.195312 129.34375 81.667969 C 129.214844 82.324219 129.640625 82.960938 130.292969 83.089844 C 130.613281 83.15625 130.929688 83.085938 131.183594 82.921875 C 131.214844 82.902344 131.25 82.882812 131.285156 82.851562 C 131.453125 82.714844 131.796875 82.472656 131.875 82.261719 C 131.875 82.261719 133.550781 80.273438 133.46875 78.503906 Z M 133.46875 78.503906 " fill-opacity="1" fill-rule="nonzero"/><path fill="#ff95bb" d="M 227 87.683594 C 227 87.683594 235.1875 90.277344 234.367188 96.695312 C 234.367188 96.695312 233.136719 100.125 230.96875 99.425781 C 228.796875 98.730469 228.019531 95.46875 230.445312 94.125 C 232.871094 92.78125 229.511719 88.261719 227 87.683594 Z M 227 87.683594 " fill-opacity="1" fill-rule="nonzero"/><path fill="#ff95bb" d="M 223.515625 102.800781 C 223.515625 102.800781 233.796875 106.964844 232.097656 115.144531 C 232.097656 115.144531 230.167969 119.433594 227.445312 118.320312 C 224.722656 117.207031 224.046875 112.929688 227.304688 111.445312 C 230.5625 109.957031 226.695312 103.796875 223.515625 102.800781 Z M 223.515625 102.800781 " fill-opacity="1" fill-rule="nonzero"/><path fill="#ff95bb" d="M 154.808594 157.503906 C 154.808594 157.503906 150.695312 149.804688 155.847656 145.722656 C 155.847656 145.722656 159.179688 144.105469 160.261719 146.152344 C 161.34375 148.195312 159.59375 151.121094 156.875 150.375 C 154.160156 149.628906 153.390625 155.300781 154.808594 157.503906 Z M 154.808594 157.503906 " fill-opacity="1" fill-rule="nonzero"/><path fill="#ff95bb" d="M 261.34375 134.183594 C 261.34375 134.183594 263.148438 140.550781 258.671875 142.742188 C 258.671875 142.742188 255.945312 143.40625 255.472656 141.714844 C 255 140.023438 256.769531 138.140625 258.660156 139.132812 C 260.550781 140.121094 262.039062 136.042969 261.34375 134.183594 Z M 261.34375 134.183594 " fill-opacity="1" fill-rule="nonzero"/><path fill="#ff95bb" d="M 182.90625 129.164062 C 182.90625 129.164062 185.441406 140.359375 177.484375 143.742188 C 177.484375 143.742188 172.699219 144.636719 172.039062 141.664062 C 171.375 138.691406 174.617188 135.59375 177.800781 137.484375 C 180.984375 139.375 183.9375 132.449219 182.90625 129.164062 Z M 182.90625 129.164062 " fill-opacity="1" fill-rule="nonzero"/><path fill="#ff95bb" d="M 193.871094 101.414062 C 193.871094 101.414062 187.160156 100.363281 187.039062 95.246094 C 187.039062 95.246094 187.59375 92.421875 189.371094 92.707031 C 191.152344 92.992188 192.148438 95.449219 190.410156 96.789062 C 188.675781 98.125 191.835938 101.261719 193.871094 101.414062 Z M 193.871094 101.414062 " fill-opacity="1" fill-rule="nonzero"/><path fill="#ff95bb" d="M 227.585938 97.191406 C 227.585938 97.191406 224.066406 108.246094 215.402344 107.125 C 215.402344 107.125 210.773438 105.453125 211.714844 102.527344 C 212.660156 99.597656 217.070312 98.554688 218.878906 101.832031 C 220.6875 105.109375 226.800781 100.585938 227.585938 97.191406 Z M 227.585938 97.191406 " fill-opacity="1" fill-rule="nonzero"/><path fill="#ff95bb" d="M 177.652344 97.515625 C 177.652344 97.515625 168.148438 94.066406 169.429688 86.558594 C 169.429688 86.558594 171.046875 82.589844 173.5625 83.511719 C 176.078125 84.4375 176.832031 88.3125 173.914062 89.773438 C 171 91.230469 174.722656 96.714844 177.652344 97.515625 Z M 177.652344 97.515625 " fill-opacity="1" fill-rule="nonzero"/><path fill="#ff95bb" d="M 145.371094 99.089844 C 145.371094 99.089844 151.628906 98.722656 152.742188 103.316406 C 152.742188 103.316406 152.792969 105.972656 151.132812 106.0625 C 149.472656 106.15625 148.09375 104.132812 149.398438 102.585938 C 150.703125 101.039062 147.234375 98.828125 145.371094 99.089844 Z M 145.371094 99.089844 " fill-opacity="1" fill-rule="nonzero"/><path fill="#ff95bb" d="M 150.011719 148.140625 C 150.011719 148.140625 151.113281 139.488281 157.675781 139.144531 C 157.675781 139.144531 161.324219 139.75 161.023438 142.042969 C 160.722656 144.335938 157.605469 145.707031 155.820312 143.527344 C 154.039062 141.347656 150.132812 145.523438 150.011719 148.140625 Z M 150.011719 148.140625 " fill-opacity="1" fill-rule="nonzero"/><path fill="#ff95bb" d="M 179.460938 141.273438 C 179.460938 141.273438 184.941406 142.746094 184.589844 147.007812 C 184.589844 147.007812 183.878906 149.308594 182.425781 148.910156 C 180.972656 148.515625 180.363281 146.382812 181.925781 145.425781 C 183.488281 144.46875 181.136719 141.582031 179.460938 141.273438 Z M 179.460938 141.273438 " fill-opacity="1" fill-rule="nonzero"/><path fill="#ff95bb" d="M 157.746094 113.890625 C 157.746094 113.890625 163.601562 113.292969 164.828125 117.554688 C 164.828125 117.554688 164.988281 120.042969 163.433594 120.195312 C 161.878906 120.347656 160.503906 118.507812 161.664062 117.003906 C 162.824219 115.5 159.484375 113.570312 157.746094 113.890625 Z M 157.746094 113.890625 " fill-opacity="1" fill-rule="nonzero"/><path fill="#ff95bb" d="M 241.566406 164.53125 C 241.566406 164.53125 231.84375 157.277344 235.914062 149.097656 C 235.914062 149.097656 239.144531 145.097656 241.714844 147.03125 C 244.285156 148.960938 243.8125 153.675781 239.953125 154.339844 C 236.097656 155.007812 238.480469 162.59375 241.566406 164.53125 Z M 241.566406 164.53125 " fill-opacity="1" fill-rule="nonzero"/><path fill="#ff95bb" d="M 208.816406 136.289062 C 208.816406 136.289062 202.871094 130.109375 206.65625 124.871094 C 206.65625 124.871094 209.371094 122.453125 210.941406 124.097656 C 212.511719 125.742188 211.636719 128.972656 208.867188 128.996094 C 206.101562 129.015625 206.886719 134.582031 208.816406 136.289062 Z M 208.816406 136.289062 " fill-opacity="1" fill-rule="nonzero"/><path fill="#ff95bb" d="M 126.398438 106.828125 C 126.398438 106.828125 136.082031 99.753906 142.625 105.984375 C 142.625 105.984375 145.46875 110.199219 142.890625 112.066406 C 140.316406 113.933594 136.003906 112.113281 136.496094 108.273438 C 136.988281 104.433594 129.125 104.476562 126.398438 106.828125 Z M 126.398438 106.828125 " fill-opacity="1" fill-rule="nonzero"/><path fill="#ff95bb" d="M 231.207031 142.609375 C 231.207031 142.609375 225.675781 141.054688 225.472656 138.996094 C 225.269531 136.9375 222.039062 138.390625 222.742188 140.289062 C 223.441406 142.191406 228.792969 144.785156 231.207031 142.609375 Z M 231.207031 142.609375 " fill-opacity="1" fill-rule="nonzero"/><path fill="#ff95bb" d="M 183.082031 108.226562 C 183.082031 108.226562 174.492188 109.179688 173.042969 106.425781 C 171.597656 103.671875 167.914062 107.519531 169.964844 109.773438 C 172.015625 112.027344 180.945312 112.625 183.082031 108.226562 Z M 183.082031 108.226562 " fill-opacity="1" fill-rule="nonzero"/><path fill="#ff95bb" d="M 180.382812 156.324219 C 180.382812 156.324219 175.304688 152.027344 176.078125 149.757812 C 176.851562 147.492188 172.753906 147.472656 172.578125 149.808594 C 172.402344 152.148438 176.792969 157.457031 180.382812 156.324219 Z M 180.382812 156.324219 " fill-opacity="1" fill-rule="nonzero"/><path fill="#ff95bb" d="M 245.804688 159.101562 C 245.804688 159.101562 250.960938 153.414062 253.542969 154.398438 C 256.125 155.378906 256.3125 150.652344 253.621094 150.359375 C 250.933594 150.066406 244.636719 154.917969 245.804688 159.101562 Z M 245.804688 159.101562 " fill-opacity="1" fill-rule="nonzero"/><path fill="#ff95bb" d="M 173.035156 99.367188 C 173.035156 99.367188 170.988281 102.875 169.542969 102.648438 C 168.097656 102.425781 168.519531 104.890625 169.945312 104.75 C 171.371094 104.609375 174.097656 101.40625 173.035156 99.367188 Z M 173.035156 99.367188 " fill-opacity="1" fill-rule="nonzero"/><path fill="#ff95bb" d="M 165.125 94.070312 C 165.125 94.070312 170.457031 95.867188 170.554688 97.890625 C 170.652344 99.917969 173.882812 98.65625 173.292969 96.761719 C 172.703125 94.867188 167.59375 92.058594 165.125 94.070312 Z M 165.125 94.070312 " fill-opacity="1" fill-rule="nonzero"/><path fill="#ff95bb" d="M 214.738281 167.484375 C 214.738281 167.484375 210.199219 168.945312 209.113281 167.617188 C 208.03125 166.289062 206.464844 168.773438 207.820312 169.765625 C 209.175781 170.757812 214.070312 170.097656 214.738281 167.484375 Z M 214.738281 167.484375 " fill-opacity="1" fill-rule="nonzero"/><path fill="#ff95bb" d="M 234.332031 133.351562 C 234.332031 133.351562 235.78125 137.410156 234.609375 138.429688 C 233.4375 139.445312 235.726562 140.792969 236.585938 139.539062 C 237.445312 138.285156 236.714844 133.882812 234.332031 133.351562 Z M 234.332031 133.351562 " fill-opacity="1" fill-rule="nonzero"/><path fill="#ff95bb" d="M 199.839844 83.710938 C 199.839844 83.710938 197.953125 88.21875 196.195312 88.179688 C 194.4375 88.140625 195.332031 91.015625 197.007812 90.621094 C 198.683594 90.222656 201.429688 85.972656 199.839844 83.710938 Z M 199.839844 83.710938 " fill-opacity="1" fill-rule="nonzero"/><path fill="#ff95bb" d="M 190.601562 64.308594 C 190.601562 64.308594 185.910156 68.460938 183.90625 67.429688 C 181.898438 66.402344 181.324219 70.21875 183.480469 70.699219 C 185.632812 71.175781 191.171875 67.804688 190.601562 64.308594 Z M 190.601562 64.308594 " fill-opacity="1" fill-rule="nonzero"/><path fill="#ff95bb" d="M 156.910156 133.792969 C 156.910156 133.792969 162.550781 129.476562 164.734375 130.800781 C 166.921875 132.125 167.878906 127.855469 165.480469 127.140625 C 163.082031 126.425781 156.546875 129.792969 156.910156 133.792969 Z M 156.910156 133.792969 " fill-opacity="1" fill-rule="nonzero"/><path fill="#ff95bb" d="M 189.648438 113.167969 C 189.648438 113.167969 195.90625 111.671875 197.226562 113.570312 C 198.550781 115.472656 200.914062 112.289062 199.191406 110.816406 C 197.46875 109.339844 190.820312 109.71875 189.648438 113.167969 Z M 189.648438 113.167969 " fill-opacity="1" fill-rule="nonzero"/><path fill="#ff95bb" d="M 262.289062 131.925781 C 262.289062 131.925781 255.089844 135.375 252.992188 133.414062 C 250.890625 131.453125 248.855469 135.925781 251.328125 137.265625 C 253.796875 138.605469 261.765625 136.414062 262.289062 131.925781 Z M 262.289062 131.925781 " fill-opacity="1" fill-rule="nonzero"/><path fill="#ff95bb" d="M 184.398438 128.21875 C 184.398438 128.21875 185.777344 133.542969 184.171875 134.707031 C 182.566406 135.867188 185.324219 137.839844 186.558594 136.34375 C 187.792969 134.847656 187.363281 129.164062 184.398438 128.21875 Z M 184.398438 128.21875 " fill-opacity="1" fill-rule="nonzero"/><path fill="#ff95bb" d="M 173 93.933594 C 173 93.933594 177.519531 91.921875 178.785156 93.175781 C 180.054688 94.425781 181.394531 91.6875 179.882812 90.816406 C 178.375 89.941406 173.402344 91.164062 173 93.933594 Z M 173 93.933594 " fill-opacity="1" fill-rule="nonzero"/><path fill="#ff95bb" d="M 225.144531 131.730469 C 225.144531 131.730469 225.910156 137.5625 229.789062 138.972656 C 233.667969 140.386719 233.394531 134.546875 231.183594 134.488281 C 228.972656 134.429688 228.632812 135.105469 228.632812 135.105469 C 228.632812 135.105469 225.28125 132.441406 225.144531 131.730469 Z M 225.144531 131.730469 " fill-opacity="1" fill-rule="nonzero"/><path fill="#ff95bb" d="M 178.78125 148.347656 C 178.78125 148.347656 178.847656 151.949219 181.109375 153.078125 C 183.375 154.203125 183.613281 150.628906 182.269531 150.441406 C 180.925781 150.253906 180.671875 150.640625 180.671875 150.640625 C 180.671875 150.640625 178.816406 148.789062 178.78125 148.347656 Z M 178.78125 148.347656 " fill-opacity="1" fill-rule="nonzero"/><path fill="#ff95bb" d="M 233.578125 156.308594 C 233.578125 156.308594 230.902344 158.484375 231.386719 160.855469 C 231.875 163.226562 234.710938 161.296875 234.058594 160.171875 C 233.40625 159.050781 232.964844 159.089844 232.964844 159.089844 C 232.964844 159.089844 233.265625 156.59375 233.578125 156.308594 Z M 233.578125 156.308594 " fill-opacity="1" fill-rule="nonzero"/><path fill="#ff95bb" d="M 237.84375 166.785156 C 237.84375 166.785156 232.710938 167.421875 231.441406 170.824219 C 230.175781 174.226562 235.316406 174.023438 235.378906 172.078125 C 235.445312 170.132812 234.851562 169.832031 234.851562 169.832031 C 234.851562 169.832031 237.214844 166.898438 237.84375 166.785156 Z M 237.84375 166.785156 " fill-opacity="1" fill-rule="nonzero"/><path fill="#ff95bb" d="M 158.949219 128.953125 C 158.949219 128.953125 156.214844 127.484375 154.410156 128.710938 C 152.609375 129.9375 155.199219 131.625 155.90625 130.691406 C 156.613281 129.761719 156.425781 129.40625 156.425781 129.40625 C 156.425781 129.40625 158.601562 128.792969 158.949219 128.953125 Z M 158.949219 128.953125 " fill-opacity="1" fill-rule="nonzero"/><path fill="#ff95bb" d="M 240.859375 109.507812 C 240.859375 109.507812 239.796875 113.128906 241.707031 114.964844 C 243.617188 116.800781 244.972656 113.300781 243.6875 112.695312 C 242.40625 112.085938 242.03125 112.394531 242.03125 112.394531 C 242.03125 112.394531 240.753906 109.960938 240.859375 109.507812 Z M 240.859375 109.507812 " fill-opacity="1" fill-rule="nonzero"/><path fill="#ff95bb" d="M 156.851562 77.394531 C 156.851562 77.394531 153.710938 82.796875 156.054688 86.503906 C 158.402344 90.210938 161.964844 85.121094 160.144531 83.636719 C 158.320312 82.152344 157.59375 82.5 157.59375 82.5 C 157.59375 82.5 156.503906 78.082031 156.851562 77.394531 Z M 156.851562 77.394531 " fill-opacity="1" fill-rule="nonzero"/><path fill="#ff95bb" d="M 156.253906 74.332031 C 156.253906 74.332031 159.296875 80.042969 163.839844 80 C 168.378906 79.957031 165.84375 74.042969 163.542969 74.839844 C 161.242188 75.632812 161.152344 76.460938 161.152344 76.460938 C 161.152344 76.460938 156.667969 75.011719 156.253906 74.332031 Z M 156.253906 74.332031 " fill-opacity="1" fill-rule="nonzero"/><path fill="#ff95bb" d="M 146.703125 90.121094 C 146.703125 90.121094 144.355469 85.570312 140.761719 85.558594 C 137.167969 85.546875 139.113281 90.25 140.941406 89.644531 C 142.769531 89.039062 142.847656 88.386719 142.847656 88.386719 C 142.847656 88.386719 146.378906 89.578125 146.703125 90.121094 Z M 146.703125 90.121094 " fill-opacity="1" fill-rule="nonzero"/><path fill="#ff95bb" d="M 221.230469 83.019531 C 221.230469 83.019531 220.046875 87.796875 222.636719 90.082031 C 225.226562 92.367188 226.800781 87.730469 225.09375 87.011719 C 223.386719 86.292969 222.917969 86.714844 222.917969 86.714844 C 222.917969 86.714844 221.117188 83.617188 221.230469 83.019531 Z M 221.230469 83.019531 " fill-opacity="1" fill-rule="nonzero"/><path fill="#ff95bb" d="M 169.144531 89.15625 C 169.144531 89.15625 163.371094 87.621094 160.546875 90.71875 C 157.71875 93.8125 163.3125 95.816406 164.21875 93.761719 C 165.128906 91.707031 164.625 91.128906 164.625 91.128906 C 164.625 91.128906 168.421875 89.007812 169.144531 89.15625 Z M 169.144531 89.15625 " fill-opacity="1" fill-rule="nonzero"/><path fill="#ff95bb" d="M 246.46875 128.289062 C 246.46875 128.289062 245.695312 132.902344 248.320312 134.878906 C 250.941406 136.855469 252.09375 132.351562 250.421875 131.792969 C 248.753906 131.234375 248.339844 131.667969 248.339844 131.667969 C 248.339844 131.667969 246.410156 128.863281 246.46875 128.289062 Z M 246.46875 128.289062 " fill-opacity="1" fill-rule="nonzero"/><path fill="#ff95bb" d="M 223.460938 151.671875 C 223.460938 151.671875 224.402344 145.769531 221.035156 143.269531 C 217.667969 140.769531 216.238281 146.539062 218.378906 147.234375 C 220.515625 147.933594 221.039062 147.371094 221.039062 147.371094 C 221.039062 147.371094 223.53125 150.9375 223.460938 151.671875 Z M 223.460938 151.671875 " fill-opacity="1" fill-rule="nonzero"/><path fill="#ff95bb" d="M 223.230469 147.726562 C 223.230469 147.726562 226.324219 149.058594 228.15625 147.5625 C 229.988281 146.066406 227.035156 144.488281 226.359375 145.5625 C 225.679688 146.632812 225.914062 147 225.914062 147 C 225.914062 147 223.621094 147.867188 223.230469 147.726562 Z M 223.230469 147.726562 " fill-opacity="1" fill-rule="nonzero"/><path fill="#ff95bb" d="M 152.386719 98.25 C 152.386719 98.25 154.089844 102.878906 157.519531 103.316406 C 160.953125 103.757812 159.65625 99.03125 157.835938 99.390625 C 156.015625 99.75 155.863281 100.367188 155.863281 100.367188 C 155.863281 100.367188 152.628906 98.804688 152.386719 98.25 Z M 152.386719 98.25 " fill-opacity="1" fill-rule="nonzero"/><path fill="#ff95bb" d="M 187.054688 161.632812 C 187.054688 161.632812 184.644531 160.007812 184.648438 159.15625 C 184.652344 158.304688 185.277344 157.464844 186.144531 157.855469 C 187.011719 158.246094 186.847656 159.433594 186.640625 160.46875 C 186.429688 161.503906 187.054688 161.632812 187.054688 161.632812 Z M 187.054688 161.632812 " fill-opacity="1" fill-rule="nonzero"/><path fill="#ff95bb" d="M 165.71875 111.582031 C 165.71875 111.582031 171.019531 112.859375 171.566406 114.363281 C 172.117188 115.863281 171.570312 117.746094 169.789062 117.625 C 168.007812 117.507812 167.519531 115.3125 167.210938 113.355469 C 166.902344 111.398438 165.71875 111.582031 165.71875 111.582031 Z M 165.71875 111.582031 " fill-opacity="1" fill-rule="nonzero"/><path fill="#ff95bb" d="M 220.355469 91.960938 C 220.355469 91.960938 224.230469 95.144531 224.085938 96.609375 C 223.941406 98.074219 222.730469 99.410156 221.304688 98.597656 C 219.875 97.789062 220.351562 95.773438 220.882812 94.03125 C 221.410156 92.285156 220.355469 91.960938 220.355469 91.960938 Z M 220.355469 91.960938 " fill-opacity="1" fill-rule="nonzero"/><path fill="#ff95bb" d="M 197.039062 175.363281 C 197.039062 175.363281 193.765625 171.519531 194.171875 170.097656 C 194.574219 168.671875 196.011719 167.5625 197.28125 168.621094 C 198.550781 169.679688 197.71875 171.589844 196.886719 173.222656 C 196.050781 174.855469 197.039062 175.363281 197.039062 175.363281 Z M 197.039062 175.363281 " fill-opacity="1" fill-rule="nonzero"/><path fill="#ff95bb" d="M 193.386719 79.535156 C 193.386719 79.535156 192.28125 76.15625 192.921875 75.335938 C 193.566406 74.515625 194.800781 74.171875 195.34375 75.203125 C 195.890625 76.230469 194.839844 77.253906 193.859375 78.097656 C 192.878906 78.941406 193.386719 79.535156 193.386719 79.535156 Z M 193.386719 79.535156 " fill-opacity="1" fill-rule="nonzero"/><path fill="#ff95bb" d="M 153.621094 77.953125 C 153.621094 77.953125 153.230469 75.125 153.855469 74.570312 C 154.480469 74.015625 155.503906 73.917969 155.789062 74.8125 C 156.070312 75.703125 155.09375 76.359375 154.203125 76.886719 C 153.308594 77.410156 153.621094 77.953125 153.621094 77.953125 Z M 153.621094 77.953125 " fill-opacity="1" fill-rule="nonzero"/><path fill="#ff95bb" d="M 250.9375 120.472656 C 250.9375 120.472656 253.921875 118.160156 254.972656 118.511719 C 256.023438 118.863281 256.800781 119.976562 255.96875 120.886719 C 255.132812 121.796875 253.734375 121.113281 252.542969 120.433594 C 251.351562 119.753906 250.9375 120.472656 250.9375 120.472656 Z M 250.9375 120.472656 " fill-opacity="1" fill-rule="nonzero"/><path fill="#ff95bb" d="M 219.65625 156.996094 C 219.65625 156.996094 223.710938 160.636719 223.484375 162.21875 C 223.257812 163.796875 221.882812 165.195312 220.371094 164.246094 C 218.863281 163.296875 219.472656 161.132812 220.128906 159.265625 C 220.785156 157.398438 219.65625 156.996094 219.65625 156.996094 Z M 219.65625 156.996094 " fill-opacity="1" fill-rule="nonzero"/><path fill="#ff95bb" d="M 224.539062 165.433594 C 224.539062 165.433594 222.320312 170.265625 220.777344 170.511719 C 219.238281 170.753906 217.539062 169.878906 217.988281 168.195312 C 218.4375 166.511719 220.628906 166.457031 222.5625 166.53125 C 224.492188 166.601562 224.539062 165.433594 224.539062 165.433594 Z M 224.539062 165.433594 " fill-opacity="1" fill-rule="nonzero"/><path fill="#ff95bb" d="M 222.054688 84.394531 C 222.054688 84.394531 223.789062 79.761719 225.203125 79.429688 C 226.617188 79.097656 228.253906 79.796875 227.949219 81.390625 C 227.648438 82.984375 225.617188 83.183594 223.820312 83.246094 C 222.023438 83.308594 222.054688 84.394531 222.054688 84.394531 Z M 222.054688 84.394531 " fill-opacity="1" fill-rule="nonzero"/><path fill="#ff95bb" d="M 212.632812 81.820312 C 212.632812 81.820312 211.28125 86.140625 210.007812 86.511719 C 208.734375 86.886719 207.203125 86.328125 207.402344 84.859375 C 207.597656 83.390625 209.445312 83.105469 211.082031 82.957031 C 212.71875 82.8125 212.632812 81.820312 212.632812 81.820312 Z M 212.632812 81.820312 " fill-opacity="1" fill-rule="nonzero"/><path fill="#ff95bb" d="M 165.351562 113.386719 C 165.351562 113.386719 161.582031 113.878906 160.847656 113.042969 C 160.113281 112.203125 160 110.839844 161.191406 110.472656 C 162.378906 110.101562 163.246094 111.410156 163.9375 112.605469 C 164.628906 113.800781 165.351562 113.386719 165.351562 113.386719 Z M 165.351562 113.386719 " fill-opacity="1" fill-rule="nonzero"/><path fill="#ff95bb" d="M 193.503906 85.695312 C 193.503906 85.695312 194.832031 81.175781 196.152344 80.765625 C 197.46875 80.351562 199.070312 80.90625 198.894531 82.4375 C 198.714844 83.96875 196.800781 84.296875 195.101562 84.480469 C 193.398438 84.667969 193.503906 85.695312 193.503906 85.695312 Z M 193.503906 85.695312 " fill-opacity="1" fill-rule="nonzero"/><path fill="#ff95bb" d="M 191.855469 135.320312 C 191.855469 135.320312 191.289062 138.875 190.328125 139.3125 C 189.371094 139.753906 188.101562 139.492188 188.089844 138.3125 C 188.074219 137.136719 189.492188 136.699219 190.765625 136.394531 C 192.035156 136.089844 191.855469 135.320312 191.855469 135.320312 Z M 191.855469 135.320312 " fill-opacity="1" fill-rule="nonzero"/><path fill="#ff95bb" d="M 227.539062 107.070312 C 227.539062 107.070312 224.664062 111.636719 223.082031 111.679688 C 221.5 111.722656 219.90625 110.613281 220.582031 108.980469 C 221.253906 107.34375 223.46875 107.582031 225.402344 107.910156 C 227.335938 108.238281 227.539062 107.070312 227.539062 107.070312 Z M 227.539062 107.070312 " fill-opacity="1" fill-rule="nonzero"/><path fill="#ff95bb" d="M 192.910156 101.9375 C 192.910156 101.9375 190.253906 104.539062 190.171875 105.648438 C 190.089844 106.753906 190.832031 109.777344 193.15625 109.839844 C 195.480469 109.898438 195.265625 107.324219 194.242188 105.550781 C 193.214844 103.773438 192.910156 101.9375 192.910156 101.9375 Z M 192.910156 101.9375 " fill-opacity="1" fill-rule="nonzero"/><path fill="#ff95bb" d="M 138.390625 97.851562 C 138.390625 97.851562 134.597656 98.859375 133.945312 99.832031 C 133.296875 100.804688 132.402344 103.972656 134.507812 105.234375 C 136.609375 106.5 137.753906 104.023438 137.734375 101.859375 C 137.714844 99.695312 138.390625 97.851562 138.390625 97.851562 Z M 138.390625 97.851562 " fill-opacity="1" fill-rule="nonzero"/><path fill="#ff95bb" d="M 138.066406 128.890625 C 138.066406 128.890625 135.503906 130.222656 135.195312 131.027344 C 134.882812 131.828125 134.746094 134.246094 136.460938 134.816406 C 138.171875 135.386719 138.597656 133.425781 138.238281 131.875 C 137.878906 130.324219 138.066406 128.890625 138.066406 128.890625 Z M 138.066406 128.890625 " fill-opacity="1" fill-rule="nonzero"/><path fill="#ff95bb" d="M 211.238281 98.839844 C 211.238281 98.839844 214.75 98.035156 215.375 97.164062 C 216.003906 96.292969 216.921875 93.417969 215.035156 92.195312 C 213.144531 90.96875 212.019531 93.199219 211.96875 95.183594 C 211.914062 97.167969 211.238281 98.839844 211.238281 98.839844 Z M 211.238281 98.839844 " fill-opacity="1" fill-rule="nonzero"/><path fill="#ff95bb" d="M 176.574219 74.875 C 176.574219 74.875 174.902344 76.386719 174.824219 77.054688 C 174.75 77.722656 175.125 79.574219 176.53125 79.664062 C 177.9375 79.757812 177.867188 78.195312 177.292969 77.09375 C 176.714844 75.996094 176.574219 74.875 176.574219 74.875 Z M 176.574219 74.875 " fill-opacity="1" fill-rule="nonzero"/><path fill="#ff95bb" d="M 260.757812 129.242188 C 260.757812 129.242188 261.554688 127.171875 261.324219 126.554688 C 261.09375 125.933594 259.941406 124.476562 258.667969 125.019531 C 257.390625 125.5625 258.144531 126.902344 259.140625 127.613281 C 260.136719 128.324219 260.757812 129.242188 260.757812 129.242188 Z M 260.757812 129.242188 " fill-opacity="1" fill-rule="nonzero"/><path fill="#ff95bb" d="M 123.375 87.84375 C 123.375 87.84375 125.382812 88.765625 126.015625 88.574219 C 126.644531 88.386719 128.164062 87.332031 127.703125 86.03125 C 127.242188 84.730469 125.863281 85.394531 125.097656 86.339844 C 124.328125 87.285156 123.375 87.84375 123.375 87.84375 Z M 123.375 87.84375 " fill-opacity="1" fill-rule="nonzero"/><path fill="#ff95bb" d="M 230.976562 76.917969 C 230.976562 76.917969 229.65625 80.183594 230.003906 81.175781 C 230.355469 82.164062 232.144531 84.511719 234.183594 83.679688 C 236.222656 82.851562 235.0625 80.699219 233.5 79.546875 C 231.9375 78.394531 230.976562 76.917969 230.976562 76.917969 Z M 230.976562 76.917969 " fill-opacity="1" fill-rule="nonzero"/><path fill="#ff95bb" d="M 224.871094 151.910156 C 224.871094 151.910156 222.894531 155.265625 223.113281 156.40625 C 223.328125 157.550781 224.902344 160.410156 227.273438 159.835938 C 229.640625 159.265625 228.722656 156.71875 227.203125 155.203125 C 225.683594 153.683594 224.871094 151.910156 224.871094 151.910156 Z M 224.871094 151.910156 " fill-opacity="1" fill-rule="nonzero"/><path fill="#ff95bb" d="M 259.566406 149.496094 C 259.566406 149.496094 258.472656 145.433594 257.429688 144.738281 C 256.382812 144.042969 252.988281 143.09375 251.640625 145.351562 C 250.289062 147.613281 252.945312 148.828125 255.265625 148.804688 C 257.585938 148.777344 259.566406 149.496094 259.566406 149.496094 Z M 259.566406 149.496094 " fill-opacity="1" fill-rule="nonzero"/><path fill="#ff95bb" d="M 230.691406 157.132812 C 230.691406 157.132812 232.484375 154.058594 232.28125 153.019531 C 232.078125 151.976562 230.628906 149.371094 228.46875 149.90625 C 226.308594 150.4375 227.15625 152.757812 228.550781 154.136719 C 229.945312 155.515625 230.691406 157.132812 230.691406 157.132812 Z M 230.691406 157.132812 " fill-opacity="1" fill-rule="nonzero"/><path fill="#ff95bb" d="M 228.644531 77.574219 C 228.644531 77.574219 228.335938 75.460938 227.851562 75.046875 C 227.367188 74.632812 225.710938 73.953125 224.894531 75.011719 C 224.082031 76.070312 225.347656 76.839844 226.515625 76.96875 C 227.6875 77.09375 228.644531 77.574219 228.644531 77.574219 Z M 228.644531 77.574219 " fill-opacity="1" fill-rule="nonzero"/><path fill="#ff95bb" d="M 200.332031 127.511719 C 200.332031 127.511719 202.210938 128.257812 202.777344 128.054688 C 203.34375 127.851562 204.683594 126.816406 204.199219 125.648438 C 203.71875 124.480469 202.488281 125.15625 201.832031 126.054688 C 201.175781 126.957031 200.332031 127.511719 200.332031 127.511719 Z M 200.332031 127.511719 " fill-opacity="1" fill-rule="nonzero"/><path fill="#ff95bb" d="M 250.507812 102.738281 C 250.507812 102.738281 248.484375 98.921875 247.277344 98.46875 C 246.074219 98.011719 242.457031 97.84375 241.628906 100.414062 C 240.796875 102.984375 243.734375 103.589844 246.046875 103.03125 C 248.363281 102.472656 250.507812 102.738281 250.507812 102.738281 Z M 250.507812 102.738281 " fill-opacity="1" fill-rule="nonzero"/><path fill="#ff95bb" d="M 226.890625 95.082031 C 226.890625 95.082031 228.425781 93.832031 228.519531 93.25 C 228.617188 92.667969 228.375 91.03125 227.144531 90.882812 C 225.917969 90.738281 225.902344 92.113281 226.359375 93.105469 C 226.816406 94.09375 226.890625 95.082031 226.890625 95.082031 Z M 226.890625 95.082031 " fill-opacity="1" fill-rule="nonzero"/><path fill="#ff95bb" d="M 226.976562 113.804688 C 226.976562 113.804688 223.253906 115.042969 221.386719 112.410156 C 219.519531 109.78125 217.949219 111.128906 218.035156 111.890625 C 218.125 112.652344 222.242188 116.867188 226.976562 113.804688 Z M 226.976562 113.804688 " fill-opacity="1" fill-rule="nonzero"/><path fill="#ff95bb" d="M 174.816406 120.90625 C 174.816406 120.90625 172.058594 121.996094 170.539062 120.085938 C 169.023438 118.175781 167.890625 119.257812 167.988281 119.828125 C 168.085938 120.398438 171.371094 123.414062 174.816406 120.90625 Z M 174.816406 120.90625 " fill-opacity="1" fill-rule="nonzero"/><path fill="#ff95bb" d="M 212.253906 158.964844 C 212.253906 158.964844 214.425781 155.921875 217.339844 156.898438 C 220.257812 157.875 220.710938 155.949219 220.214844 155.414062 C 219.71875 154.875 214.175781 153.945312 212.253906 158.964844 Z M 212.253906 158.964844 " fill-opacity="1" fill-rule="nonzero"/><path fill="#ff95bb" d="M 154.5625 80.992188 C 154.5625 80.992188 150.878906 77.105469 153.050781 73.277344 C 155.222656 69.445312 152.644531 68.28125 151.753906 68.832031 C 150.867188 69.378906 148.039062 76.914062 154.5625 80.992188 Z M 154.5625 80.992188 " fill-opacity="1" fill-rule="nonzero"/><path fill="#ff95bb" d="M 203.085938 81.585938 C 203.085938 81.585938 205.542969 80.015625 207.367188 81.570312 C 209.195312 83.125 210.082031 81.863281 209.878906 81.332031 C 209.675781 80.800781 205.9375 78.515625 203.085938 81.585938 Z M 203.085938 81.585938 " fill-opacity="1" fill-rule="nonzero"/><path fill="#ff95bb" d="M 189.003906 132.132812 C 189.003906 132.132812 191.570312 131.511719 192.671875 133.382812 C 193.773438 135.25 194.90625 134.4375 194.890625 133.921875 C 194.875 133.40625 192.351562 130.347656 189.003906 132.132812 Z M 189.003906 132.132812 " fill-opacity="1" fill-rule="nonzero"/><path fill="#ff95bb" d="M 245.929688 106.019531 C 245.929688 106.019531 248.433594 104.84375 249.957031 106.53125 C 251.484375 108.222656 252.472656 107.144531 252.347656 106.621094 C 252.222656 106.09375 248.992188 103.484375 245.929688 106.019531 Z M 245.929688 106.019531 " fill-opacity="1" fill-rule="nonzero"/><path fill="#ff95bb" d="M 203.695312 143.472656 C 203.695312 143.472656 207.804688 141.921875 210.007812 144.777344 C 212.214844 147.636719 213.914062 146.058594 213.78125 145.210938 C 213.648438 144.363281 208.851562 139.835938 203.695312 143.472656 Z M 203.695312 143.472656 " fill-opacity="1" fill-rule="nonzero"/><path fill="#ff95bb" d="M 207.59375 95.984375 C 207.59375 95.984375 208.242188 90.6875 212.566406 89.925781 C 216.890625 89.164062 216.148438 86.441406 215.160156 86.105469 C 214.175781 85.769531 206.589844 88.378906 207.59375 95.984375 Z M 207.59375 95.984375 " fill-opacity="1" fill-rule="nonzero"/><path fill="#ff95bb" d="M 196.59375 131.019531 C 196.59375 131.019531 195.550781 127.109375 198.378906 125.347656 C 201.203125 123.589844 199.914062 121.886719 199.121094 121.929688 C 198.332031 121.972656 193.734375 125.953125 196.59375 131.019531 Z M 196.59375 131.019531 " fill-opacity="1" fill-rule="nonzero"/><path fill="#ff95bb" d="M 216.191406 165.203125 C 216.191406 165.203125 213.972656 166.605469 212.339844 165.199219 C 210.707031 163.796875 209.902344 164.921875 210.082031 165.402344 C 210.261719 165.882812 213.613281 167.953125 216.191406 165.203125 Z M 216.191406 165.203125 " fill-opacity="1" fill-rule="nonzero"/><path fill="#ff95bb" d="M 123.519531 102.773438 C 123.519531 102.773438 125.582031 98.804688 129.199219 99.476562 C 132.816406 100.148438 133.035156 97.792969 132.359375 97.242188 C 131.679688 96.6875 124.960938 96.507812 123.519531 102.773438 Z M 123.519531 102.773438 " fill-opacity="1" fill-rule="nonzero"/><path fill="#ff95bb" d="M 216.277344 87.214844 C 216.277344 87.214844 218.992188 89.59375 217.773438 92.304688 C 216.554688 95.011719 218.359375 95.628906 218.921875 95.207031 C 219.484375 94.78125 220.914062 89.546875 216.277344 87.21875 Z M 216.277344 87.214844 " fill-opacity="1" fill-rule="nonzero"/><path fill="#ff95bb" d="M 184.128906 80.785156 C 184.128906 80.785156 184.710938 84.765625 181.71875 86.179688 C 178.726562 87.59375 179.808594 89.421875 180.59375 89.472656 C 181.375 89.519531 186.371094 86.113281 184.128906 80.785156 Z M 184.128906 80.785156 " fill-opacity="1" fill-rule="nonzero"/><path fill="#ff95bb" d="M 187.621094 63.394531 C 187.621094 63.394531 185.796875 65.125 183.996094 64.105469 C 182.199219 63.082031 181.652344 64.292969 181.910156 64.710938 C 182.167969 65.128906 185.707031 66.457031 187.621094 63.394531 Z M 187.621094 63.394531 " fill-opacity="1" fill-rule="nonzero"/><path fill="#ff95bb" d="M 223.738281 175.570312 C 223.738281 175.570312 221.355469 176.78125 219.832031 175.199219 C 218.308594 173.617188 217.386719 174.6875 217.523438 175.191406 C 217.660156 175.695312 220.863281 178.113281 223.738281 175.570312 Z M 223.738281 175.570312 " fill-opacity="1" fill-rule="nonzero"/><path fill="#ff95bb" d="M 239.574219 102.320312 C 239.574219 102.320312 237.921875 99.726562 239.570312 97.808594 C 241.214844 95.886719 239.890625 94.949219 239.328125 95.160156 C 238.765625 95.371094 236.34375 99.304688 239.574219 102.320312 Z M 239.574219 102.320312 " fill-opacity="1" fill-rule="nonzero"/><path fill="#ff95bb" d="M 243.652344 157.386719 C 243.652344 157.386719 243.066406 160.476562 240.492188 160.753906 C 237.921875 161.035156 238.253906 162.660156 238.820312 162.898438 C 239.386719 163.132812 243.945312 161.894531 243.652344 157.386719 Z M 243.652344 157.386719 " fill-opacity="1" fill-rule="nonzero"/><path fill="#ff95bb" d="M 122.636719 127.484375 C 122.636719 127.484375 125.410156 127.9375 125.71875 130.230469 C 126.03125 132.523438 127.476562 132.191406 127.675781 131.679688 C 127.871094 131.164062 126.660156 127.117188 122.636719 127.484375 Z M 122.636719 127.484375 " fill-opacity="1" fill-rule="nonzero"/><path fill="#ff95bb" d="M 189.535156 120.636719 C 189.535156 120.636719 184.785156 119.324219 184.679688 115.269531 C 184.570312 111.21875 181.984375 111.527344 181.546875 112.382812 C 181.105469 113.238281 182.457031 120.519531 189.535156 120.636719 Z M 189.535156 120.636719 " fill-opacity="1" fill-rule="nonzero"/><path fill="#ff95bb" d="M 137.910156 107.007812 C 137.910156 107.007812 136.328125 109.28125 134.15625 108.578125 C 131.988281 107.878906 131.667969 109.304688 132.039062 109.699219 C 132.410156 110.09375 136.523438 110.742188 137.910156 107.007812 Z M 137.910156 107.007812 " fill-opacity="1" fill-rule="nonzero"/><path fill="#ff95bb" d="M 251.34375 120.855469 C 251.34375 120.855469 254.261719 122.539062 253.636719 125.234375 C 253.011719 127.933594 254.777344 128.175781 255.214844 127.683594 C 255.652344 127.195312 256.007812 122.144531 251.34375 120.855469 Z M 251.34375 120.855469 " fill-opacity="1" fill-rule="nonzero"/><path fill="#ff95bb" d="M 201.410156 80.1875 C 201.410156 80.1875 204.429688 83.089844 202.871094 86.160156 C 201.316406 89.230469 203.371094 90.042969 204.046875 89.582031 C 204.722656 89.121094 206.652344 83.136719 201.410156 80.1875 Z M 201.410156 80.1875 " fill-opacity="1" fill-rule="nonzero"/><path fill="#ff95bb" d="M 150.628906 121.128906 C 150.628906 121.128906 153.066406 118.136719 156.007812 119.332031 C 158.945312 120.53125 159.539062 118.582031 159.0625 117.996094 C 158.589844 117.410156 152.941406 116.089844 150.628906 121.128906 Z M 150.628906 121.128906 " fill-opacity="1" fill-rule="nonzero"/><path fill="#ff95bb" d="M 201.808594 156.410156 C 201.808594 156.410156 199.535156 154.230469 200.707031 151.921875 C 201.875 149.609375 200.328125 149 199.820312 149.347656 C 199.316406 149.691406 197.863281 154.195312 201.808594 156.410156 Z M 201.808594 156.410156 " fill-opacity="1" fill-rule="nonzero"/><path fill="#ff95bb" d="M 149.726562 123.101562 C 149.726562 123.101562 147.386719 119.546875 149.621094 116.851562 C 151.855469 114.15625 150 112.886719 149.226562 113.195312 C 148.453125 113.5 145.191406 119 149.726562 123.101562 Z M 149.726562 123.101562 " fill-opacity="1" fill-rule="nonzero"/><path fill="#ff95bb" d="M 151.851562 121.59375 C 151.851562 121.59375 156.070312 121.355469 157.269531 124.617188 C 158.46875 127.878906 160.484375 126.917969 160.605469 126.101562 C 160.730469 125.289062 157.632812 119.746094 151.851562 121.59375 Z M 151.851562 121.59375 " fill-opacity="1" fill-rule="nonzero"/><path fill="#ff95bb" d="M 168.824219 137.566406 C 168.824219 137.566406 166.1875 136.949219 166.039062 134.726562 C 165.890625 132.5 164.476562 132.726562 164.253906 133.207031 C 164.03125 133.6875 164.929688 137.65625 168.824219 137.566406 Z M 168.824219 137.566406 " fill-opacity="1" fill-rule="nonzero"/><path fill="#ff95bb" d="M 135.222656 100.9375 C 135.222656 100.9375 136.039062 95.644531 140.398438 95.019531 C 144.757812 94.390625 144.097656 91.640625 143.117188 91.269531 C 142.140625 90.902344 134.453125 93.28125 135.222656 100.9375 Z M 135.222656 100.9375 " fill-opacity="1" fill-rule="nonzero"/><path fill="#ff95bb" d="M 129.75 107.898438 C 129.75 107.898438 130 111.394531 127.308594 112.429688 C 124.617188 113.46875 125.441406 115.128906 126.117188 115.21875 C 126.796875 115.3125 131.355469 112.671875 129.75 107.898438 Z M 129.75 107.898438 " fill-opacity="1" fill-rule="nonzero"/><path fill="#ff95bb" d="M 219.746094 129.109375 C 219.746094 129.109375 220.367188 124.550781 220.722656 123.660156 C 221.074219 122.769531 224.308594 123.132812 222.984375 125.542969 C 221.664062 127.949219 220.53125 126.800781 219.746094 129.109375 Z M 219.746094 129.109375 " fill-opacity="1" fill-rule="nonzero"/><path fill="#ff95bb" d="M 229.347656 120.605469 C 229.347656 120.605469 227.074219 124.65625 226.410156 125.363281 C 225.75 126.066406 222.84375 124.523438 224.980469 122.753906 C 227.117188 120.980469 227.753906 122.480469 229.347656 120.605469 Z M 229.347656 120.605469 " fill-opacity="1" fill-rule="nonzero"/><path fill="#ff95bb" d="M 204.386719 129.738281 C 204.386719 129.738281 203.070312 134.074219 202.589844 134.882812 C 202.105469 135.691406 199.019531 134.835938 200.679688 132.699219 C 202.34375 130.5625 203.261719 131.859375 204.386719 129.738281 Z M 204.386719 129.738281 " fill-opacity="1" fill-rule="nonzero"/><path fill="#ff95bb" d="M 214.164062 143.371094 C 214.164062 143.371094 208.828125 139.363281 207.949219 138.289062 C 207.070312 137.210938 209.816406 133.371094 211.933594 136.746094 C 214.054688 140.125 211.796875 140.742188 214.164062 143.371094 Z M 214.164062 143.371094 " fill-opacity="1" fill-rule="nonzero"/><path fill="#ff95bb" d="M 187.238281 148.15625 C 187.238281 148.15625 189.375 152.882812 189.570312 153.945312 C 189.765625 155.003906 186.460938 156.597656 186.28125 153.503906 C 186.097656 150.410156 187.871094 150.832031 187.238281 148.15625 Z M 187.238281 148.15625 " fill-opacity="1" fill-rule="nonzero"/><g clip-path="url(#26580db19d)"><path fill="#ff95bb" d="M 111.835938 100.898438 C 111.835938 100.898438 120.601562 98.328125 122.5 98.246094 C 124.402344 98.164062 126.367188 104.320312 120.929688 103.878906 C 115.488281 103.433594 116.660156 100.453125 111.835938 100.898438 Z M 111.835938 100.898438 " fill-opacity="1" fill-rule="nonzero"/></g><path fill="#ff95bb" d="M 181.101562 102.664062 C 181.101562 102.664062 188.144531 100.25 189.683594 100.117188 C 191.226562 99.980469 193.050781 104.917969 188.609375 104.757812 C 184.167969 104.59375 185.011719 102.121094 181.101562 102.664062 Z M 181.101562 102.664062 " fill-opacity="1" fill-rule="nonzero"/><path fill="#ff95bb" d="M 126.929688 120.632812 C 126.929688 120.632812 124.484375 124.8125 123.78125 125.535156 C 123.078125 126.253906 120.078125 124.59375 122.339844 122.789062 C 124.597656 120.980469 125.234375 122.558594 126.929688 120.632812 Z M 126.929688 120.632812 " fill-opacity="1" fill-rule="nonzero"/><path fill="#ff95bb" d="M 238.90625 129.90625 C 238.90625 129.90625 245.308594 132.515625 246.46875 133.363281 C 247.632812 134.210938 245.894531 138.78125 242.882812 135.953125 C 239.871094 133.128906 241.972656 131.914062 238.90625 129.90625 Z M 238.90625 129.90625 " fill-opacity="1" fill-rule="nonzero"/><path fill="#ff95bb" d="M 144.355469 108.832031 C 144.355469 108.832031 151.5 107.296875 153.023438 107.34375 C 154.542969 107.390625 155.746094 112.417969 151.433594 111.742188 C 147.121094 111.070312 148.230469 108.757812 144.355469 108.832031 Z M 144.355469 108.832031 " fill-opacity="1" fill-rule="nonzero"/><path fill="#ff95bb" d="M 132.515625 100.183594 C 132.515625 100.183594 129.164062 105.21875 128.234375 106.066406 C 127.308594 106.917969 123.691406 104.632812 126.636719 102.542969 C 129.582031 100.453125 130.261719 102.460938 132.515625 100.183594 Z M 132.515625 100.183594 " fill-opacity="1" fill-rule="nonzero"/><path fill="#ff95bb" d="M 181.914062 132.417969 C 181.914062 132.417969 179.253906 136.519531 178.511719 137.214844 C 177.765625 137.910156 174.824219 136.09375 177.183594 134.378906 C 179.546875 132.660156 180.113281 134.28125 181.914062 132.417969 Z M 181.914062 132.417969 " fill-opacity="1" fill-rule="nonzero"/><path fill="#ff95bb" d="M 246.699219 93.171875 C 246.699219 93.171875 241.246094 92.859375 240.164062 92.523438 C 239.078125 92.1875 239.207031 88.324219 242.179688 89.667969 C 245.152344 91.011719 243.894531 92.457031 246.699219 93.171875 Z M 246.699219 93.171875 " fill-opacity="1" fill-rule="nonzero"/><path fill="#ff95bb" d="M 218.238281 83.015625 C 218.238281 83.015625 211.101562 79.507812 209.835938 78.441406 C 208.570312 77.375 210.929688 72.269531 214.160156 75.753906 C 217.386719 79.238281 214.882812 80.464844 218.238281 83.015625 Z M 218.238281 83.015625 " fill-opacity="1" fill-rule="nonzero"/><path fill="#ff95bb" d="M 232.292969 107.644531 C 232.292969 107.644531 237.96875 112.351562 238.878906 113.585938 C 239.789062 114.820312 236.554688 118.914062 234.398438 115.074219 C 232.242188 111.230469 234.769531 110.667969 232.292969 107.644531 Z M 232.292969 107.644531 " fill-opacity="1" fill-rule="nonzero"/><path fill="#ff95bb" d="M 157.039062 136.28125 C 157.039062 136.28125 159.582031 135.925781 159.957031 137.074219 C 160.335938 138.21875 162.621094 139.019531 163.242188 137.03125 C 163.859375 135.039062 159.382812 132.832031 157.039062 136.28125 Z M 157.039062 136.28125 " fill-opacity="1" fill-rule="nonzero"/><path fill="#ff95bb" d="M 193.988281 99.421875 C 193.988281 99.421875 196.578125 102.144531 195.535156 103.570312 C 194.488281 104.992188 195.484375 108.394531 198.378906 107.433594 C 201.273438 106.476562 200.085938 99.277344 193.988281 99.421875 Z M 193.988281 99.421875 " fill-opacity="1" fill-rule="nonzero"/><path fill="#ff95bb" d="M 235.945312 162.515625 C 235.945312 162.515625 237.808594 164.410156 237.085938 165.429688 C 236.363281 166.449219 237.109375 168.839844 239.144531 168.128906 C 241.179688 167.417969 240.257812 162.339844 235.945312 162.515625 Z M 235.945312 162.515625 " fill-opacity="1" fill-rule="nonzero"/><path fill="#ff95bb" d="M 141.546875 136.808594 C 141.546875 136.808594 144.042969 139.339844 143.078125 140.703125 C 142.117188 142.070312 143.117188 145.265625 145.835938 144.3125 C 148.554688 143.355469 147.3125 136.566406 141.546875 136.808594 Z M 141.546875 136.808594 " fill-opacity="1" fill-rule="nonzero"/><path fill="#ff95bb" d="M 175.664062 132.65625 C 175.664062 132.65625 177.171875 131.148438 177.992188 131.71875 C 178.816406 132.292969 180.734375 131.675781 180.148438 130.046875 C 179.5625 128.417969 175.492188 129.195312 175.664062 132.65625 Z M 175.664062 132.65625 " fill-opacity="1" fill-rule="nonzero"/><path fill="#ff95bb" d="M 197.054688 164.808594 C 197.054688 164.808594 196.125 162.46875 197.132812 161.847656 C 198.136719 161.222656 198.367188 158.863281 196.332031 158.734375 C 194.296875 158.605469 193.230469 163.375 197.054688 164.808594 Z M 197.054688 164.808594 " fill-opacity="1" fill-rule="nonzero"/><path fill="#ff95bb" d="M 156.386719 154.171875 C 156.386719 154.171875 158.199219 154.050781 158.402344 154.878906 C 158.609375 155.710938 160.179688 156.390625 160.71875 155.019531 C 161.257812 153.648438 158.21875 151.863281 156.386719 154.171875 Z M 156.386719 154.171875 " fill-opacity="1" fill-rule="nonzero"/><path fill="#ff95bb" d="M 254.019531 138.335938 C 254.019531 138.335938 251.378906 140.253906 250.273438 139.191406 C 249.171875 138.128906 246.132812 138.59375 246.621094 141.191406 C 247.113281 143.789062 253.445312 143.597656 254.019531 138.335938 Z M 254.019531 138.335938 " fill-opacity="1" fill-rule="nonzero"/><path fill="#ff95bb" d="M 119.570312 92.386719 C 119.570312 92.386719 119.882812 94.25 119.046875 94.546875 C 118.207031 94.847656 117.664062 96.542969 119.140625 96.960938 C 120.617188 97.378906 122.152344 94.042969 119.570312 92.386719 Z M 119.570312 92.386719 " fill-opacity="1" fill-rule="nonzero"/><path fill="#ff95bb" d="M 221.269531 173.761719 C 221.269531 173.761719 224.582031 172.667969 225.363281 174.113281 C 226.144531 175.554688 229.394531 176.070312 229.742188 173.261719 C 230.085938 170.449219 223.570312 168.582031 221.269531 173.761719 Z M 221.269531 173.761719 " fill-opacity="1" fill-rule="nonzero"/><path fill="#ff95bb" d="M 222.03125 75.484375 C 222.03125 75.484375 221.085938 77.082031 220.269531 76.777344 C 219.449219 76.472656 217.96875 77.40625 218.816406 78.652344 C 219.660156 79.898438 222.925781 78.363281 222.03125 75.484375 Z M 222.03125 75.484375 " fill-opacity="1" fill-rule="nonzero"/><path fill="#ff95bb" d="M 230.601562 130.347656 C 230.601562 130.347656 227.28125 130.589844 226.894531 129.070312 C 226.507812 127.554688 223.621094 126.324219 222.648438 128.84375 C 221.675781 131.363281 227.273438 134.605469 230.601562 130.347656 Z M 230.601562 130.347656 " fill-opacity="1" fill-rule="nonzero"/><path fill="#ff95bb" d="M 184.621094 140.496094 C 184.621094 140.496094 187.023438 141.84375 186.601562 143.070312 C 186.175781 144.292969 187.605469 146.460938 189.429688 145.164062 C 191.25 143.871094 188.863281 139.078125 184.621094 140.496094 Z M 184.621094 140.496094 " fill-opacity="1" fill-rule="nonzero"/><path fill="#ff95bb" d="M 228.667969 87.988281 C 228.667969 87.988281 229.09375 86.105469 229.996094 86.148438 C 230.902344 86.1875 232.070312 84.796875 230.839844 83.832031 C 229.605469 82.871094 226.871094 85.425781 228.667969 87.988281 Z M 228.667969 87.988281 " fill-opacity="1" fill-rule="nonzero"/><path fill="#ff95bb" d="M 209.925781 176.917969 C 209.925781 176.917969 211.851562 174.863281 212.964844 175.582031 C 214.074219 176.300781 216.578125 175.410156 215.734375 173.285156 C 214.890625 171.160156 209.550781 172.363281 209.925781 176.917969 Z M 209.925781 176.917969 " fill-opacity="1" fill-rule="nonzero"/><path fill="#ff95bb" d="M 213.316406 107.867188 C 213.316406 107.867188 211.484375 108.363281 211.53125 109.796875 C 211.582031 111.230469 210.679688 111.570312 210.230469 110.773438 C 209.78125 109.976562 209.363281 107.828125 213.316406 107.867188 Z M 213.316406 107.867188 " fill-opacity="1" fill-rule="nonzero"/><path fill="#ff95bb" d="M 169.539062 153.539062 C 169.539062 153.539062 169.738281 154.96875 170.824219 155.066406 C 171.910156 155.167969 172.082031 155.878906 171.4375 156.144531 C 170.792969 156.40625 169.132812 156.515625 169.539062 153.539062 Z M 169.539062 153.539062 " fill-opacity="1" fill-rule="nonzero"/><path fill="#ff95bb" d="M 205.039062 187.390625 C 205.039062 187.390625 206.347656 187.015625 206.300781 185.988281 C 206.253906 184.960938 206.898438 184.707031 207.230469 185.277344 C 207.558594 185.84375 207.875 187.382812 205.039062 187.390625 Z M 205.039062 187.390625 " fill-opacity="1" fill-rule="nonzero"/><path fill="#ff95bb" d="M 168.121094 103.738281 C 168.121094 103.738281 166.492188 105.898438 167.796875 107.472656 C 169.101562 109.042969 168.382812 110.21875 167.183594 109.710938 C 165.980469 109.203125 163.632812 107.144531 168.121094 103.738281 Z M 168.121094 103.738281 " fill-opacity="1" fill-rule="nonzero"/><path fill="#ff95bb" d="M 221.054688 70.675781 C 221.054688 70.675781 221.570312 72.066406 222.679688 71.929688 C 223.789062 71.792969 224.117188 72.46875 223.527344 72.875 C 222.941406 73.277344 221.296875 73.75 221.054688 70.675781 Z M 221.054688 70.675781 " fill-opacity="1" fill-rule="nonzero"/><path fill="#ff95bb" d="M 244.621094 94.863281 C 244.621094 94.863281 245.660156 95.746094 246.488281 95.136719 C 247.316406 94.527344 247.886719 94.921875 247.59375 95.511719 C 247.304688 96.101562 246.199219 97.222656 244.621094 94.863281 Z M 244.621094 94.863281 " fill-opacity="1" fill-rule="nonzero"/><path fill="#ff95bb" d="M 180.371094 66.46875 C 180.371094 66.46875 179.0625 65.421875 178.0625 66.207031 C 177.066406 66.988281 176.351562 66.519531 176.6875 65.785156 C 177.023438 65.050781 178.339844 63.632812 180.371094 66.46875 Z M 180.371094 66.46875 " fill-opacity="1" fill-rule="nonzero"/><path fill="#ff95bb" d="M 133.484375 124.234375 C 133.484375 124.234375 132.625 122.78125 131.40625 123.160156 C 130.1875 123.539062 129.679688 122.847656 130.257812 122.273438 C 130.835938 121.699219 132.582031 120.832031 133.484375 124.234375 Z M 133.484375 124.234375 " fill-opacity="1" fill-rule="nonzero"/><path fill="#ff95bb" d="M 134.789062 126.96875 C 134.789062 126.96875 136.242188 125.964844 135.757812 124.726562 C 135.273438 123.484375 135.960938 122.90625 136.597656 123.464844 C 137.238281 124.027344 138.269531 125.78125 134.789062 126.96875 Z M 134.789062 126.96875 " fill-opacity="1" fill-rule="nonzero"/><path fill="#ff95bb" d="M 234.84375 157.949219 C 234.84375 157.949219 234.824219 159.761719 236.152344 160.085938 C 237.480469 160.410156 237.5625 161.328125 236.714844 161.535156 C 235.867188 161.738281 233.785156 161.566406 234.84375 157.949219 Z M 234.84375 157.949219 " fill-opacity="1" fill-rule="nonzero"/><path fill="#ff95bb" d="M 201.292969 129.394531 C 201.292969 129.394531 198.671875 130.453125 198.996094 132.5625 C 199.320312 134.671875 198.046875 135.335938 197.242188 134.238281 C 196.441406 133.136719 195.441406 130.035156 201.292969 129.394531 Z M 201.292969 129.394531 " fill-opacity="1" fill-rule="nonzero"/><path fill="#ff95bb" d="M 176.933594 123.035156 C 176.933594 123.035156 178.027344 125.746094 180.207031 125.414062 C 182.386719 125.082031 183.074219 126.398438 181.9375 127.230469 C 180.796875 128.058594 177.589844 129.085938 176.933594 123.035156 Z M 176.933594 123.035156 " fill-opacity="1" fill-rule="nonzero"/><path fill="#ff95bb" d="M 202.71875 135.289062 C 202.71875 135.289062 200.90625 137.21875 202.011719 138.886719 C 203.113281 140.550781 202.289062 141.617188 201.175781 140.996094 C 200.0625 140.378906 197.996094 138.128906 202.71875 135.289062 Z M 202.71875 135.289062 " fill-opacity="1" fill-rule="nonzero"/><path fill="#ff95bb" d="M 144.988281 97.730469 C 144.988281 97.730469 146.78125 96.066406 145.867188 94.460938 C 144.953125 92.855469 145.78125 91.925781 146.769531 92.566406 C 147.757812 93.207031 149.519531 95.410156 144.988281 97.730469 Z M 144.988281 97.730469 " fill-opacity="1" fill-rule="nonzero"/><path fill="#ff95bb" d="M 168.417969 76.25 C 168.417969 76.25 168.214844 78.429688 169.78125 78.957031 C 171.347656 79.484375 171.351562 80.597656 170.3125 80.757812 C 169.269531 80.921875 166.777344 80.503906 168.417969 76.25 Z M 168.417969 76.25 " fill-opacity="1" fill-rule="nonzero"/><path fill="#ff95bb" d="M 135.921875 87.304688 C 135.921875 87.304688 137.679688 89.835938 135.210938 92.539062 C 132.746094 95.246094 135.898438 95.40625 136.183594 93.945312 C 136.46875 92.480469 138.4375 90.207031 135.921875 87.304688 Z M 135.921875 87.304688 " fill-opacity="1" fill-rule="nonzero"/><path fill="#ff95bb" d="M 150.753906 117.285156 C 150.753906 117.285156 151.769531 114.597656 155.152344 115.0625 C 158.535156 115.53125 156.992188 113.019531 155.71875 113.574219 C 154.445312 114.128906 151.65625 113.820312 150.753906 117.285156 Z M 150.753906 117.285156 " fill-opacity="1" fill-rule="nonzero"/><path fill="#ff95bb" d="M 217.5 138.4375 C 217.5 138.4375 216.003906 135.585938 218.914062 133.101562 C 221.824219 130.617188 218.574219 130.042969 218.089844 131.523438 C 217.605469 133 215.269531 135.101562 217.5 138.4375 Z M 217.5 138.4375 " fill-opacity="1" fill-rule="nonzero"/><path fill="#ff95bb" d="M 237.753906 133.714844 C 237.753906 133.714844 240.058594 135.253906 238.882812 138.328125 C 237.707031 141.398438 240.398438 140.496094 240.15625 139.179688 C 239.914062 137.867188 240.8125 135.316406 237.753906 133.714844 Z M 237.753906 133.714844 " fill-opacity="1" fill-rule="nonzero"/><path fill="#ff95bb" d="M 170.222656 144.226562 C 170.222656 144.226562 171.136719 146.640625 168.585938 148.339844 C 166.03125 150.039062 168.5625 150.808594 169.089844 149.675781 C 169.617188 148.546875 171.679688 147.09375 170.222656 144.226562 Z M 170.222656 144.226562 " fill-opacity="1" fill-rule="nonzero"/><path fill="#ff95bb" d="M 202.15625 132.78125 C 202.15625 132.78125 205.535156 134.511719 204.421875 138.882812 C 203.308594 143.253906 206.832031 141.597656 206.292969 139.84375 C 205.753906 138.089844 206.574219 134.476562 202.15625 132.78125 Z M 202.15625 132.78125 " fill-opacity="1" fill-rule="nonzero"/><path fill="#ff95bb" d="M 160.035156 85.882812 C 160.035156 85.882812 161.90625 83.136719 165.585938 84.578125 C 169.261719 86.023438 168.207031 82.78125 166.625 83.058594 C 165.039062 83.335938 161.988281 82.226562 160.035156 85.882812 Z M 160.035156 85.882812 " fill-opacity="1" fill-rule="nonzero"/><path fill="#ff95bb" d="M 250.859375 114.703125 C 250.859375 114.703125 250.566406 111.886719 253.753906 110.808594 C 256.941406 109.726562 254.472656 108.199219 253.597656 109.246094 C 252.71875 110.296875 250.125 111.253906 250.859375 114.703125 Z M 250.859375 114.703125 " fill-opacity="1" fill-rule="nonzero"/><path fill="#ff95bb" d="M 128.199219 84.910156 C 128.199219 84.910156 132.453125 83.808594 134.851562 88.445312 C 137.25 93.082031 139.023438 88.941406 137.207031 87.839844 C 135.394531 86.734375 133.324219 82.976562 128.199219 84.910156 Z M 128.199219 84.910156 " fill-opacity="1" fill-rule="nonzero"/><path fill="#ff95bb" d="M 169.21875 121.3125 C 169.21875 121.3125 166.78125 123.933594 163.097656 121.800781 C 159.417969 119.667969 160.015625 123.289062 161.746094 123.25 C 163.476562 123.214844 166.546875 124.886719 169.21875 121.3125 Z M 169.21875 121.3125 " fill-opacity="1" fill-rule="nonzero"/><path fill="#ff95bb" d="M 145.53125 144.242188 C 145.53125 144.242188 149.273438 144.691406 149.742188 149.144531 C 150.210938 153.601562 152.921875 150.847656 151.816406 149.398438 C 150.710938 147.949219 150.230469 144.300781 145.53125 144.242188 Z M 145.53125 144.242188 " fill-opacity="1" fill-rule="nonzero"/><path fill="#ff95bb" d="M 202.464844 141.972656 C 202.464844 141.972656 200.882812 146.738281 194.945312 146.164062 C 189.007812 145.585938 191.882812 149.855469 194.066406 148.800781 C 196.25 147.746094 201.140625 148.089844 202.464844 141.972656 Z M 202.464844 141.972656 " fill-opacity="1" fill-rule="nonzero"/><path fill="#ff95bb" d="M 252.375 115.375 C 252.375 115.375 256.746094 116.015625 257.160156 121.25 C 257.574219 126.484375 260.832031 123.339844 259.582031 121.605469 C 258.332031 119.875 257.878906 115.585938 252.375 115.375 Z M 252.375 115.375 " fill-opacity="1" fill-rule="nonzero"/><path fill="#ff95bb" d="M 193.546875 115.023438 C 193.546875 115.023438 191.628906 116.703125 189.175781 114.929688 C 186.726562 113.152344 186.886719 115.761719 188.113281 115.859375 C 189.34375 115.957031 191.394531 117.359375 193.546875 115.023438 Z M 193.546875 115.023438 " fill-opacity="1" fill-rule="nonzero"/><path fill="#ff95bb" d="M 186.972656 158.425781 C 186.972656 158.425781 190.875 159.691406 190.441406 164.546875 C 190.003906 169.402344 193.476562 167.027344 192.601562 165.25 C 191.726562 163.472656 191.976562 159.472656 186.972656 158.425781 Z M 186.972656 158.425781 " fill-opacity="1" fill-rule="nonzero"/><path fill="#ff95bb" d="M 205.976562 107.582031 C 205.925781 107.445312 207.226562 113.976562 204.773438 115.777344 C 202.316406 117.578125 200.992188 119.101562 202.214844 120.972656 C 203.4375 122.84375 209.640625 122.582031 209.230469 116.957031 C 208.820312 111.335938 206.441406 108.878906 205.976562 107.582031 Z M 205.976562 107.582031 " fill-opacity="1" fill-rule="nonzero"/><path fill="#ff95bb" d="M 152.011719 100.890625 C 152.132812 100.851562 146.414062 101.84375 144.894531 99.667969 C 143.378906 97.488281 142.078125 96.300781 140.421875 97.324219 C 138.761719 98.351562 138.859375 103.761719 143.769531 103.527344 C 148.679688 103.292969 150.871094 101.269531 152.015625 100.890625 Z M 152.011719 100.890625 " fill-opacity="1" fill-rule="nonzero"/><path fill="#ff95bb" d="M 210.777344 162.078125 C 210.886719 162.203125 206.765625 155.773438 208.632812 152.824219 C 210.496094 149.875 211.277344 147.695312 209.1875 146.207031 C 207.101562 144.722656 200.589844 147.597656 203.378906 153.429688 C 206.167969 159.261719 209.738281 160.886719 210.777344 162.078125 Z M 210.777344 162.078125 " fill-opacity="1" fill-rule="nonzero"/><path fill="#ff95bb" d="M 191.402344 134.546875 C 191.316406 134.484375 194.757812 137.878906 194.019531 139.957031 C 193.277344 142.039062 193.101562 143.492188 194.597656 144.121094 C 196.09375 144.746094 199.710938 142.0625 197.175781 138.851562 C 194.640625 135.644531 192.210938 135.136719 191.402344 134.546875 Z M 191.402344 134.546875 " fill-opacity="1" fill-rule="nonzero"/><g clip-path="url(#d83da93ef8)"><path fill="#ff95bb" d="M 189.789062 62.324219 C 189.714844 62.25 192.734375 66.027344 191.753906 68.007812 C 190.777344 69.988281 190.429688 71.414062 191.84375 72.214844 C 193.257812 73.011719 197.167969 70.769531 195.023438 67.28125 C 192.882812 63.792969 190.523438 63.003906 189.789062 62.324219 Z M 189.789062 62.324219 " fill-opacity="1" fill-rule="nonzero"/></g><path fill="#ff95bb" d="M 133.78125 84.558594 C 133.648438 84.648438 140.316406 81.449219 142.929688 83.589844 C 145.546875 85.734375 147.550781 86.742188 149.226562 84.910156 C 150.902344 83.078125 148.910156 76.476562 142.972656 78.46875 C 137.035156 80.460938 135.050781 83.699219 133.785156 84.558594 Z M 133.78125 84.558594 " fill-opacity="1" fill-rule="nonzero"/><path fill="#ff95bb" d="M 146.605469 124.621094 C 146.558594 124.519531 147.957031 129.488281 146.167969 131.03125 C 144.378906 132.570312 143.445312 133.828125 144.503906 135.203125 C 145.5625 136.574219 150.34375 136 149.6875 131.675781 C 149.03125 127.351562 147.042969 125.597656 146.605469 124.621094 Z M 146.605469 124.621094 " fill-opacity="1" fill-rule="nonzero"/><path fill="#ff95bb" d="M 253.265625 130.859375 C 253.386719 130.984375 248.679688 124.53125 250.445312 121.335938 C 252.207031 118.136719 252.886719 115.8125 250.609375 114.390625 C 248.335938 112.96875 241.71875 116.378906 244.996094 122.292969 C 248.273438 128.207031 252.101562 129.679688 253.261719 130.859375 Z M 253.265625 130.859375 " fill-opacity="1" fill-rule="nonzero"/><path fill="#ff95bb" d="M 185.742188 88.660156 C 185.765625 88.492188 183.660156 95.816406 180.21875 96.359375 C 176.777344 96.902344 174.628906 97.757812 174.890625 100.300781 C 175.152344 102.847656 181.597656 105.835938 184.132812 99.902344 C 186.667969 93.96875 185.535156 90.222656 185.746094 88.660156 Z M 185.742188 88.660156 " fill-opacity="1" fill-rule="nonzero"/><path fill="#ff95bb" d="M 198.839844 132.449219 C 198.996094 132.5 192.257812 129.183594 192.328125 125.753906 C 192.398438 122.320312 191.945312 120.089844 189.433594 119.898438 C 186.917969 119.707031 182.898438 125.441406 188.210938 128.929688 C 193.527344 132.421875 197.359375 131.976562 198.839844 132.449219 Z M 198.839844 132.449219 " fill-opacity="1" fill-rule="nonzero"/><path fill="#ff95bb" d="M 232.683594 114.363281 C 232.597656 114.21875 235.476562 121.367188 233.074219 123.941406 C 230.667969 126.515625 229.488281 128.53125 231.277344 130.398438 C 233.070312 132.265625 240.066406 130.636719 238.394531 124.328125 C 236.726562 118.023438 233.492188 115.742188 232.683594 114.363281 Z M 232.683594 114.363281 " fill-opacity="1" fill-rule="nonzero"/><path fill="#ff95bb" d="M 229.183594 120.15625 C 229.289062 120.152344 224.523438 119.582031 223.835938 117.496094 C 223.152344 115.414062 222.40625 114.160156 220.851562 114.582031 C 219.292969 115 218.085938 119.308594 222.027344 120.285156 C 225.972656 121.265625 228.1875 120.183594 229.183594 120.15625 Z M 229.183594 120.15625 " fill-opacity="1" fill-rule="nonzero"/><path fill="#ff95bb" d="M 172.203125 69.640625 C 172.046875 69.621094 179.0625 71.722656 179.546875 75.039062 C 180.03125 78.351562 180.828125 80.425781 183.277344 80.203125 C 185.726562 79.980469 188.671875 73.816406 182.996094 71.316406 C 177.320312 68.8125 173.707031 69.859375 172.203125 69.640625 Z M 172.203125 69.640625 " fill-opacity="1" fill-rule="nonzero"/><path fill="#ff95bb" d="M 223.015625 121.472656 C 223.15625 121.515625 217.085938 118.621094 217.109375 115.546875 C 217.136719 112.472656 216.703125 110.476562 214.449219 110.335938 C 212.195312 110.191406 208.660156 115.371094 213.457031 118.4375 C 218.257812 121.507812 221.683594 121.0625 223.015625 121.472656 Z M 223.015625 121.472656 " fill-opacity="1" fill-rule="nonzero"/><path fill="#ff95bb" d="M 218.878906 88.839844 C 218.910156 88.917969 218.089844 85.195312 219.472656 84.136719 C 220.855469 83.078125 221.597656 82.191406 220.875 81.132812 C 220.15625 80.074219 216.609375 80.296875 216.910156 83.511719 C 217.207031 86.722656 218.597656 88.101562 218.878906 88.839844 Z M 218.878906 88.839844 " fill-opacity="1" fill-rule="nonzero"/></svg>